<?xml version="1.0" encoding="utf-8"?>
<!-- Generator: Adobe Illustrator 19.1.0, SVG Export Plug-In . SVG Version: 6.00 Build 0)  -->
<svg version="1.1" id="Calque_1" xmlns="http://www.w3.org/2000/svg" xmlns:xlink="http://www.w3.org/1999/xlink" x="0px" y="0px"
	 viewBox="0 0 960 560" style="enable-background:new 0 0 960 560;" xml:space="preserve">
<style type="text/css">
	.st0{fill:#250671;}
	.st1{fill:#E9E7E5;}
	.st2{fill:#FFB700;}
	.st3{fill:none;}
</style>
<rect x="297.4" y="60.8" class="st0" width="209.7" height="209.7"/>
<rect x="297.4" y="270.8" class="st1" width="419.5" height="209.7"/>
<g>
	<rect x="354.9" y="91.8" class="st2" width="27.8" height="147"/>
	<rect x="384.4" y="119.2" class="st2" width="27.8" height="119.6"/>
	<rect x="325.5" y="145.6" class="st2" width="27.8" height="93.2"/>
	
		<rect x="434.8" y="145.5" transform="matrix(0.8732 -0.4873 0.4873 0.8732 -36.7185 243.018)" class="st2" width="27.8" height="93.2"/>
</g>
<path class="st0" d="M353.4,364.6c0,3.4-1.1,6.2-3.3,8.6c-2.5,2.7-6.3,4-11.3,4h-15.1v-44.9h15.1c4.7,0,8.3,1.3,10.8,3.9
	c1.9,2,2.8,4.5,2.8,7.7c0,2.2-0.6,4.3-1.7,6.1c-1.1,1.8-2.7,3.1-4.8,3.8c2.3,0.8,4.1,2.2,5.5,4.2C352.8,360,353.4,362.2,353.4,364.6
	z M346.7,344.3c0-2.2-0.8-4-2.3-5.2c-1.6-1.2-3.5-1.8-5.8-1.8h-9.3v14.1h9.4c2.5,0,4.4-0.6,5.8-1.7
	C345.9,348.5,346.7,346.7,346.7,344.3z M347.7,364.2c0-2.4-0.8-4.3-2.5-5.8c-1.7-1.4-3.8-2.2-6.4-2.2h-9.5V372h9.6
	c2.7,0,4.8-0.6,6.4-1.9C346.9,368.9,347.7,366.9,347.7,364.2z"/>
<path class="st0" d="M394.6,343.9c0.7,2.9,1,6.5,1,10.8s-0.4,7.9-1,10.8c-0.7,2.9-2.2,5.5-4.4,7.6c-3.3,3.3-7.2,4.9-11.7,4.9
	c-4.5,0-8.4-1.6-11.7-4.9c-2.2-2.2-3.7-4.7-4.4-7.6c-0.7-2.9-1-6.5-1-10.8s0.4-7.9,1-10.8c0.7-2.9,2.2-5.5,4.4-7.6
	c3.3-3.3,7.2-4.9,11.7-4.9c4.5,0,8.4,1.6,11.7,4.9C392.4,338.4,393.9,341,394.6,343.9z M389.8,358.6c0-0.8,0.1-2.1,0.1-3.9
	c0-1.8,0-3.1-0.1-3.9s-0.2-2-0.3-3.5s-0.5-2.9-1-4.1c-0.5-1.1-1.2-2.2-2.1-3c-2.2-2.3-4.8-3.4-7.8-3.4c-3,0-5.6,1.1-7.8,3.4
	c-0.9,0.9-1.6,1.9-2.1,3c-0.5,1.1-0.9,2.5-1,4.1c-0.2,1.6-0.3,2.7-0.3,3.5c0,0.8-0.1,2.1-0.1,3.9c0,1.8,0,3.1,0.1,3.9
	c0,0.8,0.2,2,0.3,3.5c0.2,1.6,0.5,2.9,1,4.1c0.5,1.1,1.2,2.2,2.1,3c2.2,2.3,4.8,3.4,7.8,3.4c3,0,5.6-1.1,7.8-3.4
	c0.9-0.9,1.6-1.9,2.1-3c0.5-1.1,0.9-2.5,1-4.1C389.6,360.6,389.7,359.4,389.8,358.6z"/>
<path class="st0" d="M436.2,343.9c0.7,2.9,1,6.5,1,10.8s-0.4,7.9-1,10.8c-0.7,2.9-2.2,5.5-4.4,7.6c-3.3,3.3-7.2,4.9-11.7,4.9
	c-4.5,0-8.4-1.6-11.7-4.9c-2.2-2.2-3.7-4.7-4.4-7.6c-0.7-2.9-1-6.5-1-10.8s0.4-7.9,1-10.8c0.7-2.9,2.2-5.5,4.4-7.6
	c3.3-3.3,7.2-4.9,11.7-4.9c4.5,0,8.4,1.6,11.7,4.9C434.1,338.4,435.5,341,436.2,343.9z M431.4,358.6c0-0.8,0.1-2.1,0.1-3.9
	c0-1.8,0-3.1-0.1-3.9c0-0.8-0.2-2-0.3-3.5s-0.5-2.9-1-4.1c-0.5-1.1-1.2-2.2-2.1-3c-2.2-2.3-4.8-3.4-7.8-3.4c-3,0-5.6,1.1-7.8,3.4
	c-0.9,0.9-1.6,1.9-2.1,3c-0.5,1.1-0.9,2.5-1,4.1s-0.3,2.7-0.3,3.5s-0.1,2.1-0.1,3.9c0,1.8,0,3.1,0.1,3.9c0,0.8,0.2,2,0.3,3.5
	c0.2,1.6,0.5,2.9,1,4.1c0.5,1.1,1.2,2.2,2.1,3c2.2,2.3,4.8,3.4,7.8,3.4c3,0,5.6-1.1,7.8-3.4c0.9-0.9,1.6-1.9,2.1-3
	c0.5-1.1,0.9-2.5,1-4.1C431.2,360.6,431.4,359.4,431.4,358.6z"/>
<path class="st0" d="M480.4,377.2h-6.7l-13-22.6l-7.6,8.7v13.9h-5.7v-44.9h5.7v23.1l20.2-23.1h7L464.7,350L480.4,377.2z"/>
<path class="st0" d="M508.6,333.2l5.6-1.3l10,43.8l-5.6,1.3 M498.4,377.2h-5.7v-44.9h5.7"/>
<path class="st0" d="M566.6,343.9c0.7,2.9,1,6.5,1,10.8s-0.4,7.9-1,10.8c-0.7,2.9-2.2,5.5-4.4,7.6c-3.3,3.3-7.2,4.9-11.7,4.9
	c-4.5,0-8.4-1.6-11.7-4.9c-2.2-2.2-3.7-4.7-4.4-7.6c-0.7-2.9-1-6.5-1-10.8s0.4-7.9,1-10.8s2.2-5.5,4.4-7.6c3.3-3.3,7.2-4.9,11.7-4.9
	c4.5,0,8.4,1.6,11.7,4.9C564.5,338.4,565.9,341,566.6,343.9z M561.8,358.6c0-0.8,0.1-2.1,0.1-3.9c0-1.8,0-3.1-0.1-3.9
	s-0.2-2-0.3-3.5s-0.5-2.9-1-4.1c-0.5-1.1-1.2-2.2-2.1-3c-2.2-2.3-4.8-3.4-7.8-3.4c-3,0-5.6,1.1-7.8,3.4c-0.9,0.9-1.6,1.9-2.1,3
	c-0.5,1.1-0.9,2.5-1,4.1s-0.3,2.7-0.3,3.5s-0.1,2.1-0.1,3.9c0,1.8,0,3.1,0.1,3.9c0,0.8,0.2,2,0.3,3.5c0.2,1.6,0.5,2.9,1,4.1
	c0.5,1.1,1.2,2.2,2.1,3c2.2,2.3,4.8,3.4,7.8,3.4c3,0,5.6-1.1,7.8-3.4c0.9-0.9,1.6-1.9,2.1-3c0.5-1.1,0.9-2.5,1-4.1
	C561.6,360.6,561.7,359.4,561.8,358.6z"/>
<path class="st0" d="M607.9,360.8c0,5.2-1.3,9.4-4,12.5c-2.7,3.1-6.6,4.7-11.8,4.7c-5.1,0-9-1.6-11.7-4.7c-2.7-3.1-4-7.3-4-12.5
	v-28.6h5.6v28.7c0,7.9,3.4,11.8,10.1,11.8c3.5,0,6.1-1.1,7.7-3.2c1.6-2.1,2.4-5,2.4-8.6v-28.7h5.6V360.8z"/>
<path class="st0" d="M650.3,364.8c0,3.4-1.2,6.3-3.7,8.7c-3,3-7.2,4.4-12.7,4.4c-5.4,0-9.7-1.4-12.7-4.2c-3.1-2.9-4.7-6.5-4.7-10.8
	h5.9c0,2.7,1,5.1,3.1,7.1c1.9,1.8,4.7,2.7,8.4,2.7c3.6,0,6.4-0.9,8.2-2.6c1.5-1.4,2.3-3.1,2.3-5.3c0-1.9-0.6-3.4-1.8-4.7
	s-3.1-2.1-5.6-2.5l-6.9-1.1c-3.6-0.5-6.5-1.8-8.6-3.8c-2.2-2-3.2-4.7-3.2-8.1c0-3.5,1.3-6.5,3.8-8.9c3.2-3,7-4.4,11.6-4.4
	c4.8,0,8.6,1.4,11.5,4.2c2.7,2.6,4.1,5.8,4.2,9.7h-5.9c-0.1-2.2-0.8-4-2.2-5.5c-1.9-2.1-4.5-3.2-7.8-3.2c-3.3,0-5.9,1.1-7.8,3.2
	c-1.1,1.4-1.7,3-1.7,4.8c0,1.9,0.6,3.4,1.9,4.4c1.2,1,2.8,1.7,4.7,1.9c1,0.1,2.4,0.3,4.2,0.6c1.8,0.3,2.8,0.5,3.1,0.5
	c3.8,0.5,6.8,1.9,9,4.2C649.2,358.4,650.3,361.3,650.3,364.8z"/>
<path class="st0" d="M690.5,377.2h-29.7v-44.9h29.7v5.2h-24.1v13.7h18.2v5.3h-18.2V372h24.1V377.2z"/>
<g>
	<rect x="323.2" y="395.6" class="st3" width="367.2" height="22"/>
	<path class="st0" d="M336.1,411.9h-2.2l-3-6.7h-3.7v6.7h-2v-16h5.5c1.8,0,3.1,0.5,4.1,1.4c0.8,0.9,1.3,2,1.3,3.3
		c0,1.2-0.4,2.3-1.2,3.2c-0.5,0.5-1.1,0.9-1.9,1.1L336.1,411.9z M334,400.6c0-1.9-1.1-2.8-3.3-2.8h-3.5v5.6h3.5
		C332.9,403.4,334,402.4,334,400.6z"/>
	<path class="st0" d="M349.9,406.8h-8.5c0,1.2,0.4,2.1,1.2,2.9c0.6,0.6,1.3,0.9,2.2,0.9c0.8,0,1.5-0.2,2.1-0.7
		c0.5-0.4,0.8-0.8,0.9-1.4h1.9c-0.3,1.2-0.9,2.1-1.7,2.7c-0.9,0.7-1.9,1-3.2,1c-1.4,0-2.6-0.5-3.6-1.5c-1.1-1.1-1.7-2.6-1.7-4.5
		c0-1.9,0.6-3.4,1.7-4.6c1-1,2.2-1.5,3.6-1.5c1.5,0,2.6,0.5,3.5,1.4c1.1,1.1,1.6,2.6,1.6,4.6V406.8z M347.9,405.2c0-1-0.4-1.8-1-2.5
		c-0.6-0.6-1.3-0.9-2.2-0.9c-1,0-1.8,0.4-2.4,1.1c-0.6,0.7-0.9,1.5-0.9,2.3H347.9z"/>
	<path class="st0" d="M364.7,411.8c-0.4,0.2-0.8,0.3-1.3,0.3c-0.5,0-0.9-0.2-1.2-0.5c-0.3-0.3-0.5-0.7-0.5-1.2h0
		c-0.3,0.6-0.8,1-1.5,1.4c-0.7,0.3-1.4,0.5-2.2,0.5c-1.3,0-2.3-0.3-2.9-1s-1-1.5-1-2.4c0-0.9,0.3-1.8,1-2.5c0.7-0.7,1.7-1.1,3.1-1.2
		l3.6-0.2v-0.8c0-0.7-0.2-1.3-0.6-1.6c-0.5-0.4-1.1-0.7-1.9-0.7c-0.9,0-1.6,0.2-2.1,0.7c-0.4,0.4-0.6,0.8-0.6,1.3h-1.9
		c0-0.9,0.4-1.7,1.1-2.3c0.8-0.8,2-1.3,3.5-1.3c1.1,0,1.9,0.2,2.6,0.6s1.2,1,1.5,1.6c0.2,0.5,0.3,1.1,0.3,1.7v5.5
		c0,0.5,0.2,0.8,0.7,0.8l0.5-0.1V411.8z M361.6,407.1v-0.7l-3.2,0.2c-0.7,0-1.3,0.2-1.8,0.6c-0.5,0.3-0.7,0.9-0.7,1.5
		c0,0.6,0.2,1,0.6,1.4c0.4,0.4,0.9,0.5,1.7,0.5c1,0,1.8-0.3,2.4-0.9C361.3,408.9,361.6,408.1,361.6,407.1z"/>
	<path class="st0" d="M378.3,411.9h-1.7l-0.1-1.5c-0.3,0.6-0.8,1-1.5,1.3c-0.7,0.3-1.3,0.5-2,0.5c-1.4,0-2.5-0.4-3.3-1.3
		c-1.1-1.1-1.6-2.7-1.6-4.7c0-2,0.6-3.6,1.8-4.7c0.9-0.9,2-1.3,3.3-1.3c0.7,0,1.4,0.2,2,0.5c0.6,0.3,1.1,0.7,1.4,1.2v-6.2h1.9V411.9
		z M376.5,406.2c0-1.7-0.4-2.9-1.3-3.6c-0.5-0.5-1.2-0.7-1.9-0.7c-0.8,0-1.5,0.3-2.1,0.9c-0.8,0.8-1.2,2-1.2,3.5
		c0,1.6,0.4,2.7,1.2,3.5c0.5,0.5,1.2,0.8,2.1,0.8c0.7,0,1.4-0.2,1.9-0.7C376,409,376.5,407.8,376.5,406.2z"/>
	<path class="st0" d="M393.8,411.9h-10.2v-1.6h4.1v-8.2H384v-1.6h5.6v9.8h4.2V411.9z M389.9,398.3h-2.7v-2.7h2.7V398.3z"/>
	<path class="st0" d="M407.4,411.9h-2v-7.2c0-1.8-0.8-2.7-2.5-2.7c-0.5,0-1,0.2-1.5,0.5c-0.5,0.3-0.8,0.8-1.1,1.3
		c-0.3,0.7-0.5,1.7-0.5,2.9v5.2h-1.9v-11.4h1.7l0.2,1.7c0.3-0.6,0.8-1.1,1.5-1.5c0.7-0.4,1.4-0.5,2.1-0.5c1.3,0,2.3,0.4,3,1.1
		s1.1,1.8,1.1,3.1V411.9z"/>
	<path class="st0" d="M422.8,413.6c0,0.9-0.3,1.6-1,2.3c-0.9,0.9-2.5,1.4-4.7,1.4c-2.1,0-3.5-0.4-4.4-1.3c-0.6-0.6-0.9-1.2-0.9-2
		c0-0.6,0.2-1.1,0.5-1.5c0.3-0.5,0.7-0.8,1.2-1c-0.4-0.2-0.7-0.4-0.9-0.7c-0.2-0.3-0.4-0.7-0.4-1.2c0-1,0.5-1.7,1.6-2.2
		c-0.9-0.7-1.3-1.7-1.3-3c0-1.1,0.4-2,1.1-2.8c0.8-0.9,2-1.3,3.4-1.3c1,0,1.9,0.2,2.7,0.7c0.2-0.5,0.5-0.9,0.9-1.2
		c0.4-0.3,0.9-0.4,1.4-0.4c0.1,0,0.3,0,0.6,0v1.6c-0.1,0-0.2,0-0.4,0c-0.4,0-0.7,0.1-0.9,0.3c-0.3,0.2-0.4,0.4-0.5,0.7
		c0.5,0.7,0.8,1.5,0.8,2.4c0,1-0.3,1.9-1,2.7c-0.8,0.9-2,1.4-3.5,1.4c-0.6,0-1.3-0.1-2-0.4c-0.2,0.1-0.5,0.2-0.7,0.4
		c-0.2,0.2-0.3,0.4-0.3,0.7c0,0.4,0.1,0.7,0.5,0.9c0.3,0.2,0.7,0.2,1.2,0.2h2.5c1.7,0,2.9,0.4,3.7,1.2
		C422.5,411.9,422.8,412.7,422.8,413.6z M420.9,413.6c0-0.3,0-0.5-0.1-0.8c-0.1-0.2-0.2-0.4-0.4-0.5c-0.2-0.1-0.4-0.2-0.6-0.3
		c-0.2-0.1-0.4-0.1-0.8-0.2s-0.6,0-0.7,0c-0.2,0-0.4,0-0.8,0c-0.1,0-0.2,0-0.3,0H415c-0.4,0.1-0.7,0.4-1,0.7
		c-0.3,0.3-0.4,0.7-0.4,1.1c0,0.5,0.2,0.9,0.5,1.2c0.5,0.5,1.6,0.8,3.2,0.8c1.5,0,2.6-0.3,3.1-0.8
		C420.7,414.4,420.9,414,420.9,413.6z M419.6,404.2c0-0.7-0.2-1.3-0.7-1.8c-0.5-0.5-1.1-0.7-1.9-0.7s-1.4,0.2-1.9,0.7
		c-0.5,0.5-0.7,1.1-0.7,1.8c0,0.7,0.3,1.3,0.8,1.8c0.5,0.5,1.1,0.7,1.9,0.7s1.4-0.2,1.9-0.7C419.3,405.6,419.6,405,419.6,404.2z"/>
	<path class="st0" d="M451.4,411.8c-0.4,0.2-0.8,0.3-1.3,0.3c-0.5,0-0.9-0.2-1.2-0.5c-0.3-0.3-0.5-0.7-0.5-1.2h0
		c-0.3,0.6-0.8,1-1.5,1.4c-0.7,0.3-1.4,0.5-2.2,0.5c-1.3,0-2.3-0.3-2.9-1s-1-1.5-1-2.4c0-0.9,0.3-1.8,1-2.5c0.7-0.7,1.7-1.1,3.1-1.2
		l3.6-0.2v-0.8c0-0.7-0.2-1.3-0.6-1.6c-0.5-0.4-1.1-0.7-1.9-0.7c-0.9,0-1.6,0.2-2.1,0.7c-0.4,0.4-0.6,0.8-0.6,1.3h-1.9
		c0-0.9,0.4-1.7,1.1-2.3c0.8-0.8,2-1.3,3.5-1.3c1.1,0,1.9,0.2,2.6,0.6s1.2,1,1.5,1.6c0.2,0.5,0.3,1.1,0.3,1.7v5.5
		c0,0.5,0.2,0.8,0.7,0.8l0.5-0.1V411.8z M448.4,407.1v-0.7l-3.2,0.2c-0.7,0-1.3,0.2-1.8,0.6c-0.5,0.3-0.7,0.9-0.7,1.5
		c0,0.6,0.2,1,0.6,1.4c0.4,0.4,0.9,0.5,1.7,0.5c1,0,1.8-0.3,2.4-0.9C448,408.9,448.4,408.1,448.4,407.1z"/>
	<path class="st0" d="M465.2,411.9h-2v-7.2c0-1.8-0.8-2.7-2.5-2.7c-0.5,0-1,0.2-1.5,0.5c-0.5,0.3-0.8,0.8-1.1,1.3
		c-0.3,0.7-0.5,1.7-0.5,2.9v5.2h-1.9v-11.4h1.7l0.2,1.7c0.3-0.6,0.8-1.1,1.5-1.5c0.7-0.4,1.4-0.5,2.1-0.5c1.3,0,2.3,0.4,3,1.1
		s1.1,1.8,1.1,3.1V411.9z"/>
	<path class="st0" d="M479.4,411.9h-1.7l-0.1-1.5c-0.3,0.6-0.8,1-1.5,1.3c-0.7,0.3-1.3,0.5-2,0.5c-1.4,0-2.5-0.4-3.3-1.3
		c-1.1-1.1-1.6-2.7-1.6-4.7c0-2,0.6-3.6,1.8-4.7c0.9-0.9,2-1.3,3.3-1.3c0.7,0,1.4,0.2,2,0.5c0.6,0.3,1.1,0.7,1.4,1.2v-6.2h1.9V411.9
		z M477.6,406.2c0-1.7-0.4-2.9-1.3-3.6c-0.5-0.5-1.2-0.7-1.9-0.7c-0.8,0-1.5,0.3-2.1,0.9c-0.8,0.8-1.2,2-1.2,3.5
		c0,1.6,0.4,2.7,1.2,3.5c0.5,0.5,1.2,0.8,2.1,0.8c0.7,0,1.4-0.2,1.9-0.7C477.2,409,477.6,407.8,477.6,406.2z"/>
	<path class="st0" d="M509,406.2c0,1.9-0.6,3.5-1.8,4.7c-0.9,0.9-2.1,1.4-3.6,1.4c-1.5,0-2.7-0.5-3.6-1.4c-1.2-1.2-1.8-2.7-1.8-4.6
		c0-1.9,0.6-3.5,1.8-4.6c0.9-0.9,2.2-1.4,3.6-1.4c1.4,0,2.6,0.5,3.6,1.4C508.4,402.7,509,404.3,509,406.2z M507,406.2
		c0-1.6-0.4-2.7-1.3-3.5c-0.6-0.5-1.3-0.8-2.1-0.8c-0.8,0-1.5,0.3-2.1,0.8c-0.9,0.8-1.3,2-1.3,3.5c0,1.6,0.4,2.8,1.3,3.5
		c0.6,0.5,1.3,0.8,2.1,0.8c0.8,0,1.5-0.3,2.1-0.8C506.6,408.9,507,407.8,507,406.2z"/>
	<path class="st0" d="M523.8,406.2c0,2-0.6,3.5-1.7,4.7c-0.8,0.9-1.9,1.3-3.3,1.3c-0.7,0-1.4-0.2-2-0.5s-1.2-0.8-1.5-1.3l-0.1,1.5
		h-1.7v-16.3h1.9v6.2c0.3-0.5,0.8-0.9,1.4-1.2c0.6-0.3,1.3-0.5,2-0.5c1.3,0,2.3,0.4,3.2,1.2C523.2,402.5,523.8,404.1,523.8,406.2z
		 M521.8,406.2c0-1.5-0.4-2.6-1.2-3.5c-0.6-0.6-1.3-0.9-2.1-0.9c-0.7,0-1.4,0.2-1.9,0.7c-0.9,0.8-1.3,1.9-1.3,3.6
		c0,1.6,0.4,2.8,1.3,3.6c0.6,0.5,1.2,0.7,1.9,0.7c0.9,0,1.6-0.3,2.1-0.8C521.4,408.9,521.8,407.8,521.8,406.2z"/>
	<path class="st0" d="M537.8,411.9h-10v-1.6h4v-13.1h-3.7v-1.6h5.6v14.7h4V411.9z"/>
	<path class="st0" d="M552.7,411.9h-10.2v-1.6h4.1v-8.2h-3.7v-1.6h5.6v9.8h4.2V411.9z M548.9,398.3h-2.7v-2.7h2.7V398.3z"/>
	<path class="st0" d="M567.3,413.6c0,0.9-0.3,1.6-1,2.3c-0.9,0.9-2.5,1.4-4.7,1.4c-2.1,0-3.5-0.4-4.4-1.3c-0.6-0.6-0.9-1.2-0.9-2
		c0-0.6,0.2-1.1,0.5-1.5c0.3-0.5,0.7-0.8,1.2-1c-0.4-0.2-0.7-0.4-0.9-0.7c-0.2-0.3-0.4-0.7-0.4-1.2c0-1,0.5-1.7,1.6-2.2
		c-0.9-0.7-1.3-1.7-1.3-3c0-1.1,0.4-2,1.1-2.8c0.8-0.9,2-1.3,3.4-1.3c1,0,1.9,0.2,2.7,0.7c0.2-0.5,0.5-0.9,0.9-1.2
		c0.4-0.3,0.9-0.4,1.4-0.4c0.1,0,0.3,0,0.6,0v1.6c-0.1,0-0.2,0-0.4,0c-0.4,0-0.7,0.1-0.9,0.3c-0.3,0.2-0.4,0.4-0.5,0.7
		c0.5,0.7,0.8,1.5,0.8,2.4c0,1-0.3,1.9-1,2.7c-0.8,0.9-2,1.4-3.5,1.4c-0.6,0-1.3-0.1-2-0.4c-0.2,0.1-0.5,0.2-0.7,0.4
		c-0.2,0.2-0.3,0.4-0.3,0.7c0,0.4,0.1,0.7,0.5,0.9c0.3,0.2,0.7,0.2,1.2,0.2h2.5c1.7,0,2.9,0.4,3.7,1.2
		C567,411.9,567.3,412.7,567.3,413.6z M565.4,413.6c0-0.3,0-0.5-0.1-0.8c-0.1-0.2-0.2-0.4-0.4-0.5s-0.4-0.2-0.6-0.3
		s-0.4-0.1-0.8-0.2c-0.3,0-0.6,0-0.7,0s-0.4,0-0.8,0c-0.1,0-0.2,0-0.3,0h-2.2c-0.4,0.1-0.7,0.4-1,0.7c-0.3,0.3-0.4,0.7-0.4,1.1
		c0,0.5,0.2,0.9,0.5,1.2c0.5,0.5,1.6,0.8,3.2,0.8c1.6,0,2.6-0.3,3.1-0.8C565.2,414.4,565.4,414,565.4,413.6z M564.1,404.2
		c0-0.7-0.2-1.3-0.7-1.8c-0.5-0.5-1.1-0.7-1.9-0.7c-0.8,0-1.4,0.2-1.9,0.7c-0.5,0.5-0.7,1.1-0.7,1.8c0,0.7,0.3,1.3,0.8,1.8
		c0.5,0.5,1.1,0.7,1.9,0.7c0.8,0,1.4-0.2,1.9-0.7C563.8,405.6,564.1,405,564.1,404.2z"/>
	<path class="st0" d="M581.5,411.8c-0.4,0.2-0.8,0.3-1.3,0.3c-0.5,0-0.9-0.2-1.2-0.5c-0.3-0.3-0.5-0.7-0.5-1.2h0
		c-0.3,0.6-0.8,1-1.5,1.4c-0.7,0.3-1.4,0.5-2.2,0.5c-1.3,0-2.3-0.3-2.9-1c-0.7-0.7-1-1.5-1-2.4c0-0.9,0.3-1.8,1-2.5
		c0.7-0.7,1.7-1.1,3.1-1.2l3.6-0.2v-0.8c0-0.7-0.2-1.3-0.6-1.6c-0.5-0.4-1.1-0.7-1.9-0.7c-0.9,0-1.6,0.2-2.1,0.7
		c-0.4,0.4-0.6,0.8-0.6,1.3h-1.9c0-0.9,0.4-1.7,1.1-2.3c0.8-0.8,2-1.3,3.5-1.3c1.1,0,1.9,0.2,2.6,0.6s1.2,1,1.5,1.6
		c0.2,0.5,0.3,1.1,0.3,1.7v5.5c0,0.5,0.2,0.8,0.7,0.8l0.5-0.1V411.8z M578.4,407.1v-0.7l-3.2,0.2c-0.7,0-1.3,0.2-1.8,0.6
		c-0.5,0.3-0.7,0.9-0.7,1.5c0,0.6,0.2,1,0.6,1.4c0.4,0.4,0.9,0.5,1.7,0.5c1,0,1.8-0.3,2.4-0.9C578.1,408.9,578.4,408.1,578.4,407.1z
		"/>
	<path class="st0" d="M595.1,411.3c-0.9,0.5-2,0.8-3.2,0.8c-1.2,0-2.1-0.3-2.7-1s-0.9-1.6-0.9-2.6v-6.4h-3.6v-1.6h3.6v-3l1.9-0.6
		v3.6h4.8v1.6h-4.8v6.2c0,0.6,0.2,1.1,0.5,1.5c0.4,0.4,0.9,0.6,1.5,0.6c0.8,0,1.8-0.3,2.9-0.8V411.3z"/>
	<path class="st0" d="M610.5,411.9h-10.2v-1.6h4.1v-8.2h-3.7v-1.6h5.6v9.8h4.2V411.9z M606.7,398.3h-2.7v-2.7h2.7V398.3z"/>
	<path class="st0" d="M624.6,406.2c0,1.9-0.6,3.5-1.8,4.7c-0.9,0.9-2.1,1.4-3.6,1.4c-1.5,0-2.7-0.5-3.6-1.4
		c-1.2-1.2-1.8-2.7-1.8-4.6c0-1.9,0.6-3.5,1.8-4.6c0.9-0.9,2.2-1.4,3.6-1.4c1.4,0,2.6,0.5,3.6,1.4
		C624,402.7,624.6,404.3,624.6,406.2z M622.6,406.2c0-1.6-0.4-2.7-1.3-3.5c-0.6-0.5-1.3-0.8-2.1-0.8c-0.8,0-1.5,0.3-2.1,0.8
		c-0.9,0.8-1.3,2-1.3,3.5c0,1.6,0.4,2.8,1.3,3.5c0.6,0.5,1.3,0.8,2.1,0.8c0.8,0,1.5-0.3,2.1-0.8
		C622.2,408.9,622.6,407.8,622.6,406.2z"/>
	<path class="st0" d="M638.6,411.9h-2v-7.2c0-1.8-0.8-2.7-2.5-2.7c-0.5,0-1,0.2-1.5,0.5c-0.5,0.3-0.8,0.8-1.1,1.3
		c-0.3,0.7-0.5,1.7-0.5,2.9v5.2h-1.9v-11.4h1.7l0.2,1.7c0.3-0.6,0.8-1.1,1.5-1.5c0.7-0.4,1.4-0.5,2.1-0.5c1.3,0,2.3,0.4,3,1.1
		c0.7,0.7,1.1,1.8,1.1,3.1V411.9z"/>
</g>
<g>
</g>
<g>
</g>
<g>
</g>
<g>
</g>
<g>
</g>
<g>
</g>
<g>
</g>
<g>
</g>
<g>
</g>
<g>
</g>
<g>
</g>
<g>
</g>
<g>
</g>
<g>
</g>
<g>
</g>
</svg>
