<?xml version="1.0" encoding="utf-8"?>
<!-- Generator: Adobe Illustrator 17.1.0, SVG Export Plug-In . SVG Version: 6.00 Build 0)  -->
<!DOCTYPE svg PUBLIC "-//W3C//DTD SVG 1.1//EN" "http://www.w3.org/Graphics/SVG/1.1/DTD/svg11.dtd">
<svg version="1.1" id="Calque_1" xmlns="http://www.w3.org/2000/svg" xmlns:xlink="http://www.w3.org/1999/xlink" x="0px" y="0px"
	 width="210px" height="162px" viewBox="0 0 210 162" enable-background="new 0 0 210 162" xml:space="preserve">
<g id="APP_DESIGN">
</g>
<g id="ECOMMERCE">
</g>
<g id="WORDPRESS">
</g>
<g>
	<path fill="#FFFFFF" d="M101.9,124.1l2.1,0.6v-98l-1.4-0.2c-12.1-3.1-23.5-4.7-35-4.5c-10.9,0.1-22.5,1.5-35.3,4.5l-1.1,0.3v97.9
		l1.8-0.4c15.2-3.5,25.4-5,35-5.1C77.9,119.3,88.1,120.7,101.9,124.1z M54.9,41.7c0.2-0.3,0.6-0.4,0.9-0.5
		c5.9-0.6,11.7-0.7,17.4-0.5c5.9,0.2,11.8,0.9,17.5,2c0.4,0.1,0.7,0.3,0.9,0.6c0.2,0.3,0.3,0.7,0.2,1c-0.1,0.4-0.3,0.7-0.6,0.9
		c-0.3,0.2-0.7,0.3-1,0.2c-5.6-1.1-11.4-1.7-17.1-1.9c-1.6-0.1-3.2-0.1-4.7-0.1c-4.1,0-8.2,0.2-12.3,0.6c-0.7,0-1.4-0.5-1.5-1.2
		C54.5,42.3,54.6,42,54.9,41.7z M91.7,89.4c-0.1,0.3-0.3,0.7-0.6,0.9c-0.3,0.2-0.7,0.3-1,0.2c-7.4-1.4-15.1-2.1-22.8-2
		c-7.3,0.1-15,0.8-22.6,2.2c-0.7,0.1-1.4-0.4-1.6-1.1c-0.1-0.4,0-0.7,0.2-1s0.5-0.5,0.9-0.6c7.8-1.4,15.6-2.2,23.1-2.2
		c0.3,0,0.6,0,0.9,0c7.6,0,15.1,0.7,22.4,2.1C91.4,87.9,91.9,88.6,91.7,89.4z M43.4,58.4c0.2-0.3,0.5-0.5,0.9-0.6
		c7.8-1.4,15.6-2.2,23.1-2.2c0.3,0,0.6,0,0.9,0c7.5,0,15.1,0.7,22.4,2.1c0.4,0.1,0.7,0.3,0.9,0.6c0.2,0.3,0.3,0.7,0.2,1
		c-0.1,0.4-0.3,0.7-0.6,0.9c-0.3,0.2-0.7,0.3-1,0.2c-7.4-1.4-15.1-2.1-22.8-2c-7.3,0.1-15,0.8-22.6,2.2c-0.7,0.2-1.4-0.4-1.6-1.1
		C43.1,59.1,43.2,58.7,43.4,58.4z M44.3,72.1c7.8-1.4,15.6-2.2,23.1-2.2c0.3,0,0.6,0,0.9,0c7.6,0,15.1,0.7,22.4,2.1
		c0.4,0.1,0.7,0.3,0.9,0.6c0.2,0.3,0.3,0.7,0.2,1c-0.1,0.4-0.3,0.7-0.6,0.9c-0.3,0.2-0.7,0.3-1,0.2c-7.5-1.4-15.1-2.1-22.8-2
		c-7.4,0.1-15,0.8-22.6,2.2c-0.7,0.1-1.4-0.4-1.6-1.1C43,72.9,43.5,72.2,44.3,72.1z M44.7,105.5c-0.3,0.1-0.7,0-1-0.2
		c-0.3-0.2-0.5-0.5-0.6-0.9c-0.1-0.7,0.4-1.4,1.1-1.6c7.8-1.4,15.6-2.2,23.1-2.2c0.3,0,0.7,0,1,0c7.5,0,15,0.7,22.3,2.1
		c0.7,0.1,1.2,0.8,1.1,1.6l0,0c-0.1,0.4-0.3,0.7-0.6,0.9c-0.3,0.2-0.7,0.3-1,0.2c-7.5-1.4-15.2-2.1-22.8-2
		C60,103.4,52.4,104.2,44.7,105.5z"/>
	<path fill="#FFFFFF" d="M21.6,34.4V134H104v-6.5l-1.2-0.3C88.1,123.4,78,122,68,121.9c-11.5,0.1-23.3,2.3-37.7,5.8
		c-1.1,0.4-1.8-0.4-1.8-1.3V34.4L21.6,34.4L21.6,34.4z"/>
	<path fill="#FFFFFF" d="M20.3,136.7c-0.7,0-1.3-0.6-1.3-1.4V33c0-0.7,0.6-1.4,1.4-1.4h8.2v-6c0-0.6,0.4-1.2,1-1.3
		c14.1-3.4,26.3-5,38.1-5.1c11.9-0.1,23.8,1.7,36.3,4.9V0H0v162h104v-25.3H20.3L20.3,136.7z"/>
	<path fill="#FFFFFF" d="M106.1,0v24.1c13.9-3.3,25.6-5.5,37.1-5.6c0.2,0,0.4,0,0.6,0c10.5,0,21.2,1.7,36.9,5.8
		c0.6,0.1,1.1,0.7,1.1,1.3v6h8.7c0.7,0,1.4,0.6,1.4,1.6v102.1c0,0.7-0.6,1.4-1.3,1.4h-38.8v6.1c0,0.2-0.1,0.5-0.2,0.7
		c-0.4,0.7-1.2,0.9-1.8,0.5l-6.9-4l-6.7,3.9c-0.8,0.5-2-0.2-2-1.2v-6h-28.1V162H210V0H106.1z"/>
	<path fill="#FFFFFF" d="M151.7,122.2V134h37.4V34.4h-7.3l-0.1,92.4c-0.1,0.4-0.3,0.6-0.6,0.8c-0.3,0.2-0.7,0.2-1,0.1
		c-11-2.9-19.3-4.6-26.8-5.3L151.7,122.2z"/>
	<path fill="#FFFFFF" d="M106.1,134H134v-11.6l-1.6,0.2c-6.8,0.8-14.5,2.1-25.1,4.6l-1.2,0.3C106.1,127.5,106.1,134,106.1,134z"/>
	<path fill="#FFFFFF" d="M138.1,122l-1.4,0.1v18.1l5.4-3.1c0.4-0.2,0.9-0.2,1.3,0l5.5,3.2V122l-1.4-0.1c-1.4-0.1-2.9-0.1-4.3-0.1
		C141.5,121.9,139.8,121.9,138.1,122z"/>
	<path fill="#FFFFFF" d="M143.3,21.2c-11.2,0.1-22.3,2.2-35.6,5.3l-1.6,0.2v98l2.3-0.4c15.2-3.5,25.4-5,35-5.1
		c9.9-0.1,20.1,1.4,34,5l1.8,0.5V26.8l-1.1-0.3C163.4,22.6,153.4,21.1,143.3,21.2z M119.6,42.8c7.8-1.4,15.6-2.2,23.1-2.2
		c0.3,0,0.6,0,0.9,0c7.6,0,15.1,0.7,22.4,2.1l0,0c0.4,0.1,0.7,0.3,0.9,0.6c0.2,0.3,0.3,0.7,0.2,1c-0.1,0.4-0.3,0.7-0.6,0.9
		s-0.7,0.3-1,0.2c-7.4-1.4-15-2.1-22.8-2c-7.3,0.1-15,0.8-22.6,2.2c-0.7,0.1-1.4-0.4-1.6-1.1C118.4,43.7,118.9,43,119.6,42.8z
		 M166.5,60.2c-0.3,0.2-0.7,0.3-1,0.2c-7.4-1.4-15.1-2-22.8-2c-7.3,0.1-15,0.8-22.6,2.2c-0.8,0.1-1.4-0.4-1.6-1.1
		c-0.1-0.4,0-0.7,0.2-1s0.5-0.5,0.9-0.6c7.8-1.4,15.6-2.2,23.1-2.2c0.3,0,0.6,0,0.9,0c7.5,0,15.1,0.7,22.4,2.1l0,0
		c0.4,0.1,0.7,0.3,0.9,0.6c0.2,0.3,0.3,0.7,0.2,1C167,59.7,166.8,60,166.5,60.2z M167.1,73.5c-0.1,0.4-0.3,0.7-0.6,0.9
		c-0.3,0.2-0.7,0.3-1,0.2c-7.5-1.4-15.1-2.1-22.8-2c-7.4,0.1-15,0.8-22.6,2.2c-0.8,0.1-1.4-0.4-1.6-1.1c-0.1-0.4,0-0.7,0.2-1
		s0.5-0.5,0.9-0.6c7.8-1.4,15.6-2.2,23.1-2.2c0.3,0,0.6,0,0.9,0c7.6,0,15.1,0.7,22.4,2.1l0,0c0.4,0.1,0.7,0.3,0.9,0.6
		C167,72.8,167.1,73.2,167.1,73.5z M167.1,104.3c-0.1,0.4-0.3,0.7-0.6,0.9c-0.3,0.2-0.6,0.3-1,0.2c-7.4-1.4-15.1-2.1-22.8-2
		c-7.3,0.1-15,0.8-22.6,2.2c-0.4,0.1-0.7,0-1-0.2s-0.5-0.5-0.6-0.9c-0.1-0.7,0.4-1.4,1.1-1.6c7.8-1.4,15.6-2.2,23.1-2.2
		c0.3,0,0.7,0,1,0c7.5,0,15,0.7,22.3,2.1C166.7,102.9,167.2,103.6,167.1,104.3z M167.1,89.4c-0.1,0.3-0.3,0.7-0.6,0.9
		c-0.3,0.2-0.6,0.3-1,0.2c-7.5-1.4-15.1-2.1-22.8-2c-7.3,0.1-15,0.8-22.6,2.2c-0.7,0.1-1.4-0.4-1.6-1.1c-0.1-0.4,0-0.7,0.2-1
		s0.5-0.5,0.9-0.6c7.8-1.4,15.6-2.2,23.1-2.2c0.3,0,0.6,0,0.9,0c7.6,0,15.1,0.7,22.4,2.1C166.7,87.9,167.2,88.6,167.1,89.4z"/>
</g>
</svg>
