<?xml version="1.0" encoding="utf-8"?>
<!-- Generator: Adobe Illustrator 17.1.0, SVG Export Plug-In . SVG Version: 6.00 Build 0)  -->
<!DOCTYPE svg PUBLIC "-//W3C//DTD SVG 1.1//EN" "http://www.w3.org/Graphics/SVG/1.1/DTD/svg11.dtd">
<svg version="1.1" id="Calque_1" xmlns="http://www.w3.org/2000/svg" xmlns:xlink="http://www.w3.org/1999/xlink" x="0px" y="0px"
	 width="210px" height="162px" viewBox="0 0 210 162" enable-background="new 0 0 210 162" xml:space="preserve">
<g>
	<path fill="#FFFFFF" d="M100.2,42.8l1.9,1.9c0.7-0.7,1.4-1.3,2.1-1.9l-1.8-1.7C101.7,41.5,100.9,42.1,100.2,42.8z"/>
	<path fill="#FFFFFF" d="M97.6,40.2l2.1,2.1c0.7-0.7,1.5-1.3,2.2-1.8l-2-1.9C99.1,38.9,98.3,39.5,97.6,40.2z"/>
	<path fill="#FFFFFF" d="M97.5,49.9c0.5-0.7,1.1-1.5,1.8-2.3l-1.7-1.7c-0.6,0.9-1,1.8-1.3,2.7L97.5,49.9z"/>
	<path fill="#FFFFFF" d="M102.8,40.7l1.7,1.7c0.8-0.7,1.5-1.3,2.3-1.7l-1.2-1.2C104.7,39.6,103.8,40.1,102.8,40.7z"/>
	<path fill="#FFFFFF" d="M106.4,39.1l1.1,1.1c0.8-0.5,1.4-0.8,2.1-1C108.7,38.8,107.6,38.8,106.4,39.1z"/>
	<path fill="#FFFFFF" d="M107.1,45.6l-2.4-2.3c-0.7,0.6-1.4,1.2-2.1,1.9l2.5,2.5C105.8,47,106.4,46.3,107.1,45.6z"/>
	<path fill="#FFFFFF" d="M109.3,47.8l-1.8-1.7c-0.6,0.7-1.2,1.4-2,2.1l1.9,1.9C108.2,49.3,108.8,48.5,109.3,47.8z"/>
	<path fill="#FFFFFF" d="M109.6,53.1l-2.1-2.1c-0.7,0.6-1.4,1.3-2.2,1.8l1.9,1.9C108.1,54.4,108.8,53.8,109.6,53.1z"/>
	<path fill="#FFFFFF" d="M102.1,50.4l-2.2-2.2c-0.7,0.8-1.2,1.6-1.8,2.3l1.7,1.7C100.4,51.7,101.2,51.1,102.1,50.4z"/>
	<path fill="#FFFFFF" d="M109.7,43.4c-0.5,0.7-1.1,1.5-1.8,2.3l1.7,1.7c0.6-0.9,1.1-1.8,1.4-2.7L109.7,43.4z"/>
	<path fill="#FFFFFF" d="M111.9,50.3l-2-1.9c-0.6,0.7-1.2,1.5-1.8,2.2l2.1,2.1C110.8,51.9,111.4,51.1,111.9,50.3z"/>
	<path fill="#FFFFFF" d="M104.2,52.6l-1.7-1.7c-0.8,0.7-1.6,1.2-2.3,1.7l1.2,1.2C102.3,53.6,103.3,53.2,104.2,52.6z"/>
	<path fill="#FFFFFF" d="M106.9,50.5l-1.8-1.8c-0.7,0.7-1.4,1.3-2.1,1.9l1.8,1.7C105.5,51.8,106.2,51.2,106.9,50.5z"/>
	<path fill="#FFFFFF" d="M107.4,41.1c-0.7,0.5-1.5,1.1-2.3,1.7l2.2,2.2c0.7-0.8,1.2-1.5,1.8-2.3L107.4,41.1z"/>
	<path fill="#FFFFFF" d="M86.3,71.2h-1.2v2.6h-1.5v-2.6h-0.9c-0.5,0-1,0.4-1,1v4.1c0,0.5,0.5,1,1,1h3.6c0.6,0,1.1-0.4,1.1-1v-4.1
		C87.3,71.7,86.8,71.2,86.3,71.2z"/>
	<path fill="#FFFFFF" d="M90.6,77.5V71c0-1.7-1.4-3.1-3.1-3.1h-6.3c-1.7,0-3.1,1.4-3.1,3.1v6.5c0,1.7,1.4,3.1,3.1,3.1h6.4
		C89.2,80.5,90.6,79.2,90.6,77.5z M88.8,76.4c0,1.4-1.2,2.5-2.5,2.5h-3.6c-1.4,0-2.6-1.1-2.6-2.5v-4.1c0-1.4,1.2-2.5,2.6-2.5h0.8
		v-0.9H85v0.9h1.2c1.4,0,2.5,1.1,2.5,2.5L88.8,76.4L88.8,76.4z"/>
	<polygon fill="#FFFFFF" points="87.6,66.4 87.6,63.8 87.6,62.4 87.6,52.1 80.6,52.1 80.6,62.4 80.6,63.8 80.6,66.4 	"/>
	<path fill="#FFFFFF" d="M138.4,61.7c-3,2.2-7,2.2-7.4,2.2l0,0h-3.1v2.9c1.7,0.6,2.9,2.3,2.9,4.3v6.5c0,1.9-1.2,3.6-2.9,4.3v11.9
		l-5,4.3l-5.2-4.3V81.7c-1.5-0.7-2.5-2.3-2.5-4.1v-6.5c0-1.8,1-3.3,2.5-4.1v-3.1H89.1v2.9c1.7,0.6,3,2.3,3,4.3v6.5
		c0,1.9-1.2,3.6-3,4.3v11.9l-5,4.3l-5.2-4.3V81.7c-1.5-0.7-2.5-2.3-2.5-4.1v-6.5c0-1.8,1-3.3,2.5-4.1v-3.1h-3.7
		c-0.4,0-2.2-0.2-2.8-0.5c-0.1,0-0.2,0-0.2,0c-0.6-0.2-1.7-0.5-3.7-1.9c-0.9,1.5-3,5.2-3.2,8.8c-0.2,3.1-0.3,4.8-0.4,5.8
		c-0.1,0.5-0.1,0.9-0.1,1.1v39.2h77.1c0-17.3,0.1-42.1,0.1-44.2C141.9,71.5,140.9,65.4,138.4,61.7z"/>
	<polygon fill="#FFFFFF" points="80.6,82.1 80.6,93 84.1,96 87.6,93.1 87.6,82.1 87.5,82.1 81.1,82.1 	"/>
	<path fill="#FFFFFF" d="M104,137.8H68.4c-1.1,0-2.7-0.4-3.8-1.5c-1.2-1.1-1.2-3.8-1.2-4.1V77.4c0-0.3,0.1-0.6,0.1-1.3
		c0.1-1,0.2-2.7,0.4-5.8c0.2-4.2,2.6-8.2,3.6-9.7c-0.2-0.2-0.5-0.4-0.8-0.6c-3.8-3.3-3.9-8.1-3.9-8.3V30.8h23.8v-7.1
		c0-3.8,3.1-6.9,6.9-6.9H104V0H0v162h104V137.8z"/>
	<path fill="#FFFFFF" d="M64.8,132c0,0.9,0.3,2.6,0.8,3.1c0.8,0.8,1.9,1.1,2.7,1.1h70.2c0.4,0,3.6-0.6,3.5-3.4
		c-0.1-1.1-0.1-7.1-0.1-14.9H64.8V132z"/>
	<path fill="#FFFFFF" d="M104.6,48.1l-2.5-2.5c-0.7,0.7-1.4,1.4-2,2.1l2.3,2.3C103.2,49.4,103.8,48.8,104.6,48.1z"/>
	<path fill="#FFFFFF" d="M109.6,42.2c1-1.6,1.1-2.3,0.9-2.5c-0.1-0.1-0.8-0.1-2.5,0.9L109.6,42.2z"/>
	<path fill="#FFFFFF" d="M97.9,45.6l1.8,1.7c0.6-0.7,1.2-1.4,2-2.1l-1.9-1.8C99,44,98.4,44.8,97.9,45.6z"/>
	<polygon fill="#FFFFFF" points="119.3,82.1 119.3,93 122.9,96 126.4,93.1 126.4,82.1 126.2,82.1 119.9,82.1 	"/>
	<path fill="#FFFFFF" d="M124.8,71h-1v3.1h-1.6V71h-1c-0.6,0-1.1,0.4-1.1,1v4.1c0,0.5,0.4,1,1.1,1h3.6c0.6,0,1.1-0.4,1.1-1V72
		C125.9,71.5,125.4,71,124.8,71z"/>
	<polygon fill="#FFFFFF" points="126.4,66.4 126.4,63.8 126.4,62.4 126.4,52.1 119.3,52.1 119.3,62.4 119.3,63.8 119.3,66.4 	"/>
	<path fill="#FFFFFF" d="M129.3,77.5V71c0-1.7-1.4-3.1-3.1-3.1h-6.4c-1.7,0-3.1,1.4-3.1,3.1v6.5c0,1.7,1.4,3.1,3.1,3.1h6.4
		C127.9,80.5,129.3,79.2,129.3,77.5z M127.4,76.2c0,1.4-1.1,2.5-2.5,2.5h-3.6c-1.4,0-2.5-1.1-2.5-2.5v-4.1c0-1.4,1.1-2.5,2.5-2.5h1
		v-0.7h1.6v0.7h1c1.4,0,2.5,1.1,2.5,2.5V76.2z"/>
	<path fill="#FFFFFF" d="M95.4,43.1l2,1.9c0.5-0.8,1.1-1.5,1.8-2.2l-2.1-2.1C96.4,41.4,95.8,42.2,95.4,43.1z"/>
	<path fill="#FFFFFF" d="M113.6,46.2l0.2,0.1c0-0.5-0.1-1-0.2-1.6C113.6,45.2,113.6,45.7,113.6,46.2z"/>
	<path fill="#FFFFFF" d="M112.9,50.5c0.4-1,0.8-2.1,0.8-3.2l-0.2-0.2c-0.2,1-0.5,2.1-1,3.1L112.9,50.5z"/>
	<path fill="#FFFFFF" d="M113,45.7c0-1.3-0.3-2.6-0.9-3.8c0.1,0.8,0,1.7-0.3,2.6L113,45.7z"/>
	<path fill="#FFFFFF" d="M110.5,53l0.4,0.4c0.7-0.7,1.2-1.5,1.7-2.3l-0.4-0.3C111.8,51.5,111.2,52.3,110.5,53z"/>
	<path fill="#FFFFFF" d="M102,56.3c0.3,0,0.7,0.1,1,0.1l-0.1-0.1C102.6,56.4,102.3,56.4,102,56.3z"/>
	<path fill="#FFFFFF" d="M104.8,53.1c-0.9,0.5-1.9,1-2.7,1.3l1.3,1.3c1.1,0,2.2-0.3,3.2-0.8L104.8,53.1z"/>
	<path fill="#FFFFFF" d="M103.9,56.3l0.2,0.1c1.2,0,2.3-0.3,3.3-0.7l-0.3-0.3C106.1,55.9,105,56.2,103.9,56.3z"/>
	<path fill="#FFFFFF" d="M107.6,55.2l0.3,0.3c0.9-0.4,1.7-0.9,2.4-1.6l-0.4-0.4C109.2,54.2,108.4,54.7,107.6,55.2z"/>
	<path fill="#FFFFFF" d="M113.9,18H93.5c-2.9,0-5.4,2.4-5.4,5.4v6.9H91v-4.7c0-2.8,2.3-5.1,5.2-5.1h14.5c2.8,0,5.1,2.3,5.1,5.1v4.7
		h3.5v-6.9C119.2,20.4,116.9,18,113.9,18z"/>
	<path fill="#FFFFFF" d="M110.6,22H96.1c-2,0-3.6,1.6-3.6,3.6v4.7h21.6v-4.7C114.2,23.6,112.6,22,110.6,22z"/>
	<path fill="#FFFFFF" d="M106,0v16.4h7.9c3.8,0,6.9,3.1,6.9,6.9v7.2h23.8v0.7c0,0.7,0.2,18.5,0,21.2c-0.2,2.8-1.8,5.4-4.9,8.2
		c2.8,4.2,3.9,11,3.9,11.3l0,0l0,0c0,0.5-0.1,57.1,0,60.7c0.1,3.4-3.1,4.7-4.9,5h-0.1H106V162h104V0H106.4H106z"/>
	<path fill="#FFFFFF" d="M112.1,49.8c0.4-1,0.8-2.1,0.9-3.1l-1.4-1.4c-0.4,0.9-0.8,1.8-1.4,2.6L112.1,49.8z"/>
	<path fill="#FFFFFF" d="M110.1,42.8l1.1,1.1c0.3-1.2,0.2-2.3-0.1-3.1C111,41.3,110.6,42,110.1,42.8z"/>
	<path fill="#FFFFFF" d="M143,31.9H64.3v19.4c0,0,0,4.4,3.3,7.3c3,2.6,4.4,3,5,3.2c0.2,0,0.2,0.1,0.4,0.1c0.3,0.1,1.5,0.3,2.3,0.4
		H79V50.6h10.2v11.7h28.6V50.6h10.1v11.7h3.1l0,0c0.1,0,4.4,0,7.1-2.4c3.2-2.8,4.8-5.2,4.9-7.7C143.2,49.9,143.1,35.5,143,31.9z
		 M114.1,47.6L114.1,47.6L114.1,47.6c-0.2,1.2-0.5,2.5-1.1,3.6h-0.1l0,0c-0.5,0.9-1.1,1.7-1.8,2.5H111l0,0l-0.1,0.1l0,0l-0.1,0.1
		c-0.8,0.7-1.7,1.3-2.7,1.8l0,0l-0.3,0.1l0,0c-1.2,0.5-2.5,0.8-3.8,0.8l0,0h-0.6c-2.6,0-5-1-6.9-2.7l0,0c-0.1-0.1-0.2-0.1-0.3-0.2
		h-0.1c-0.1-0.1-0.2-0.2-0.2-0.3l0,0c-1.8-1.9-2.7-4.3-2.8-6.9V46l0,0c0.1-1.3,0.3-2.6,0.8-3.8l0,0l0.2-0.3l0,0
		c0.4-1,1.1-1.9,1.8-2.6l0,0l0,0l0.1-0.1l0,0l0,0c0.8-0.7,1.7-1.4,2.6-1.9l0,0l0.3-0.1l0,0c1.1-0.5,2.4-0.8,3.7-0.9l0,0h0.5
		c2.7,0,5.3,0.9,7.3,2.7l0,0c0.1,0.1,0.2,0.1,0.3,0.2l0.1,0.1c0.1,0.1,0.1,0.1,0.2,0.2l0,0C113.4,41.8,114.4,44.9,114.1,47.6z"/>
	<path fill="#FFFFFF" d="M96.1,49.6c-0.2,1-0.2,2,0.1,2.7c0.2-0.5,0.4-1.1,0.9-1.7L96.1,49.6z"/>
	<path fill="#FFFFFF" d="M101.2,54.7c-0.8,0.2-1.6,0.3-2.3,0.2c1.1,0.5,2.2,0.8,3.4,0.8L101.2,54.7z"/>
	<path fill="#FFFFFF" d="M94.4,42.9c-0.5,1-0.7,2.2-0.7,3.3l0.2,0.1c0.1-1.1,0.4-2.1,0.9-3.2L94.4,42.9z"/>
	<path fill="#FFFFFF" d="M102.3,40.1c0.9-0.6,1.8-1,2.7-1.4l-1.4-1.4c-1.1,0.1-2.2,0.4-3.2,0.9L102.3,40.1z"/>
	<path fill="#FFFFFF" d="M96.7,40.3l-0.4-0.4c-0.7,0.7-1.2,1.5-1.6,2.4l0.3,0.3C95.4,41.8,96,41,96.7,40.3z"/>
	<path fill="#FFFFFF" d="M103.1,36.8l-0.2-0.2c-1.1,0.1-2.2,0.3-3.2,0.8l0.4,0.3C101,37.3,102.1,37,103.1,36.8z"/>
	<path fill="#FFFFFF" d="M99.5,38.1l-0.3-0.3c-0.8,0.4-1.7,1-2.4,1.7l0.4,0.4C97.9,39.1,98.7,38.5,99.5,38.1z"/>
	<path fill="#FFFFFF" d="M93.8,47.2c0,0.3,0.1,0.6,0.1,1C93.8,47.9,93.8,47.6,93.8,47.2L93.8,47.2z"/>
	<path fill="#FFFFFF" d="M94.3,47.8c0,1.2,0.3,2.3,0.8,3.4c-0.1-0.7,0.1-1.4,0.2-2.3L94.3,47.8z"/>
	<path fill="#FFFFFF" d="M105.8,38.5c0.9-0.3,1.8-0.4,2.6-0.3c-1.2-0.5-2.5-0.8-3.8-0.8L105.8,38.5z"/>
	<path fill="#FFFFFF" d="M97.7,51.1c-0.9,1.4-0.9,2.1-0.8,2.2s0.8,0.1,2.2-0.8L97.7,51.1z"/>
	<path fill="#FFFFFF" d="M95.2,43.6c-0.5,1-0.7,2.1-0.8,3.2l1.3,1.3c0.3-0.9,0.8-1.8,1.4-2.7L95.2,43.6z"/>
	<path fill="#FFFFFF" d="M100.6,54.1l-1-1c-0.7,0.4-1.2,0.7-1.8,0.9C98.6,54.3,99.6,54.3,100.6,54.1z"/>
	<path fill="#FFFFFF" d="M104.6,36.7c0.3,0,0.5,0,0.8,0c-0.5-0.1-1-0.1-1.4-0.1l0.1,0.1C104.2,36.7,104.4,36.7,104.6,36.7z"/>
</g>
</svg>
