<?xml version="1.0" encoding="utf-8"?>
<!-- Generator: Adobe Illustrator 17.1.0, SVG Export Plug-In . SVG Version: 6.00 Build 0)  -->
<!DOCTYPE svg PUBLIC "-//W3C//DTD SVG 1.1//EN" "http://www.w3.org/Graphics/SVG/1.1/DTD/svg11.dtd">
<svg version="1.1" id="Calque_1" xmlns="http://www.w3.org/2000/svg" xmlns:xlink="http://www.w3.org/1999/xlink" x="0px" y="0px"
	 width="210px" height="162px" viewBox="0 0 210 162" enable-background="new 0 0 210 162" xml:space="preserve">
<g>
	<path fill="#FFFFFF" d="M151.2,92.3c0.2-0.9-0.2-1.8-1.1-2c-0.2-0.1-0.3-0.1-0.5-0.1c-0.7,0-1.3,0.5-1.5,1.2l-1.6,5.2l1.4,0.1
		l1.9,0.2L151.2,92.3z"/>
	<path fill="#FFFFFF" d="M61,110.8l3.8-0.5l1.5-0.2l1.3-0.1c0.9-0.1,1.6-0.9,1.4-1.8c-0.1-0.8-0.8-1.4-1.6-1.4c-0.1,0-0.2,0-0.2,0
		l-1,0.1l-1.5,0.2l-4.2,0.5c-0.5,0-0.8,0.2-1.1,0.6c-0.2,0.4-0.4,0.8-0.3,1.2C59.3,110.2,60.1,110.9,61,110.8z"/>
	<path fill="#FFFFFF" d="M105.3,136.4l38.9-13.6v-6.7l-2.4-0.3c-0.8-0.1-1.5-0.5-2-1.1c-0.5-0.7-0.7-1.4-0.6-2.2
		c0.1-0.9,0.6-1.7,1.4-2.1c-0.4-0.4-0.7-0.9-0.8-1.4c0,0-0.1-0.5,0-1.4c0.2-0.8,0.6-1.4,1.3-1.8c0-0.1-0.1-0.2-0.2-0.2
		c-0.5-0.6-0.7-1.4-0.6-2.2c0.1-0.9,0.6-1.7,1.4-2.1c-0.6-0.6-1-1.5-0.9-2.4c0.4-2.9,3.2-2.6,3.4-2.6V71.7l-38.9,12.7L66.4,71.7
		v24.5c1.6-0.1,2.9,1.1,3.1,2.6c0.1,1-0.2,1.8-0.8,2.5c0.8,0.4,1.2,1.2,1.3,2.1c0.1,0.8-0.2,1.6-0.6,2.2c-0.1,0.1-0.2,0.1-0.2,0.2
		c0.6,0.4,1.1,1,1.3,1.8c0,0,0.2,0.7,0,1.4c-0.1,0.5-0.4,1-0.8,1.4c0.8,0.4,1.2,1.2,1.3,2.1c0.1,0.8-0.1,1.6-0.6,2.2s-1.2,1-2,1.1
		l-2,0.2v6.8L105.3,136.4L105.3,136.4z"/>
	<path fill="#FFFFFF" d="M145.6,97.8l-1.3-0.2h-0.2c0,0-0.1,0-0.2,0c-0.8,0-1.5,0.6-1.6,1.5c-0.1,0.9,0.6,1.7,1.4,1.8l0.7,0.1
		l1.6,0.2l4.6,0.6c0.9,0.1,1.7-0.6,1.8-1.4c0.1-0.5-0.1-0.9-0.4-1.2c-0.2-0.3-0.6-0.5-1.1-0.6l-0.4-0.1l0,0l-4.4-0.6L145.6,97.8z"/>
	<path fill="#FFFFFF" d="M106,0v16.5c16.5,0.5,27,11,27,27.6c0,20.8-11.6,35.4-28.2,35.4c-15.3,0-27.2-15.5-27.2-35.4
		c0-16,10.7-26.9,26.4-27.6V0H0v162h104v-24.6l-39.1-13.6v-7.6l-3.1,0.3c-0.1,0-0.2,0-0.3,0c-1.5,0-2.8-1.1-2.9-2.6
		c-0.1-0.9,0.2-1.8,0.8-2.4c-0.8-0.4-1.2-1.2-1.3-2.1c-0.1-0.8,0.1-1.6,0.6-2.2c0.1-0.1,0.2-0.1,0.2-0.2c-0.8-0.4-1.2-1.2-1.3-2.1
		c-0.1-0.8,0.2-1.6,0.6-2.2c0.1-0.1,0.2-0.1,0.2-0.2c-0.8-0.4-1.2-1.2-1.4-2.1c-0.1-0.8,0.2-1.6,0.6-2.2c0.4-0.5,1-0.9,1.6-1
		l-1.3-4.5c-0.5-1.6,0.4-3.2,2-3.7c0.3-0.1,0.6-0.1,0.8-0.1c1.3,0,2.5,0.9,2.9,2.1l1.3,4.5V69.6l40.5,13.2l40.5-13.2v24.6l1-3.3
		c0.3-1.2,1.5-2.1,2.8-2.1c0.3,0,0.6,0,0.8,0.1c1.6,0.5,2.5,2.2,2.1,3.7l-1.3,4.5c0.7,0.1,1.2,0.5,1.7,1c0.5,0.6,0.7,1.4,0.6,2.2
		c-0.1,0.9-0.6,1.7-1.3,2.1c0.1,0.1,0.2,0.2,0.2,0.2c0.5,0.6,0.7,1.4,0.6,2.2c-0.1,0.9-0.7,1.7-1.4,2.1c0.1,0.1,0.1,0.2,0.2,0.2
		c0.5,0.6,0.7,1.4,0.6,2.2c-0.1,0.9-0.6,1.7-1.3,2.1c0.6,0.6,0.9,1.5,0.8,2.4c-0.2,1.5-1.4,2.6-2.9,2.6l0,0c-0.1,0-0.2,0-0.4,0
		l-2.8-0.3v7.6L106,137.6V162h104V0H106.4H106z"/>
	<path fill="#FFFFFF" d="M58.4,99c-0.2,0.4-0.4,0.8-0.3,1.2c0.1,0.9,0.9,1.6,1.8,1.4l4.9-0.6l1.5-0.2l0.3-0.1
		c0.9-0.1,1.6-0.9,1.4-1.8c-0.1-0.8-0.8-1.4-1.6-1.4c-0.1,0-0.1,0-0.1,0c-0.1,0-0.1,0-0.1,0l-1.5,0.1h-0.2l-4.6,0.5l0,0l-0.5,0.1
		C59.1,98.4,58.7,98.6,58.4,99z"/>
	<path fill="#FFFFFF" d="M62.3,96.7l1.3-0.1l-1.5-5.2c-0.2-0.7-0.8-1.1-1.5-1.1c-0.2,0-0.3,0-0.5,0.1c-0.8,0.2-1.3,1.1-1.1,2
		l1.3,4.6L62.3,96.7z"/>
	<path fill="#FFFFFF" d="M60.4,106.2l4.4-0.5l1.5-0.2l0.8-0.1c0.5,0,0.8-0.2,1.1-0.6c0.2-0.4,0.4-0.8,0.3-1.2
		c-0.1-0.8-0.8-1.5-1.6-1.5c-0.1,0-0.2,0-0.2,0h-0.4l-1.6,0.2l-4.7,0.5c-0.5,0.1-0.8,0.2-1.1,0.6c-0.2,0.3-0.4,0.8-0.4,1.2
		C58.8,105.6,59.6,106.3,60.4,106.2z"/>
	<path fill="#FFFFFF" d="M61.6,115.4l3.2-0.4l1.5-0.2l1.9-0.2c0.4,0,0.8-0.2,1.1-0.6c0.2-0.4,0.4-0.8,0.3-1.2
		c-0.1-0.8-0.8-1.5-1.6-1.5h-0.2l-1.5,0.2l-1.5,0.2l-3.7,0.4c-0.9,0.1-1.6,0.9-1.4,1.8C59.8,114.8,60.7,115.5,61.6,115.4z"/>
	<path fill="#FFFFFF" d="M102.4,67.3c0.1-0.1,0.2-0.1,0.3-0.2c0.2-0.1,0.3-0.2,0.5-0.3c0.1-0.1,0.2-0.2,0.3-0.2
		c0.2-0.1,0.3-0.2,0.5-0.3c0.1-0.1,0.2-0.1,0.4-0.2c0.2-0.1,0.4-0.2,0.6-0.3c0.1-0.1,0.2-0.1,0.3-0.1c0.3-0.1,0.6-0.2,0.9-0.3
		c0.1,0,0.1,0,0.2-0.1c0.3-0.1,0.5-0.1,0.8-0.2c0.1-0.1,0.2-0.1,0.4-0.1c0.2-0.1,0.4-0.1,0.7-0.1c0.2,0,0.2,0,0.4,0
		c0.1,0,0.2-0.1,0.3-0.1c0-0.1,0-0.2,0-0.4s0-0.2,0-0.4c-1.1-0.3-2.3-0.4-3.5-0.4c-1.5,0-2.8,0.2-4.1,0.6c0,0.1,0,0.2,0,0.2
		c0,1.1,0.3,2.2,0.8,3.1C102.3,67.3,102.4,67.3,102.4,67.3z"/>
	<path fill="#FFFFFF" d="M151.1,109.4c0.1-0.5-0.1-0.9-0.3-1.2s-0.7-0.5-1.1-0.6l-3.9-0.5l-1.5-0.2l-1.4-0.1c-0.1,0-0.1,0-0.2,0
		c-0.8,0-1.5,0.6-1.6,1.4c-0.1,0.9,0.5,1.7,1.4,1.8l1.7,0.2l1.6,0.2l3.4,0.4C150.1,110.9,150.9,110.2,151.1,109.4z"/>
	<path fill="#FFFFFF" d="M79.6,47.2c0.9,17.3,11.9,30.4,25.2,30.4c14.7,0,25.6-12.6,26.4-31l-8.9-8.9c-15,4.7-34.4,0-34.4,0
		L79.6,47.2z M111.2,55.1c0.1-0.1,1.9-2.2,4.1-2.1c1.3,0.1,2.5,0.8,3.5,2.1c0.2,0.3,0.1,0.7-0.2,0.9s-0.7,0.1-0.9-0.1
		c-0.8-1-1.5-1.5-2.4-1.6c-1.6-0.1-3.1,1.6-3.1,1.6c-0.1,0.1-0.3,0.2-0.5,0.2c-0.1,0-0.3,0-0.4-0.1C111.1,55.8,111,55.3,111.2,55.1z
		 M100.4,63.7c0-0.1,0.2-0.3,0.3-0.4c1.4-0.6,3.1-0.8,4.8-0.8c1.5,0,2.9,0.2,4.3,0.7c0.2,0,0.3,0.2,0.3,0.4c0,0.2,0.1,0.5,0.1,0.8
		s0,0.5-0.1,0.9l0,0l0,0c-0.3,3-2.4,5.1-4.8,5.2l0,0c-1.4,0-2.7-0.7-3.7-1.9c-0.8-1.1-1.3-2.5-1.3-4.1
		C100.3,64.1,100.3,63.9,100.4,63.7z M94.1,52.1c1.3,0,2.4,1.1,2.4,2.5s-1.1,2.5-2.4,2.5c-1.4,0-2.5-1.1-2.5-2.5
		S92.7,52.1,94.1,52.1z"/>
	<path fill="#FFFFFF" d="M145.8,111.8l-1.6-0.2l-1.9-0.2c-0.1,0-0.2,0-0.2,0c-0.8,0-1.5,0.6-1.6,1.5c-0.1,0.5,0.1,0.9,0.3,1.2
		c0.2,0.3,0.7,0.5,1.1,0.6l2.2,0.2l1.6,0.2l2.9,0.4c0.9,0.1,1.7-0.6,1.8-1.4c0.1-0.9-0.5-1.7-1.4-1.8L145.8,111.8z"/>
	<path fill="#FFFFFF" d="M151.6,104.8c0-0.5-0.1-0.9-0.4-1.2c-0.2-0.4-0.6-0.5-1.1-0.6l-4.3-0.5l-1.6-0.2l-0.8-0.1
		c-0.1,0-0.2,0-0.2,0c-0.8,0-1.5,0.6-1.6,1.5c0,0.5,0.1,0.9,0.4,1.2c0.2,0.3,0.6,0.5,1.1,0.6l1.2,0.2l1.6,0.2l4,0.4
		C150.7,106.3,151.5,105.6,151.6,104.8z"/>
</g>
</svg>
