<?xml version="1.0" encoding="utf-8"?>
<!-- Generator: Adobe Illustrator 17.1.0, SVG Export Plug-In . SVG Version: 6.00 Build 0)  -->
<!DOCTYPE svg PUBLIC "-//W3C//DTD SVG 1.1//EN" "http://www.w3.org/Graphics/SVG/1.1/DTD/svg11.dtd">
<svg version="1.1" id="Calque_1" xmlns="http://www.w3.org/2000/svg" xmlns:xlink="http://www.w3.org/1999/xlink" x="0px" y="0px"
	 width="210px" height="162px" viewBox="0 0 210 162" enable-background="new 0 0 210 162" xml:space="preserve">
<g>
	<path fill="#FFFFFF" d="M127.1,73.2l3.2,1.9l1.9-3.5c-0.2-0.3-0.7-0.7-1.2-1c-0.8-0.5-1.7-0.6-2.2-0.6L127.1,73.2z"/>
	<path fill="#FFFFFF" d="M164.9,78h-58.7v58.4h58.7V78L164.9,78z M124.8,115.5c0,0.5-0.3,0.8-0.8,0.8h-1.9c-0.5,0-0.8-0.4-0.8-0.8
		v-14.3c0-0.4,0.4-0.8,0.8-0.8h1.9c0.4,0,0.8,0.4,0.8,0.8V115.5z"/>
	<rect x="122.9" y="101.8" fill="#FFFFFF" width="0.3" height="12.8"/>
	<path fill="#FFFFFF" d="M144.1,70.7l9.2-17.3l-3.2-1.9l-9.4,17.6c0.6,0.1,1.4,0.4,2.3,0.8C143.6,70.2,143.9,70.5,144.1,70.7z"/>
	<path fill="#FFFFFF" d="M132.9,70.1l8.9-16.8l-3.2-1.9l-9,16.9c0.6,0.1,1.4,0.4,2.1,0.8C132.1,69.5,132.6,69.8,132.9,70.1z"/>
	<path fill="#FFFFFF" d="M45.8,136.5h58.8V78.1H45.8V136.5z M86.3,101.1c0-0.5,0.3-0.8,0.8-0.8H89c0.4,0,0.8,0.4,0.8,0.8v14.3
		c0,0.4-0.4,0.8-0.8,0.8h-1.9c-0.5,0-0.8-0.4-0.8-0.8V101.1L86.3,101.1z"/>
	<path fill="#FFFFFF" d="M138.6,73.2l3.2,1.9l1.5-2.9c-0.2-0.3-0.6-0.6-1.1-0.9c-0.9-0.5-1.9-0.6-2.3-0.7L138.6,73.2z"/>
	<path fill="#FFFFFF" d="M164.9,49.1H45.8v27.4h49.3c-0.1-0.1-0.2-0.1-0.2-0.2l-2.7-4.6c-0.2-0.3-0.1-0.8,0.2-1l22.2-13.8
		c0.2-0.1,0.4-0.1,0.6-0.1s0.4,0.2,0.5,0.4l2.7,4.6l0,0l6.1-11.4c0.1-0.2,0.2-0.4,0.5-0.4c0.2,0,0.4,0,0.6,0.1l4.6,2.6
		c0.4,0.2,0.5,0.6,0.3,1l-12.2,23h11.2l-3.9-2.2c-0.4-0.2-0.5-0.7-0.3-1.1l12.2-23.1c0.1-0.2,0.2-0.4,0.5-0.4c0.2,0,0.4,0,0.6,0.1
		l4.6,2.6c0.4,0.2,0.5,0.6,0.3,1l-12.2,23h9.8l-3.9-2.2c-0.3-0.2-0.5-0.7-0.3-1.1l12.2-23.1c0.1-0.2,0.2-0.4,0.4-0.4
		c0.2,0,0.4,0,0.6,0.1l4.6,2.6c0.3,0.2,0.5,0.6,0.3,1l-12.2,23h22L164.9,49.1L164.9,49.1z"/>
	<path fill="#FFFFFF" d="M128.9,53.4l-3.2-1.9l-9.4,17.7c0.6,0.1,1.3,0.4,1.9,0.8c0.6,0.3,0.9,0.6,1.3,1L128.9,53.4z"/>
	<path fill="#FFFFFF" d="M115.4,70.7l-1.3,2.6l3.2,1.9l1.4-2.6c-0.2-0.3-0.7-0.8-1.2-1.1C116.6,70.9,115.9,70.8,115.4,70.7z"/>
	<path fill="#FFFFFF" d="M45,138c-0.5,0-0.8-0.4-0.8-0.8v-120c0-0.4,0.3-0.8,0.8-0.8h59V0H0v162h104v-24.1L45,138L45,138z"/>
	<rect x="87.9" y="101.8" fill="#FFFFFF" width="0.3" height="12.8"/>
	<path fill="#FFFFFF" d="M97.8,69.1c0.4,0.4,0.8,0.9,1.1,1.5c0.4,0.6,0.6,1.3,0.7,1.8l17.1-10.7l-1.8-3.2L97.8,69.1z"/>
	<path fill="#FFFFFF" d="M116.6,76.5l-3.9-2.2c-0.3-0.2-0.5-0.6-0.3-1.1l5.4-10.2L96,76.5H116.6L116.6,76.5z"/>
	<path fill="#FFFFFF" d="M96.4,70L94,71.5l1.8,3.2l2.2-1.4c0-0.2,0-1.1-0.5-2C97.2,70.8,96.8,70.3,96.4,70z"/>
	<path fill="#FFFFFF" d="M126.8,40.8c-0.2-0.5-0.4-1.1-0.4-1.9c-0.1-0.7,0.1-1.3,0.1-1.9l-20.1,0.1l0.2,3.7L126.8,40.8z"/>
	<path fill="#FFFFFF" d="M106,0v16.4h59.6c0.5,0,0.8,0.4,0.8,0.8v31c0,0,0,0,0,0.1s0,0,0,0.1v28.9c0,0,0,0,0,0.1l0,0v60
		c0,0.5-0.4,0.8-0.8,0.8H106V162h104V0H106.4H106z"/>
	<path fill="#FFFFFF" d="M123.6,31.7h-2.9c-0.2,0.4-0.2,1.1-0.2,1.8c0.1,0.9,0.5,1.8,0.6,1.9h2.6L123.6,31.7z"/>
	<path fill="#FFFFFF" d="M122.1,44.6c0.1,0.9,0.5,1.8,0.6,1.9h2.6l-0.1-3.7h-2.9C122.2,43.3,122.1,43.9,122.1,44.6z"/>
	<path fill="#FFFFFF" d="M164.9,18H45.8v5.9l0,0l4.6-2.6c0.2-0.1,0.4-0.1,0.6,0c0.2,0,0.4,0.2,0.4,0.4l12.4,23
		c0.2,0.4,0.1,0.9-0.3,1.1l-3.2,1.9h9L57.2,25c-0.2-0.4,0-0.9,0.3-1l4.6-2.6c0.2-0.1,0.4-0.1,0.6,0c0.2,0,0.4,0.2,0.4,0.4l12.2,23.1
		c0.2,0.4,0.1,0.9-0.3,1.1l-3.2,1.9h10.3L70,25c-0.2-0.4,0-0.9,0.3-1l4.6-2.6c0.2-0.1,0.4-0.1,0.6,0c0.2,0,0.4,0.2,0.5,0.4
		l12.2,23.1c0.2,0.4,0,0.9-0.3,1.1l-3.2,1.9h14.4c0,0,0,0,0-0.1l-0.2-5.3c0-0.2,0-0.4,0.2-0.5s0.3-0.2,0.6-0.2h5.1l-0.1-4.4h-6.5
		l0,0c-0.4,0-0.8-0.4-0.8-0.8l-0.2-5.3c0-0.2,0-0.4,0.2-0.5s0.3-0.2,0.6-0.2h26.2l0,0c0.4,0,0.8,0.3,0.8,0.8l0.2,4.8h6.5l0,0
		c0.4,0,0.8,0.3,0.8,0.8l0.2,5.3c0,0.2-0.1,0.4-0.2,0.5c-0.1,0.2-0.3,0.2-0.5,0.2h-5.2l0.2,4.9c0,0,0,0.1,0,0.2h37.8V18.3h0.1
		C164.9,18.3,164.9,18,164.9,18z"/>
	<path fill="#FFFFFF" d="M100.8,46.6l20.2-0.1c-0.2-0.5-0.4-1.1-0.4-1.8s0.1-1.3,0.2-1.9l-20.1,0.1L100.8,46.6z"/>
	<path fill="#FFFFFF" d="M98.9,31.8l0.2,3.7l20.2-0.1c-0.2-0.5-0.4-1.1-0.4-1.9s0.1-1.3,0.2-1.9L98.9,31.8z"/>
	<polygon fill="#FFFFFF" points="45.8,47.5 57.6,47.5 45.8,25.3 	"/>
	<path fill="#FFFFFF" d="M131.1,37.2h-2.9c-0.1,0.4-0.2,1.1-0.2,1.8c0,0.9,0.5,1.8,0.6,1.9h2.7L131.1,37.2z"/>
	<path fill="#FFFFFF" d="M57.3,43.6l1.5,2.9l3.2-1.8l-1.3-2.6c-0.3,0.1-1.3,0.2-2.3,0.7C57.9,43,57.6,43.3,57.3,43.6z"/>
	<path fill="#FFFFFF" d="M84.5,40.6l-9.4-17.7l-3.2,1.9l9.3,17.6c0.3-0.4,0.8-0.7,1.3-1C83.2,41,83.9,40.8,84.5,40.6z"/>
	<path fill="#FFFFFF" d="M73.7,44.6l-1.8-3.3c-0.4,0.1-1.3,0.2-2.1,0.6c-0.6,0.3-0.9,0.7-1.2,1l1.8,3.5L73.7,44.6z"/>
	<path fill="#FFFFFF" d="M71.2,39.9l-9-16.9L59,24.8l8.9,16.8c0.3-0.3,0.7-0.7,1.2-0.9C69.8,40.2,70.6,40,71.2,39.9z"/>
	<path fill="#FFFFFF" d="M47.3,24.8l9.2,17.4c0.3-0.3,0.6-0.6,1-0.8c0.8-0.4,1.7-0.7,2.3-0.8L50.5,23L47.3,24.8z"/>
	<path fill="#FFFFFF" d="M86.7,44.6L85.4,42c-0.5,0.1-1.2,0.2-2,0.6c-0.6,0.4-1.1,0.8-1.2,1.1l1.4,2.6L86.7,44.6z"/>
</g>
</svg>
