<?xml version="1.0" encoding="utf-8"?>
<!-- Generator: Adobe Illustrator 17.1.0, SVG Export Plug-In . SVG Version: 6.00 Build 0)  -->
<!DOCTYPE svg PUBLIC "-//W3C//DTD SVG 1.1//EN" "http://www.w3.org/Graphics/SVG/1.1/DTD/svg11.dtd">
<svg version="1.1" id="Calque_1" xmlns="http://www.w3.org/2000/svg" xmlns:xlink="http://www.w3.org/1999/xlink" x="0px" y="0px"
	 width="210px" height="162px" viewBox="0 0 210 162" enable-background="new 0 0 210 162" xml:space="preserve">
<g>
	<path fill="#FFFFFF" d="M98.3,80.4v26.8c0,3.5-0.6,5.8-1.9,7.2c-1.2,1.3-3.3,2.3-6.6,3v0.9H120v-0.9c-5.4-0.9-8.2-4-8.2-9.2V67.5
		h-1.5l-21.2,2v1c3.6,0.7,5.9,1.7,7.1,3C97.7,74.8,98.3,77.1,98.3,80.4z"/>
	<path fill="#FFFFFF" d="M43.6,77.4c0-33.3,27.2-60.3,60.4-60.8V0H0v162h104v-23.8C70.7,137.6,43.6,110.7,43.6,77.4z"/>
	<path fill="#FFFFFF" d="M105.2,52.4c2.2,0,4.1-0.8,5.6-2.4c1.6-1.6,2.4-3.5,2.4-5.7c0-2.3-0.8-4.1-2.3-5.7
		c-1.6-1.6-3.4-2.3-5.6-2.3c-2.3,0-4.1,0.8-5.7,2.4s-2.4,3.4-2.4,5.6s0.8,4.1,2.4,5.7C101.1,51.6,103,52.4,105.2,52.4z"/>
	<path fill="#FFFFFF" d="M106,0v16.5c33,0.9,59.8,27.8,59.8,60.8S139,137.2,106,138.1V162h104V0H106.3H106z"/>
	<path fill="#FFFFFF" d="M45.1,77.4c0,32.8,26.8,59.3,59.6,59.3s59.6-26.7,59.6-59.3S137.6,18,104.7,18S45.1,44.6,45.1,77.4z
		 M98.4,37.7c1.9-1.9,4.2-2.8,6.8-2.8s4.9,0.9,6.7,2.8c1.9,1.8,2.8,4.1,2.8,6.7s-1,4.9-2.8,6.8c-1.9,1.9-4.1,2.8-6.7,2.8
		c-2.7,0-4.9-1-6.8-2.9s-2.8-4.2-2.8-6.8C95.6,41.8,96.6,39.5,98.4,37.7z M87.7,68.1l22.7-2.1h3.1v42.2c0,4.7,2.5,7.2,7.5,7.8
		l0.7,0.1v3.7H88.4v-3.7L89,116c3.2-0.6,5.4-1.5,6.4-2.7c1-1.1,1.5-3.2,1.5-6.2V80.3c0-2.9-0.5-4.9-1.6-6s-3.4-2-6.9-2.7l-0.6-0.1
		L87.7,68.1L87.7,68.1z"/>
</g>
</svg>
