<?xml version="1.0" encoding="utf-8"?>
<!-- Generator: Adobe Illustrator 17.1.0, SVG Export Plug-In . SVG Version: 6.00 Build 0)  -->
<!DOCTYPE svg PUBLIC "-//W3C//DTD SVG 1.1//EN" "http://www.w3.org/Graphics/SVG/1.1/DTD/svg11.dtd">
<svg version="1.1" id="Calque_1" xmlns="http://www.w3.org/2000/svg" xmlns:xlink="http://www.w3.org/1999/xlink" x="0px" y="0px"
	 width="210px" height="162px" viewBox="0 0 210 162" enable-background="new 0 0 210 162" xml:space="preserve">
<g>
	<path fill="#FFFFFF" d="M146.8,54.9c-5.7,7.4-22,12.5-41.9,12.5S68.7,62.2,63,54.9v17.2c0,8.8,19.2,16.1,41.9,16.1
		s41.9-7.4,41.9-16.1C146.8,72.1,146.8,54.9,146.8,54.9z"/>
	<path fill="#FFFFFF" d="M89.2,34.4C89.2,34.5,89.2,34.5,89.2,34.4c0,4.2,1.5,7.9,4,10.7l5.2-5.4c-0.3-0.7-0.5-1.3-0.6-2.1h-3.2
		l0.8-1.6h2.3c0-0.3-0.1-0.5-0.1-0.8s0-0.5,0-0.8c0-0.2,0-0.4,0-0.6c0-0.1,0-0.2,0-0.3c0-0.1,0-0.2,0-0.3h-2.9l0.6-1.4l0.1-0.2h1.9
		c0.2,0,0.4,0,0.5-0.1c0.2-1.1,0.5-2,0.8-2.8l-5.1-5.2c-2.2,2.4-3.6,5.3-4.1,8.6C89.2,33,89.2,33.7,89.2,34.4z"/>
	<path fill="#FFFFFF" d="M100.7,39.5c0.1,0.2,0.1,0.3,0.2,0.5c0.3,0.7,0.8,1.3,1.3,1.8s1.1,0.9,1.9,1.2c0.7,0.3,1.6,0.4,2.5,0.4
		c1.3,0,2.4-0.3,3.5-0.8c0.3-0.2,0.6-0.4,0.9-0.6l-4-4.2h-4.4L100.7,39.5z"/>
	<path fill="#FFFFFF" d="M105.3,52.7c-10,0-18.1-8.1-18.2-17.9c-14.1,2.7-24,8.3-24,14.4c0,8.8,19.2,16.1,41.9,16.1
		s41.9-7.4,41.9-16.1c0-6.2-9.6-11.6-23.3-14.3C123.3,44.7,115.2,52.7,105.3,52.7z"/>
	<path fill="#FFFFFF" d="M61,120.2v-71c0-7.6,10.6-13.9,26.2-16.7c0.9-8.6,8.1-15.4,16.8-16.1V0H0v162h104v-23.7
		C79.9,138.2,61,130.4,61,120.2z"/>
	<path fill="#FFFFFF" d="M106.4,44.6c-1,0-2-0.1-2.9-0.4c-1-0.3-1.8-0.7-2.6-1.2c-0.8-0.5-1.4-1.2-2-2.1L94,46
		c2.9,2.8,6.8,4.5,11.1,4.5c3.9,0,7.5-1.4,10.3-3.7l-3.7-3.9c-0.6,0.4-1.2,0.8-2,1.1C108.9,44.4,107.7,44.6,106.4,44.6z"/>
	<path fill="#FFFFFF" d="M146.8,77.8c-5.7,7.4-22,12.5-41.9,12.5S68.7,85.1,63,77.8v18.3c0,8.8,19.2,16.1,41.9,16.1
		s41.9-7.4,41.9-16.1C146.8,96.1,146.8,77.8,146.8,77.8z"/>
	<path fill="#FFFFFF" d="M146.8,120.2v-18.5c-5.7,7.4-22,12.5-41.9,12.5S68.7,109,63,101.7v18.5c0,8.8,19.2,16.1,41.9,16.1
		S146.8,129,146.8,120.2z"/>
	<path fill="#FFFFFF" d="M100.1,37.7c0,0.1,0.1,0.1,0.1,0.2l0.2-0.2H100.1z"/>
	<path fill="#FFFFFF" d="M100,31.8h1.2l-0.9-1c-0.1,0.3-0.2,0.5-0.2,0.8C100.1,31.7,100,31.8,100,31.8z"/>
	<path fill="#FFFFFF" d="M94.5,22.6l4.8,5.1c0.5-0.7,1-1.2,1.6-1.7c0.8-0.6,1.7-1,2.6-1.3c1-0.3,1.9-0.4,2.9-0.4
		c1.2,0,2.2,0.1,3,0.4c0.8,0.2,1.5,0.5,2.1,0.8c0.1,0.1,0.2,0.2,0.3,0.2l3.6-3.8c-2.8-2.2-6.2-3.5-10-3.5
		C101.1,18.5,97.3,20.1,94.5,22.6z"/>
	<path fill="#FFFFFF" d="M106,0v16.4c9,0.5,16.6,7.5,17.5,16.3c15.2,2.9,25.5,9.2,25.5,16.5v22.9v24v24.2c0,10.1-19,17.8-43,18.1
		V162h104V0H106.4H106z"/>
	<path fill="#FFFFFF" d="M115.9,22.4l0.6,0.5l-3.6,3.8c0.3,0.4,0.5,0.7,0.7,1l-1.1,2.2c-0.2-0.7-0.6-1.3-1-1.8l-3.6,3.8h3.6
		l-0.8,1.6h-4.3l-0.9,1l1.8,1.9h2.1l-0.7,1.5l3.2,3.3c0.3-0.3,0.5-0.5,0.7-0.8v1.5l4.2,4.4c2.9-2.9,4.8-7,4.8-11.4l0,0
		c0-0.8-0.1-1.5-0.2-2.2C120.7,28.4,118.8,24.9,115.9,22.4z"/>
	<polygon fill="#FFFFFF" points="103.8,36.1 105.3,36.1 104.5,35.4 	"/>
	<path fill="#FFFFFF" d="M99.8,33.4c0,0.1,0,0.1,0,0.2c0,0.2,0,0.3,0,0.5s0,0.4,0,0.6c0,0.3,0,0.6,0,0.8c0,0.2,0.1,0.6,0.1,0.8h1.9
		l1.8-1.9l-0.9-1H99.8z"/>
	<path fill="#FFFFFF" d="M110.2,26.8c-0.6-0.3-1.2-0.6-1.8-0.7c-0.7-0.2-1.3-0.2-2-0.2c-1,0-1.8,0.2-2.6,0.5
		c-0.8,0.3-1.4,0.7-1.9,1.3c-0.5,0.5-0.9,1.1-1.2,1.7l2.4,2.6h2.6l4.6-4.9C110.4,26.9,110.3,26.9,110.2,26.8z"/>
</g>
</svg>
