<?xml version="1.0" encoding="utf-8"?>
<!-- Generator: Adobe Illustrator 17.1.0, SVG Export Plug-In . SVG Version: 6.00 Build 0)  -->
<!DOCTYPE svg PUBLIC "-//W3C//DTD SVG 1.1//EN" "http://www.w3.org/Graphics/SVG/1.1/DTD/svg11.dtd">
<svg version="1.1" id="Calque_1" xmlns="http://www.w3.org/2000/svg" xmlns:xlink="http://www.w3.org/1999/xlink" x="0px" y="0px"
	 width="210px" height="162px" viewBox="0 0 210 162" enable-background="new 0 0 210 162" xml:space="preserve">
<g>
	<path fill="#FFFFFF" d="M105,128.2c-1.1,0-2,0.9-2,2s0.9,2,2,2s2-0.9,2-2S106,128.2,105,128.2z"/>
	<path fill="#FFFFFF" d="M68.1,123.7h73.6c0.4,0,0.8-0.4,0.8-0.8v-96c0-0.4-0.4-0.8-0.8-0.8H68.1c-0.4,0-0.8,0.4-0.8,0.8V123
		C67.4,123.4,67.7,123.7,68.1,123.7z M72.3,32.6h44.3c0.4,0,0.8,0.4,0.8,0.8s-0.4,0.8-0.8,0.8H72.3c-0.4,0-0.8-0.4-0.8-0.8
		S71.8,32.6,72.3,32.6z M72.3,36.5H136c0.4,0,0.8,0.4,0.8,0.8s-0.4,0.8-0.8,0.8H72.3c-0.4,0-0.8-0.4-0.8-0.8
		C71.5,36.8,71.8,36.5,72.3,36.5z M72.3,40.3h61.8c0.4,0,0.8,0.4,0.8,0.8s-0.4,0.8-0.8,0.8H72.3c-0.4,0-0.8-0.4-0.8-0.8
		S71.8,40.3,72.3,40.3z M72.3,44.2H132c0.4,0,0.8,0.4,0.8,0.8s-0.4,0.8-0.8,0.8H72.3c-0.4,0-0.8-0.4-0.8-0.8
		C71.5,44.6,71.8,44.2,72.3,44.2z M72.3,48.1h34.8c0.4,0,0.8,0.4,0.8,0.8s-0.4,0.8-0.8,0.8H72.3c-0.4,0-0.8-0.4-0.8-0.8
		C71.5,48.4,71.8,48.1,72.3,48.1z M72.3,51.9h55.4c0.4,0,0.8,0.4,0.8,0.8s-0.4,0.8-0.8,0.8H72.3c-0.4,0-0.8-0.4-0.8-0.8
		C71.5,52.2,71.8,51.9,72.3,51.9z M72.3,55.7H136c0.4,0,0.8,0.4,0.8,0.8s-0.4,0.8-0.8,0.8H72.3c-0.4,0-0.8-0.4-0.8-0.8
		S71.8,55.7,72.3,55.7z M72.3,59.6H132c0.4,0,0.8,0.4,0.8,0.8s-0.4,0.8-0.8,0.8H72.3c-0.4,0-0.8-0.4-0.8-0.8
		C71.5,59.9,71.8,59.6,72.3,59.6z M72.3,63.4h58.4c0.4,0,0.8,0.4,0.8,0.8s-0.4,0.8-0.8,0.8H72.3c-0.4,0-0.8-0.4-0.8-0.8
		S71.8,63.4,72.3,63.4z M72.3,67.3h55.4c0.4,0,0.8,0.4,0.8,0.8s-0.4,0.8-0.8,0.8H72.3c-0.4,0-0.8-0.4-0.8-0.8
		C71.5,67.6,71.8,67.3,72.3,67.3z M72.3,71.1h61.8c0.4,0,0.8,0.4,0.8,0.8s-0.4,0.8-0.8,0.8H72.3c-0.4,0-0.8-0.4-0.8-0.8
		S71.8,71.1,72.3,71.1z M72.3,75h47.3c0.4,0,0.8,0.4,0.8,0.8s-0.4,0.8-0.8,0.8H72.3c-0.4,0-0.8-0.4-0.8-0.8
		C71.5,75.3,71.8,75,72.3,75z M72.3,82.6h44.3c0.4,0,0.8,0.4,0.8,0.8s-0.4,0.8-0.8,0.8H72.3c-0.4,0-0.8-0.4-0.8-0.8
		S71.8,82.6,72.3,82.6z M72.3,86.5H136c0.4,0,0.8,0.4,0.8,0.8s-0.4,0.8-0.8,0.8H72.3c-0.4,0-0.8-0.4-0.8-0.8
		C71.5,86.8,71.8,86.5,72.3,86.5z M72.3,90.3H132c0.4,0,0.8,0.4,0.8,0.8s-0.4,0.8-0.8,0.8H72.3c-0.4,0-0.8-0.4-0.8-0.8
		S71.8,90.3,72.3,90.3z M72.3,94.2h50.9c0.4,0,0.8,0.4,0.8,0.8s-0.4,0.8-0.8,0.8H72.3c-0.4,0-0.8-0.4-0.8-0.8
		C71.5,94.5,71.8,94.2,72.3,94.2z M72.3,98.1H136c0.4,0,0.8,0.4,0.8,0.8s-0.4,0.8-0.8,0.8H72.3c-0.4,0-0.8-0.4-0.8-0.8
		C71.5,98.4,71.8,98.1,72.3,98.1z M72.3,101.9H132c0.4,0,0.8,0.4,0.8,0.8s-0.4,0.8-0.8,0.8H72.3c-0.4,0-0.8-0.4-0.8-0.8
		S71.8,101.9,72.3,101.9z M72.3,105.7H136c0.4,0,0.8,0.4,0.8,0.8s-0.4,0.8-0.8,0.8H72.3c-0.4,0-0.8-0.4-0.8-0.8
		C71.5,106,71.8,105.7,72.3,105.7z M72.3,109.5h49.8c0.4,0,0.8,0.4,0.8,0.8s-0.4,0.8-0.8,0.8H72.3c-0.4,0-0.8-0.4-0.8-0.8
		S71.8,109.5,72.3,109.5z M72.3,113.4h13.4c0.4,0,0.8,0.4,0.8,0.8s-0.4,0.8-0.8,0.8H72.3c-0.4,0-0.8-0.4-0.8-0.8
		C71.5,113.7,71.8,113.4,72.3,113.4z"/>
	<path fill="#FFFFFF" d="M60.7,138.2c-2,0-3.6-1.6-3.6-3.6V20c0-2,1.6-3.6,3.6-3.6H104V0H0v162h104v-23.8L60.7,138.2L60.7,138.2z"/>
	<path fill="#FFFFFF" d="M106,0v16.4h43.2c2,0,3.6,1.6,3.6,3.6v114.7c0,2-1.6,3.6-3.6,3.6H106V162h104V0H106L106,0z"/>
	<path fill="#FFFFFF" d="M58.6,20v114.7c0,1.1,0.9,2.1,2.1,2.1h88.6c1.1,0,2.1-0.9,2.1-2.1V20c0-1.1-0.9-2.1-2.1-2.1H60.7
		C59.5,17.9,58.6,18.9,58.6,20z M105,133.1c-1.7,0-3.1-1.4-3.1-3.1s1.4-3.1,3.1-3.1s3.1,1.4,3.1,3.1
		C108.1,131.8,106.7,133.1,105,133.1z M65.9,26.8c0-1.3,1-2.3,2.3-2.3h73.6c1.3,0,2.3,1,2.3,2.3v96.1c0,1.3-1,2.3-2.3,2.3H68.1
		c-1.3,0-2.3-1-2.3-2.3L65.9,26.8L65.9,26.8z"/>
</g>
</svg>
