<?xml version="1.0" encoding="utf-8"?>
<!-- Generator: Adobe Illustrator 17.1.0, SVG Export Plug-In . SVG Version: 6.00 Build 0)  -->
<!DOCTYPE svg PUBLIC "-//W3C//DTD SVG 1.1//EN" "http://www.w3.org/Graphics/SVG/1.1/DTD/svg11.dtd">
<svg version="1.1" id="Calque_1" xmlns="http://www.w3.org/2000/svg" xmlns:xlink="http://www.w3.org/1999/xlink" x="0px" y="0px"
	 width="210px" height="162px" viewBox="0 0 210 162" enable-background="new 0 0 210 162" xml:space="preserve">
<g>
	<path fill="#FFFFFF" d="M141.2,115.6c0.1-0.1,7.8-3.6,10.2-11.3c2.4-8.8,2.8-16.1-2.6-26.4c-5.7-10.6-15.7-18.2-28.2-21.5
		c-4.1,3.5-9.3,5.7-15.1,5.7c-6.1,0-11.6-2.4-15.7-6.3c-8.6,1.4-13.7,3.5-13.8,3.5c-0.3,0.1-0.7,0.1-0.9-0.2c0-0.1-2.4-2.8-7.9-6.2
		C62.8,50.2,57.1,50,55,50c0,0,0,0-0.1,0l3.9,20.3c0.1,0.3-0.1,0.6-0.3,0.8c-5.6,4.1-8.4,13.3-8.4,13.4c-0.1,0.3-0.4,0.6-0.7,0.6
		h-7.8c-3.7,0.3-4,3.3-4,3.4v13.9c0.1,0.7,0.5,2.5,1.3,3.4c0.8,1,2.4,1.4,2.7,1.5H53c0.3,0,0.5,0.2,0.7,0.4c1.8,3.1,6.9,8.2,7,8.2
		c0.2,0.2,0.2,0.3,0.2,0.5v15.9c0.4,3.5,3.9,4.2,4.4,4.3h8.6c4.1-1.7,3.6-5.3,3.5-5.4c0,0,0-0.1,0-0.2v-4.3c0-0.3,0.2-0.5,0.4-0.7
		c0.3-0.2,0.5-0.1,0.8,0c4.5,2.8,13.9,4.5,24.5,4.5c11.1,0,21-3.6,21.1-3.6c0.1-0.1,0.2-0.1,0.3-0.1c0.2,0,0.3,0.1,0.4,0.2
		c0.2,0.2,0.3,0.4,0.3,0.6v4.6c0,4,4.2,4.3,4.4,4.3h7.8c1.1,0,2-0.4,2.6-1c1.5-1.7,1.1-4.8,1.1-4.8v-14.3
		C140.8,116,141,115.8,141.2,115.6z M118.1,71.5c-0.1,0.4-0.4,0.6-0.8,0.6c-0.1,0-0.2,0-0.2-0.1c-15.5-4.5-32.3-0.1-32.5,0
		c-0.4,0.1-0.9-0.2-1-0.6s0.2-0.9,0.6-1c0.2-0.1,17.4-4.6,33.3,0C118,70.6,118.2,71.1,118.1,71.5z"/>
	<path fill="#FFFFFF" d="M113.5,50.2c0.7,0,1.3-0.6,1.3-1.3v-21c0-0.7-0.6-1.3-1.3-1.3H99.7c-2,0-3.6,1.6-3.6,3.6v20.9
		c0,0.5,0.4,0.8,0.8,0.8h14c0.6,0,1-0.5,1-1c0-0.4,0.4-0.8,0.8-0.8L113.5,50.2L113.5,50.2z M111.9,49.1V30.7c0-0.5-0.4-0.8-0.8-0.8
		h-0.8v4.4c0,0.4-0.2,0.7-0.5,0.8c-0.3,0.1-0.7,0.1-0.9-0.2L108,34l-0.9,0.9c-0.3,0.3-0.6,0.3-0.9,0.2c-0.3-0.2-0.5-0.4-0.5-0.8
		v-4.4h-8.1c-0.3,0-0.6-0.2-0.8-0.5c-0.2-0.3-0.1-0.6,0.1-0.8c0.5-1,1.6-1.6,2.8-1.6h13.8c0.6,0,1,0.5,1,1v20.9
		c0,0.1-0.1,0.2-0.1,0.3c-0.1,0.4-0.5,0.7-0.9,0.7h-0.9C112.2,49.8,111.9,49.5,111.9,49.1z"/>
	<path fill="#FFFFFF" d="M102.8,132.1c-10.2,0-19.1-1.5-24.1-4.1v3c0.1,0.7,0.5,5.1-4.6,7c-0.1,0.1-0.2,0.1-0.3,0.1H65
		c-0.1,0-0.1,0-0.1,0c-1.8-0.3-5.3-1.8-5.7-5.7v-15.7c-1-1-4.9-5.1-6.8-7.9H41.7c-0.1,0-0.1,0-0.2,0s-2.3-0.6-3.6-2
		s-1.6-4.1-1.6-4.2s0-0.1,0-0.1V88.4c0.2-1.6,1.4-4.6,5.4-4.8H49c0.7-2.1,3.4-9.5,8.4-13.3l-4-20.7c-0.1-0.2,0-0.4,0.2-0.6
		s0.3-0.3,0.6-0.3s8-0.5,14,3.1c4.6,2.8,7,5.2,7.9,6.1c1.4-0.5,5.9-2.1,12.6-3.2c-3.7-4.1-6-9.5-6-15.4c0-12,9.4-21.9,21.3-22.8V0H0
		v162h104v-30C103.7,132.1,103.1,132.1,102.8,132.1z"/>
	<path fill="#FFFFFF" d="M106,0v16.4c12.3,0.5,22.4,10.5,22.4,22.9c0,6.3-2.6,11.9-6.7,16.1c12.5,3.6,22.6,11.2,28.3,22
		c5.6,10.6,5.2,18.6,2.8,27.5c-2.3,7.4-8.8,11.1-10.5,12v13.9c0.1,0.5,0.4,3.9-1.5,5.9c-0.9,1-2.1,1.5-3.7,1.5h-7.9
		c-2-0.2-5.8-1.5-5.8-5.8v-3.6c-2.5,0.8-9.5,2.8-17.4,3.2v30h104V0H106.4H106z"/>
	<path fill="#FFFFFF" d="M105.5,17.7c-12,0-21.7,9.7-21.7,21.6c0,5.9,2.4,11.2,6.3,15.1c0.5,0.5,0.9,0.9,1.4,1.3
		c3.8,3.3,8.7,5.2,14.1,5.2c5.1,0,9.8-1.8,13.5-4.8c0.5-0.4,0.9-0.8,1.4-1.2c4.2-4,6.8-9.6,6.8-15.7
		C127.1,27.4,117.4,17.7,105.5,17.7z M126,36.2l0.1,0.5c0.1,0.4-0.3,0.8-0.7,0.8c-0.1,0-0.1,0-0.1,0c-0.4,0-0.7-0.3-0.8-0.7
		l-0.1-0.4c-0.1-0.4,0.2-0.8,0.6-0.9C125.5,35.5,125.9,35.8,126,36.2z M125.3,33.2c0.1,0.2,0.1,0.3,0.2,0.5c0.1,0.4-0.1,0.8-0.5,0.9
		c-0.1,0-0.2,0.1-0.2,0.1c-0.3,0-0.6-0.2-0.7-0.6c-0.1-0.2-0.1-0.3-0.1-0.4c-0.1-0.4,0.1-0.8,0.5-0.9
		C124.7,32.6,125.1,32.8,125.3,33.2z M124.1,30.3c0.1,0.2,0.2,0.3,0.2,0.4c0.2,0.4,0,0.8-0.4,1c-0.1,0.1-0.2,0.1-0.3,0.1
		c-0.3,0-0.6-0.2-0.7-0.5c-0.1-0.1-0.1-0.3-0.2-0.4c-0.2-0.4,0-0.8,0.4-1C123.5,29.8,124,30,124.1,30.3z M121.6,27.5
		c0.4-0.3,0.8-0.2,1,0.2c0.1,0.1,0.2,0.3,0.3,0.4c0.2,0.4,0.2,0.8-0.2,1c-0.1,0.1-0.3,0.1-0.4,0.1c-0.3,0-0.5-0.1-0.6-0.4
		c-0.1-0.1-0.2-0.3-0.3-0.4C121.1,28.1,121.2,27.7,121.6,27.5z M119.6,25.2c0.3-0.3,0.8-0.3,1.1,0.1l0.3,0.4
		c0.3,0.3,0.3,0.8-0.1,1.1c-0.2,0.2-0.3,0.2-0.5,0.2s-0.4-0.1-0.6-0.3l-0.3-0.3C119.3,25.9,119.3,25.5,119.6,25.2z M112.1,20.4
		c0.2-0.4,0.6-0.6,1-0.4c0.2,0.1,0.3,0.1,0.4,0.2c0.4,0.2,0.6,0.6,0.4,1c-0.1,0.3-0.4,0.5-0.7,0.5c-0.1,0-0.2,0-0.3-0.1l-0.4-0.2
		C112.1,21.3,111.9,20.8,112.1,20.4z M109.2,19.6c0.1-0.4,0.5-0.7,0.9-0.6l0.5,0.1c0.4,0.1,0.7,0.5,0.6,0.9s-0.4,0.6-0.7,0.6
		c-0.1,0-0.1,0-0.2,0l-0.4-0.1C109.3,20.4,109.1,20,109.2,19.6z M107,18.6c0.2,0,0.3,0,0.5,0.1c0.4,0.1,0.7,0.4,0.7,0.8
		c-0.1,0.4-0.4,0.7-0.8,0.7h-0.1c-0.2,0-0.3,0-0.4-0.1c-0.4-0.1-0.7-0.4-0.7-0.8S106.6,18.6,107,18.6z M103.8,18.6
		c0.2,0,0.3,0,0.5-0.1c0.4,0,0.8,0.3,0.8,0.7s-0.3,0.8-0.7,0.8c-0.2,0-0.3,0-0.4,0.1h-0.1c-0.4,0-0.7-0.3-0.8-0.7
		C103.1,19,103.4,18.7,103.8,18.6z M100.8,19.1c0.2-0.1,0.3-0.1,0.5-0.1c0.4-0.1,0.8,0.2,0.9,0.6s-0.2,0.8-0.6,0.9
		c-0.2,0.1-0.3,0.1-0.4,0.1s-0.1,0-0.2,0c-0.4,0-0.7-0.3-0.7-0.6C100.1,19.6,100.4,19.2,100.8,19.1z M97.8,20
		c0.2-0.1,0.3-0.1,0.4-0.2c0.4-0.2,0.8,0.1,1,0.5s-0.1,0.8-0.5,1c-0.2,0.1-0.3,0.1-0.4,0.2s-0.2,0.1-0.3,0.1c-0.3,0-0.6-0.2-0.7-0.5
		C97.2,20.6,97.4,20.1,97.8,20z M95,21.4c0.2-0.1,0.3-0.2,0.4-0.2c0.4-0.2,0.8-0.1,1,0.3s0.1,0.8-0.3,1c-0.1,0.1-0.3,0.2-0.4,0.2
		c-0.1,0.1-0.3,0.1-0.4,0.1c-0.3,0-0.5-0.2-0.7-0.4C94.5,22,94.7,21.6,95,21.4z M86.7,30.4c0.1-0.2,0.2-0.3,0.2-0.4
		c0.2-0.4,0.7-0.5,1-0.3c0.4,0.2,0.5,0.7,0.3,1c-0.1,0.1-0.1,0.3-0.2,0.4c-0.2,0.3-0.4,0.4-0.7,0.4c-0.1,0-0.2,0-0.3-0.1
		C86.7,31.2,86.5,30.7,86.7,30.4z M85.6,33.2c0.1-0.2,0.1-0.3,0.2-0.4c0.2-0.4,0.6-0.6,1-0.5s0.6,0.6,0.5,1
		c-0.1,0.2-0.1,0.3-0.2,0.4c-0.1,0.3-0.4,0.5-0.7,0.5c-0.1,0-0.2,0-0.2-0.1C85.7,34,85.5,33.6,85.6,33.2z M84.9,36.3
		c0-0.2,0.1-0.3,0.1-0.5c0.1-0.4,0.5-0.7,0.9-0.6s0.7,0.5,0.6,0.9c0,0.2-0.1,0.3-0.1,0.4c-0.1,0.4-0.4,0.7-0.8,0.7
		c-0.1,0-0.1,0-0.1,0C85.1,37,84.8,36.7,84.9,36.3z M84.7,39.3c0-0.2,0-0.3,0-0.5c0-0.4,0.4-0.8,0.8-0.7c0.4,0,0.8,0.4,0.7,0.8v0.4
		c0,0.4-0.4,0.8-0.8,0.8S84.6,39.7,84.7,39.3L84.7,39.3L84.7,39.3z M84.9,42.4c0-0.2-0.1-0.3-0.1-0.5c-0.1-0.4,0.3-0.8,0.7-0.8
		c0.4-0.1,0.8,0.3,0.8,0.7c0,0.2,0.1,0.3,0.1,0.4c0.1,0.4-0.2,0.8-0.6,0.9c-0.1,0-0.1,0-0.1,0C85.3,43,85,42.8,84.9,42.4z
		 M85.6,45.4c-0.1-0.2-0.1-0.3-0.2-0.4c-0.1-0.4,0.1-0.8,0.5-0.9s0.8,0.1,0.9,0.5c0.1,0.2,0.1,0.3,0.1,0.4c0.1,0.4-0.1,0.8-0.5,0.9
		c-0.1,0-0.2,0.1-0.2,0.1C86,46,85.7,45.8,85.6,45.4z M87.4,48.7c-0.3,0-0.6-0.2-0.7-0.4l-0.2-0.4c-0.2-0.4,0-0.8,0.4-1s0.8,0,1,0.4
		l0.2,0.4c0.2,0.4,0,0.8-0.4,1C87.6,48.7,87.5,48.7,87.4,48.7z M89.3,51.2c-0.2,0.1-0.3,0.2-0.4,0.2c-0.3,0-0.5-0.1-0.6-0.3
		c-0.1-0.1-0.2-0.3-0.3-0.4c-0.2-0.4-0.2-0.8,0.2-1c0.4-0.2,0.8-0.2,1,0.2l0.3,0.4C89.7,50.5,89.7,51,89.3,51.2z M89.5,28.5
		c-0.2,0.2-0.4,0.3-0.6,0.3s-0.3-0.1-0.4-0.2c-0.4-0.3-0.4-0.7-0.2-1l0.3-0.4c0.3-0.4,0.7-0.4,1-0.2c0.4,0.3,0.4,0.7,0.2,1
		L89.5,28.5z M91.3,53.5c-0.2,0.2-0.3,0.2-0.5,0.2s-0.4-0.1-0.6-0.3c-0.1-0.1-0.2-0.2-0.3-0.4c-0.3-0.3-0.3-0.8,0.1-1.1
		c0.3-0.3,0.8-0.3,1.1,0.1c0.1,0.1,0.2,0.2,0.3,0.3C91.6,52.7,91.6,53.2,91.3,53.5z M91.6,25.9l-0.3,0.3c-0.2,0.2-0.4,0.3-0.6,0.3
		s-0.4-0.1-0.5-0.2c-0.3-0.3-0.3-0.8-0.1-1.1c0.1-0.1,0.2-0.2,0.3-0.3c0.3-0.3,0.8-0.3,1.1,0C91.8,25.2,91.8,25.7,91.6,25.9z
		 M93.5,55.4c-0.2,0.2-0.4,0.3-0.6,0.3s-0.3-0.1-0.5-0.2c-0.1-0.1-0.3-0.2-0.4-0.3c-0.3-0.3-0.4-0.7-0.1-1.1
		c0.3-0.3,0.7-0.4,1.1-0.1l0.3,0.3C93.7,54.6,93.8,55.1,93.5,55.4z M93.7,24c-0.1,0.1-0.2,0.2-0.3,0.3c-0.2,0.1-0.3,0.2-0.5,0.2
		s-0.5-0.1-0.6-0.3c-0.3-0.3-0.2-0.8,0.1-1.1c0.1-0.1,0.3-0.2,0.4-0.3c0.3-0.3,0.8-0.2,1.1,0.2C94.1,23.3,94,23.8,93.7,24z M96.1,57
		c-0.2,0.3-0.4,0.4-0.7,0.4c-0.1,0-0.3-0.1-0.4-0.1c-0.2-0.1-0.3-0.2-0.4-0.2c-0.4-0.2-0.5-0.7-0.3-1c0.2-0.4,0.7-0.5,1-0.3l0.4,0.2
		C96.2,56.2,96.3,56.6,96.1,57z M98.8,58.2c-0.1,0.3-0.4,0.5-0.7,0.5c-0.1,0-0.2,0-0.3-0.1c-0.2-0.1-0.3-0.1-0.4-0.2
		c-0.4-0.2-0.6-0.6-0.4-1s0.6-0.6,1-0.4c0.2,0.1,0.3,0.1,0.4,0.2C98.8,57.4,99,57.8,98.8,58.2z M101.7,58.8
		c-0.1,0.4-0.4,0.6-0.7,0.6c-0.1,0-0.1,0-0.2,0c-0.2-0.1-0.3-0.1-0.5-0.1c-0.4-0.1-0.7-0.5-0.6-0.9s0.5-0.7,0.9-0.6
		c0.2,0.1,0.3,0.1,0.4,0.1C101.6,58.2,101.8,58.5,101.7,58.8z M104,59.9L104,59.9c-0.2,0-0.4,0-0.5-0.1c-0.4-0.1-0.7-0.4-0.7-0.8
		c0.1-0.4,0.4-0.7,0.8-0.7c0.2,0,0.3,0,0.4,0.1c0.4,0.1,0.7,0.4,0.7,0.8C104.7,59.6,104.3,59.9,104,59.9z M107.1,59.8
		c-0.2,0-0.3,0-0.5,0.1h-0.1c-0.4,0-0.7-0.3-0.8-0.7c0-0.4,0.3-0.8,0.7-0.8c0.2,0,0.3,0,0.4-0.1c0.4-0.1,0.8,0.3,0.8,0.7
		C107.8,59.5,107.5,59.8,107.1,59.8z M110.1,59.4c-0.2,0.1-0.3,0.1-0.5,0.1c-0.1,0-0.1,0-0.2,0c-0.4,0-0.7-0.3-0.7-0.6
		c-0.1-0.4,0.2-0.8,0.6-0.9c0.2-0.1,0.3-0.1,0.4-0.1c0.4-0.1,0.8,0.2,0.9,0.6C110.8,58.9,110.5,59.3,110.1,59.4z M96.9,53
		c-1.1,0-2-0.9-2-2V30.1c0-2.6,2.1-4.7,4.7-4.7h13.8c1.3,0,2.4,1.1,2.4,2.4v21c0,1.3-1.1,2.4-2.4,2.4H113c-0.2,1-1.1,1.8-2.1,1.8
		L96.9,53L96.9,53z M113.1,58.6c-0.2,0.1-0.3,0.1-0.4,0.2s-0.2,0.1-0.3,0.1c-0.3,0-0.6-0.2-0.7-0.5c-0.2-0.4,0.1-0.8,0.5-1l0.4-0.2
		c0.4-0.2,0.8,0.1,1,0.4C113.6,58,113.5,58.4,113.1,58.6z M115.9,57.2l-0.4,0.3c-0.1,0.1-0.3,0.1-0.4,0.1c-0.3,0-0.5-0.2-0.7-0.4
		c-0.2-0.4-0.1-0.8,0.3-1l0.4-0.2c0.4-0.2,0.8-0.1,1,0.3C116.3,56.5,116.2,57,115.9,57.2z M116.4,22.6c-0.2,0.3-0.4,0.4-0.7,0.4
		c-0.2,0-0.3-0.1-0.4-0.1c-0.1-0.1-0.3-0.2-0.4-0.2c-0.4-0.2-0.5-0.7-0.3-1c0.2-0.4,0.7-0.5,1-0.3c0.2,0.1,0.3,0.2,0.4,0.3
		C116.5,21.8,116.6,22.3,116.4,22.6z M118.4,55.4c-0.1,0.1-0.3,0.2-0.4,0.3c-0.2,0.1-0.3,0.2-0.5,0.2s-0.5-0.1-0.6-0.3
		c-0.3-0.3-0.2-0.8,0.2-1.1c0.1-0.1,0.2-0.2,0.3-0.3c0.3-0.3,0.8-0.2,1.1,0.1C118.8,54.7,118.7,55.2,118.4,55.4z M118.8,24.4
		c-0.2,0.2-0.4,0.3-0.6,0.3s-0.4-0.1-0.5-0.2l-0.3-0.3c-0.3-0.3-0.4-0.7-0.1-1.1c0.3-0.3,0.7-0.4,1.1-0.1l0.4,0.3
		C119,23.7,119.1,24.1,118.8,24.4z M120.7,53.3c-0.1,0.1-0.2,0.2-0.3,0.3c-0.2,0.2-0.4,0.2-0.6,0.2s-0.4-0.1-0.5-0.2
		c-0.3-0.3-0.3-0.8,0-1.1c0.1-0.1,0.2-0.2,0.3-0.3c0.3-0.3,0.8-0.3,1.1-0.1C120.9,52.6,121,53,120.7,53.3z M122.6,50.9
		c-0.1,0.1-0.2,0.3-0.3,0.4c-0.2,0.2-0.4,0.3-0.6,0.3s-0.3-0.1-0.5-0.2c-0.4-0.3-0.4-0.7-0.2-1c0.1-0.1,0.2-0.2,0.3-0.4
		c0.3-0.4,0.7-0.4,1-0.2C122.8,50.1,122.8,50.6,122.6,50.9z M124.2,48.2c-0.1,0.2-0.2,0.3-0.2,0.4c-0.2,0.3-0.4,0.4-0.7,0.4
		c-0.1,0-0.3-0.1-0.4-0.1c-0.4-0.2-0.5-0.7-0.3-1c0.1-0.1,0.1-0.3,0.2-0.4c0.2-0.4,0.6-0.5,1-0.4C124.2,47.4,124.3,47.9,124.2,48.2z
		 M125.3,45.3c-0.1,0.2-0.1,0.3-0.2,0.4c-0.1,0.3-0.4,0.5-0.7,0.5c-0.1,0-0.2,0-0.3-0.1c-0.4-0.2-0.6-0.6-0.5-1
		c0.1-0.2,0.1-0.3,0.2-0.4c0.1-0.4,0.6-0.6,0.9-0.5C125.2,44.5,125.4,44.9,125.3,45.3z M126,42.3c0,0.2-0.1,0.3-0.1,0.5
		c-0.1,0.4-0.4,0.6-0.7,0.6c-0.1,0-0.1,0-0.1,0c-0.4-0.1-0.7-0.5-0.6-0.9c0-0.2,0.1-0.3,0.1-0.4c0.1-0.4,0.5-0.7,0.9-0.6
		C125.8,41.5,126,41.9,126,42.3z M126.2,39.7c0,0.4-0.4,0.7-0.8,0.7l0,0c-0.4,0-0.8-0.4-0.7-0.8v-0.4c0-0.4,0.4-0.8,0.8-0.8
		s0.8,0.3,0.8,0.7v0.1L126.2,39.7z"/>
	<path fill="#FFFFFF" d="M113,48.7h0.4l0,0V28.2H99.7c-0.6,0-1.1,0.2-1.5,0.6h7.8c0.5,0,0.9,0.4,0.9,0.9v3.9l0.6-0.6
		c0.2-0.2,0.3-0.3,0.5-0.3c0.3,0,0.5,0.1,0.7,0.3l0.6,0.6v-3.9c0-0.5,0.4-0.9,0.9-0.9h1.1c1.1,0,2,0.9,2,2L113,48.7L113,48.7z"/>
</g>
</svg>
