<?xml version="1.0" encoding="utf-8"?>
<!-- Generator: Adobe Illustrator 17.1.0, SVG Export Plug-In . SVG Version: 6.00 Build 0)  -->
<!DOCTYPE svg PUBLIC "-//W3C//DTD SVG 1.1//EN" "http://www.w3.org/Graphics/SVG/1.1/DTD/svg11.dtd">
<svg version="1.1" id="Calque_1" xmlns="http://www.w3.org/2000/svg" xmlns:xlink="http://www.w3.org/1999/xlink" x="0px" y="0px"
	 width="210px" height="162px" viewBox="0 0 210 162" enable-background="new 0 0 210 162" xml:space="preserve">
<g>
	<polygon fill="#FFFFFF" points="164.4,92.1 132.3,92.1 164.4,123.6 	"/>
	<polygon fill="#FFFFFF" points="150.9,136.5 118.8,104.6 118.8,136.5 	"/>
	<polygon fill="#FFFFFF" points="164.4,33.5 132.9,64.9 164.4,64.9 	"/>
	<path fill="#FFFFFF" d="M119.2,54.1c-0.3-0.1-0.5-0.4-0.5-0.8L118.1,18H91l0.6,35.3c0,0.4-0.2,0.6-0.5,0.8s-0.7,0.1-0.9-0.2
		L55.4,18.1h-9.8v12.7L80,65.1c0.2,0.2,0.3,0.6,0.2,0.9c-0.2,0.3-0.4,0.5-0.8,0.5H45.5v23.9h34.4c0.4,0,0.6,0.2,0.8,0.5
		c0.1,0.3,0.1,0.7-0.2,0.9l-35,34.1v10.5h11.6l34.6-34.5c0.2-0.2,0.6-0.3,0.9-0.1c0.3,0.1,0.5,0.4,0.5,0.8v33.9h24v-33.9
		c0-0.4,0.2-0.6,0.5-0.8c0.3-0.1,0.6-0.1,0.9,0.1l34.7,34.5h11.2v-10.7l-34.6-34.1c-0.2-0.2-0.3-0.6-0.2-0.9
		c0.1-0.3,0.4-0.5,0.8-0.5l34.1,0.1v-24l-33.4-0.1c-0.3,0-0.6-0.2-0.8-0.5s-0.1-0.6,0.2-0.9l34-34V17.7h-10.6l-33.6,35.8
		C119.9,54.1,119.5,54.2,119.2,54.1z"/>
	<polygon fill="#FFFFFF" points="151.5,18.2 119.8,18.2 120.3,51.4 	"/>
	<polygon fill="#FFFFFF" points="104,138.1 92.3,138.1 92.3,138.1 57.4,138.1 45.1,138.1 43.9,138.1 43.9,91.2 43.9,65.7 43.9,16.6 
		44.2,16.6 55.8,16.6 90.2,16.6 104,16.6 104,0 0,0 0,162 104,162 	"/>
	<path fill="#FFFFFF" d="M106,0v16.5h12.8h34.5h11.8h0.8v49.1v25.5v34.3c0,0,0,0,0,0.1v11.8c0,0,0,0,0,0.1v0.7h-0.8h-12.3H118l0,0
		h-12V162h104V0L106.3,0.1L106,0z"/>
	<polygon fill="#FFFFFF" points="57.7,18.2 89.9,51.4 89.4,18.2 	"/>
	<polygon fill="#FFFFFF" points="91.5,104.6 59.4,136.5 91.5,136.5 	"/>
	<polygon fill="#FFFFFF" points="45.5,124 78,92.1 45.5,92.1 	"/>
	<polygon fill="#FFFFFF" points="45.5,64.9 77.4,64.9 45.5,32.9 	"/>
</g>
</svg>
