<?xml version="1.0" encoding="utf-8"?>
<!-- Generator: Adobe Illustrator 17.1.0, SVG Export Plug-In . SVG Version: 6.00 Build 0)  -->
<!DOCTYPE svg PUBLIC "-//W3C//DTD SVG 1.1//EN" "http://www.w3.org/Graphics/SVG/1.1/DTD/svg11.dtd">
<svg version="1.1" id="Calque_1" xmlns="http://www.w3.org/2000/svg" xmlns:xlink="http://www.w3.org/1999/xlink" x="0px" y="0px"
	 width="210px" height="162px" viewBox="0 0 210 162" enable-background="new 0 0 210 162" xml:space="preserve">
<g>
	<path fill="#FFFFFF" d="M137.1,43c0,6.1,2.3,11.8,6.6,16c4.3,4.3,10,6.7,16.1,6.7c0.4,0,0.9,0,1.4-0.1c5.6-0.4,10.8-2.6,14.7-6.6
		c4.3-4.3,6.6-10,6.6-16c0-12.6-10.2-22.7-22.8-22.7c-7.1,0-13.4,3.2-17.6,8.2c-0.3,0.4-0.6,0.8-0.8,1.1c-1.9,2.6-3.2,5.6-4,8.9
		c-0.1,0.5-0.1,1-0.2,1.5C137.2,41,137.1,42,137.1,43z M138,40.3c0.1-0.2,0.4-0.4,0.6-0.4h3.9c1.4-8.2,8.6-14.2,16.9-14.2
		c9.5,0,17.2,7.7,17.2,17c0,9.4-7.7,17-17.2,17c-4.6,0-8.9-1.8-12.1-5c-0.2-0.3-0.2-0.7,0-1c0.3-0.2,0.7-0.2,1,0
		c3,3,6.9,4.6,11.1,4.6c8.7,0,15.8-7,15.8-15.7s-7.1-15.7-15.8-15.7c-7.6,0-14.1,5.5-15.5,12.9h4.5c0.2,0,0.5,0.1,0.6,0.4
		c0.2,0.2,0.1,0.5,0,0.8l-4.9,6.9c-0.2,0.2-0.3,0.3-0.6,0.3l0,0c-0.2,0-0.4-0.1-0.6-0.3l-4.8-6.9C137.9,40.8,137.9,40.5,138,40.3z
		 M156.2,46.9l1.9-5.2c0.1-0.2,0.2-0.4,0.4-0.4l8.3-3.4c0.3-0.2,0.8,0,0.9,0.4c0.1,0.4,0,0.8-0.4,0.9l-8,3.3l-1.9,4.9
		c-0.1,0.3-0.4,0.4-0.6,0.4c-0.1,0-0.2,0-0.2,0C156.2,47.7,156.1,47.3,156.2,46.9z"/>
	<polygon fill="#FFFFFF" points="147.1,41.3 140,41.3 143.5,46.2 	"/>
	<path fill="#FFFFFF" d="M49.9,126.7c-0.2,0-0.3,0-0.5-0.2s-0.2-0.3-0.2-0.5V38.5c0-0.4,0.2-0.7,0.6-0.7c0.1,0,2.2-0.3,5.9-0.4
		c0.1-0.1,0.1-0.2,0.2-0.2l15.3-11.3c0.2-0.1,0.3-0.1,0.5-0.1s21.5,3.1,32.3,19.7V0H0v162h104v-24.3
		C99.1,135.6,74.7,126.5,49.9,126.7z"/>
	<path fill="#FFFFFF" d="M106.4,47.5c3.8-1.9,13.7-6,27.2-8.3c0.7-4.3,2.3-8.3,4.8-11.7l-0.4-0.2C116.7,31.6,108.8,43.1,106.4,47.5z
		"/>
	<path fill="#FFFFFF" d="M105.2,49.6c-0.1,0.1-0.1,0.1-0.2,0.1l0,0l0,0l0,0c-0.1,0-0.2,0-0.2-0.1l0,0C88.3,42.5,74.3,40,65.5,39.2
		c-7.8-0.8-13-0.4-14.7-0.2v86.2c0.1,0,0.2,0,0.3,0c26,0,51,10.1,54,11.4c21.4-10,50.2-11.5,55-11.7V82.8l-18.8-21.1
		c-4.6-5.1-7.8-11.4-7.8-18.7c0-0.8,0.1-1.6,0.1-2.4C116.4,43.6,105.4,49.5,105.2,49.6L105.2,49.6z M105.4,122.5
		c0,0.4-0.3,0.7-0.7,0.7c-0.4,0-0.7-0.3-0.7-0.7V58.9c0-0.4,0.3-0.7,0.7-0.7c0.4,0,0.7,0.3,0.7,0.7V122.5z"/>
	<path fill="#FFFFFF" d="M106,0v44.7c3.5-5.5,12.5-14.9,31.8-18.9c0.2,0,0.4,0,0.6,0.1l0.7,0.5c4.9-6.1,12.4-9.9,20.8-9.9
		c14.7,0,26.6,11.9,26.6,26.5c0,7.4-3.2,13.7-7.8,18.7l-17.4,19.5v44.4c0,0.4-0.3,0.7-0.7,0.7c-0.3,0-31.7,0.7-54.6,11.1V162h104V0
		H106L106,0z"/>
	<path fill="#FFFFFF" d="M103.3,47.6c-9.6-16.1-29.1-19.9-31.6-20.3L57.9,37.5c2.1,0.1,4.6,0.1,7.5,0.4
		C73.9,38.7,87.4,41.1,103.3,47.6z"/>
</g>
</svg>
