<?xml version="1.0" encoding="utf-8"?>
<!-- Generator: Adobe Illustrator 17.1.0, SVG Export Plug-In . SVG Version: 6.00 Build 0)  -->
<!DOCTYPE svg PUBLIC "-//W3C//DTD SVG 1.1//EN" "http://www.w3.org/Graphics/SVG/1.1/DTD/svg11.dtd">
<svg version="1.1" id="Calque_1" xmlns="http://www.w3.org/2000/svg" xmlns:xlink="http://www.w3.org/1999/xlink" x="0px" y="0px"
	 width="210px" height="162px" viewBox="0 0 210 162" enable-background="new 0 0 210 162" xml:space="preserve">
<g>
	<path fill="#FFFFFF" d="M93.3,70.4c3,3.2,4.9,5.2,4.9,7.5c0,2.2-1.9,4.3-4.9,7.4c-6.3,6.6-16.7,17.4-17.5,39h8.7
		c-0.1-0.1-0.1-0.2-0.1-0.4v-0.1c0-0.2,0-0.4,0-0.6c0-1.1,0.1-2.3,0.4-3.5c0.1-0.2,0.1-0.5,0.2-0.6s0.1-0.2,0.2-0.4
		c0.3-1,0.8-2,1.4-3c0.7-1.2,1.6-2.5,2.7-3.6c0-0.1,0.1-0.1,0.1-0.1c1.4-1.5,3.2-2.9,5.1-4.3c0.6-0.4,1.2-0.8,1.8-1.1
		c1.1-0.7,2.2-1.4,3.4-1.9c2.7-1.4,4.7-2,4.8-2.1l0.3-0.1l0.2,0.1c0.7,0.3,13.4,5.9,18.2,14.2c0.6,0.9,1.1,1.9,1.2,2.8
		c0.2,0.5,0.2,1,0.3,1.5c0.2,1,0.4,2.1,0,3h8.8c-0.9-21.4-11.4-32.4-17.7-38.9c-3.1-3.1-5.1-5.2-5.1-7.5c0-2.2,1.9-4.3,4.9-7.4
		c6.4-6.6,17.1-17.6,17.8-39.5c0-0.2,0-0.4,0.1-0.6H75.8c0,0.2,0,0.4,0,0.6C76.5,52.7,87.1,63.8,93.3,70.4z M87.7,50.4
		c2.2-2.2,8.3-2,15.4-1.8h1.7c1.8,0,3.7,0,5.4,0c5.5,0,9.8-0.1,11.6,1.7c0.6,0.5,0.9,1.2,0.9,2.1c0,11.8-16.8,23.3-17.5,23.8
		l-0.4,0.3l-0.5-0.4c-0.7-0.6-17.5-13.5-17.5-23.7C86.7,51.6,87,51,87.7,50.4z"/>
	<path fill="#FFFFFF" d="M70.8,138c-3.8,0-6.9-3.1-6.9-7s3.1-7,7-7h0.9c0.9-23.2,12.4-35.3,18.7-41.7c1.5-1.6,3.8-3.9,3.8-4.6
		s-2.3-3-3.8-4.6c-6.2-6.6-18-18.8-18.6-42.3c0-0.1,0-0.4,0-0.5h-0.8c-3.9,0-7-3.1-7-6.9c0-3.9,3.1-7,7-7H104V0H0v162h104v-24H70.8
		L70.8,138z"/>
	<path fill="#FFFFFF" d="M65.4,23.5c0,3,2.4,5.5,5.4,5.5H73v0.7c0.1,0.4,0.1,0.9,0.1,1.2c0.6,23,12.1,35,18.2,41.3
		c2.7,2.8,4.2,4.5,4.2,5.7s-1.5,2.8-4.2,5.6c-6.2,6.4-17.6,18.3-18.2,41.3c0,0,0,0.1,0,0.2l-0.1,0.7h-2.3c-3,0-5.5,2.5-5.5,5.5
		s2.5,5.5,5.5,5.5h67.6c3,0,5.4-2.5,5.4-5.5s-2.4-5.4-5.4-5.4H136v-0.7c0-0.1,0-0.1,0-0.2c-0.7-22.9-12.2-34.9-18.5-41.3
		c-2.8-2.8-4.3-4.5-4.3-5.7c0-1.1,1.6-2.8,4.2-5.6c6.2-6.5,17.8-18.4,18.5-41.3c0-0.4,0.1-0.8,0.1-1.2l0.1-0.8h2.2
		c3,0,5.4-2.5,5.4-5.5s-2.4-5.4-5.4-5.4H70.8C67.8,18,65.4,20.5,65.4,23.5z M135.1,28.8l-0.1,1.1c0,0.4-0.1,0.7-0.1,1
		c-0.7,22.4-11.6,33.7-18.2,40.5c-2.8,2.9-4.6,4.8-4.6,6.4c0,1.7,1.9,3.6,4.6,6.5c6.5,6.8,17.4,18,18.1,40.4c0,0.1,0,0.1,0,0.2
		l0.1,0.8h-12h-2.2H88h-0.7H74.2l0.1-0.8c0-0.1,0-0.2,0-0.2c0.7-22.4,11.5-33.7,18-40.5c2.7-2.9,4.5-4.8,4.5-6.4
		c0-1.7-1.8-3.6-4.6-6.5C85.8,64.5,75,53.4,74.3,30.9c0-0.4-0.1-0.8-0.1-1.1v-1.1L135.1,28.8L135.1,28.8z"/>
	<path fill="#FFFFFF" d="M106,0.1v16.4h32.3c3.9,0,6.9,3.1,6.9,7c0,3.8-3.1,6.9-6.9,6.9h-0.9c0,0.1,0,0.4,0,0.5
		c-0.7,23.6-12.5,35.9-18.9,42.4c-1.5,1.5-3.8,3.9-3.9,4.5c0.1,0.6,2.4,3,3.9,4.6c6.3,6.6,18,18.6,18.9,41.7h0.9
		c3.9,0,6.9,3.1,6.9,7s-3.1,7-6.9,7H106V162h104V0L106.3,0.1H106z"/>
</g>
</svg>
