<?xml version="1.0" encoding="utf-8"?>
<!-- Generator: Adobe Illustrator 17.1.0, SVG Export Plug-In . SVG Version: 6.00 Build 0)  -->
<!DOCTYPE svg PUBLIC "-//W3C//DTD SVG 1.1//EN" "http://www.w3.org/Graphics/SVG/1.1/DTD/svg11.dtd">
<svg version="1.1" id="Calque_1" xmlns="http://www.w3.org/2000/svg" xmlns:xlink="http://www.w3.org/1999/xlink" x="0px" y="0px"
	 width="210px" height="162px" viewBox="0 0 210 162" enable-background="new 0 0 210 162" xml:space="preserve">
<g id="APP_DESIGN">
</g>
<g id="ECOMMERCE">
</g>
<g id="WORDPRESS">
</g>
<g>
	<polygon fill="#FFFFFF" points="24.2,118.5 73.1,118.5 48.8,49.2 	"/>
	<path fill="#FFFFFF" d="M106,0v13.7c3.6,0.6,6.7,3.8,6.7,7.5c0,3.8-3.1,6.9-6.7,7.4v7.5h55.3c0.6,0,1.2,0.5,1.2,1.2
		s-0.6,1.2-1.2,1.2c-1.6,0-2.9,1.3-2.9,2.9s1.3,2.9,2.9,2.9c1.6,0,2.9-1.3,2.9-2.9c0-0.6,0.6-1.2,1.2-1.2c0.6,0,1.2,0.6,1.2,1.2
		c0,2.3-1.5,4.3-3.6,5l25.5,72.9c0.1,0.1,0.1,0.2,0.1,0.3c0,0.1,0,0.1,0,0.1v0.1l0,0v4.9c0,0.1,0,0.2-0.1,0.3c0,0.1-0.1,0.1-0.1,0.1
		c0,0.1-0.1,0.1-0.1,0.1l-0.1,0.1l0,0l0,0c-0.6,1-5.5,8-27,8l0,0c-0.1,0-0.2,0-0.4,0c-3.4,0-6.3-0.2-8.9-0.5
		c-13.8-1.7-17.6-6.9-18.1-7.7l0,0l0,0c0-0.1-0.1-0.1-0.1-0.1v-0.1c0,0-0.1,0-0.1-0.1s0-0.2,0-0.4v-4.6c0,0,0-0.1,0-0.2s0-0.1,0-0.1
		v-0.1l25.9-72.8c-2.2-0.6-3.9-2.7-3.9-5.1c0-1.1,0.3-2.1,0.9-2.9H106v104.2h14.3c0.7,0,1.2,0.5,1.2,1.2c0,0.6-0.6,1.2-1.2,1.2H89.1
		c-0.7,0-1.2-0.5-1.2-1.2c0-0.6,0.5-1.2,1.2-1.2H104V38.5H53.4c0.6,0.9,0.9,1.9,0.9,2.9c0,2.4-1.6,4.4-3.8,5.1l25.4,72.8l0,0v0.1
		l0,0c0,0.1,0.1,0.1,0.1,0.1c0,0.1,0,0.1,0,0.2l0,0l0,0v4.9c0,0.1,0,0.2-0.1,0.3c0,0,0,0-0.1,0.1v0.1c-0.2,0.4-4.5,8.1-27,8.1l0,0
		c-0.2,0-0.2,0-0.4,0c-3.4,0-6.3-0.2-8.9-0.5c-13.8-1.7-17.6-6.9-18.1-7.7l0,0l0,0c0-0.1-0.1-0.1-0.1-0.1v-0.1c0,0-0.1,0-0.1-0.1
		s0-0.2,0-0.4v-4.6c0,0,0-0.1,0-0.2s0-0.1,0-0.1v-0.1l25.9-73c-2.1-0.7-3.7-2.7-3.7-5.1c0-0.6,0.5-1.2,1.2-1.2
		c0.6,0,1.2,0.5,1.2,1.2c0,1.6,1.3,2.9,3,2.9c1.6,0,2.9-1.3,2.9-2.9s-1.3-2.9-2.9-2.9c-0.7,0-1.2-0.5-1.2-1.2s0.6-1.2,1.2-1.2H104
		v-7.4c-3.6-0.6-6.6-3.7-6.6-7.5c0-3.7,3.1-6.8,6.6-7.4V0H0v162h104v-13.6H83.2c-0.7,0-1.2-0.5-1.2-1.2c0-0.6,0.6-1.2,1.2-1.2h44.4
		c0.7,0,1.2,0.5,1.2,1.2c0,0.6-0.6,1.2-1.2,1.2H106V162h104V0H106.4H106z"/>
	<path fill="#FFFFFF" d="M136.4,124c0.9,1,5.2,5.2,17.1,6.5c2.4,0.2,5.1,0.4,8.1,0.4c17.9-0.1,23.7-5.4,24.8-6.6v-3.2h-49.9v2.9
		L136.4,124L136.4,124z"/>
	<path fill="#FFFFFF" d="M110.2,21.2c0-2.9-2.3-5.1-5.2-5.1s-5.2,2.3-5.2,5.1c0,2.4,2,4.4,4.2,5v-3.7c0-0.6,0.3-1.2,0.9-1.2
		s1.2,0.5,1.2,1.2v3.7C108.6,25.6,110.2,23.6,110.2,21.2z"/>
	<polygon fill="#FFFFFF" points="136.9,118.5 185.8,118.5 161.6,49.2 	"/>
	<path fill="#FFFFFF" d="M23.7,124c0.9,1,5.2,5.2,17.1,6.5c2.3,0.2,5,0.4,8,0.4c17.9-0.1,23.7-5.4,24.8-6.6v-3.2H23.7L23.7,124
		L23.7,124z"/>
</g>
</svg>
