<?xml version="1.0" encoding="utf-8"?>
<!-- Generator: Adobe Illustrator 17.1.0, SVG Export Plug-In . SVG Version: 6.00 Build 0)  -->
<!DOCTYPE svg PUBLIC "-//W3C//DTD SVG 1.1//EN" "http://www.w3.org/Graphics/SVG/1.1/DTD/svg11.dtd">
<svg version="1.1" id="Calque_1" xmlns="http://www.w3.org/2000/svg" xmlns:xlink="http://www.w3.org/1999/xlink" x="0px" y="0px"
	 width="210px" height="162px" viewBox="0 0 210 162" enable-background="new 0 0 210 162" xml:space="preserve">
<g>
	<path fill="#FFFFFF" d="M104.3,73.9c-0.1,0-0.2,0-0.2,0c-2.8-0.4-11.5-2.8-19-4.9v8.4c0,1.2,0.9,2.2,1.6,2.8
		c1.1,0.8,2.5,1.5,4.2,2.1c3.5,1.1,8.2,1.8,13.2,1.9c0.2,0,0.5,0,0.8,0s0.5,0,0.8,0c5,0,9.6-0.7,13.2-1.9c1.9-0.6,3.2-1.3,4.2-2.1
		c0.8-0.6,1.6-1.5,1.6-2.8v-8.2c-3.5,1-14.9,4.2-19,4.7C105.1,73.9,104.6,73.9,104.3,73.9z"/>
	<path fill="#FFFFFF" d="M135.9,80.4c0-1.2-0.8-2.3-1.9-2.6l-0.5-0.2V63.7l2.3-0.6c0.2-0.1,0.2-0.2,0.3-0.4c0-0.1-0.1-0.3-0.2-0.4
		c-10.2-3.4-20.5-6.1-29.1-8.2c-0.3-0.1-0.7-0.2-1.1-0.2c-0.2,0-0.5,0-0.7,0h-0.1c-0.1,0-0.1,0-0.2,0s-0.3,0-0.5,0
		c-0.5,0.1-1,0.2-1.5,0.2c-6.4,1.6-12.9,3.2-19.2,4.9l-5,1.3c-1,0.2-2.1,0.6-3.1,0.9l-1.3,0.4c-0.1,0-0.2,0.2-0.2,0.4
		s0.1,0.3,0.2,0.4c3.8,1.2,7.7,2.3,11.4,3.4c6.2,1.7,12.2,3.2,18.2,4.9c0.2,0,0.3,0.1,0.5,0.1c0.5,0.1,1,0.1,1.5-0.1
		c0.1,0,0.1,0,0.2,0l27-6.9v13.8l-0.4,0.1c-1,0.5-1.6,1.4-1.6,2.5c0,1,0.6,2,1.5,2.5l0.5,0.2l-1.8,4.9c0,0.1,0,0.2,0.1,0.4
		c0,0.1,0.2,0.1,0.3,0.1h4c0.1,0,0.2,0,0.3-0.1c0.1-0.1,0.1-0.2,0.1-0.3l-1.7-4.9l0.5-0.2C135.4,82.4,135.9,81.5,135.9,80.4z"/>
	<path fill="#FFFFFF" d="M67.1,115.3c-10.6-13.1-23.2-37.4-23.2-78.1v-3.4l3.3-0.9l56.8-16V0H0v162h104v-23.9
		C94.5,137.6,80.1,131.5,67.1,115.3z"/>
	<path fill="#FFFFFF" d="M141.4,114.4c10.4-13,22.9-36.9,22.9-77.2v-2.3l-2.2-0.6l-57.2-16.2L45.5,35v2.3
		c0,40.2,12.4,64.1,22.8,77.2c13.2,16.3,27.5,22.2,36.6,22.2C113.9,136.6,128.2,130.8,141.4,114.4z M104.8,130.6
		c-6.3,0-20.1-5.4-31.9-19.9C63.5,98.9,52.1,77,51.5,40.1v-0.6l53.3-15.1h0.2l53.1,15.1v0.6c-0.5,36.9-12,58.8-21.4,70.6
		C124.9,125.3,111.2,130.6,104.8,130.6z"/>
	<path fill="#FFFFFF" d="M104.8,25.9L53,40.6c0.7,36.2,11.8,57.6,21.1,69.1c11.3,14.1,24.8,19.4,30.7,19.4c5.8,0,19.3-5.3,30.7-19.4
		c9.2-11.6,20.4-32.9,21.1-69.1L104.8,25.9z M136.9,87.6c0.2,0.5,0.1,1.1-0.2,1.5c-0.3,0.5-0.8,0.7-1.3,0.7h-3.9
		c-0.6,0-1.1-0.2-1.4-0.7c-0.3-0.4-0.4-1-0.2-1.5l1.4-3.9c-1.1-0.8-1.7-2-1.7-3.3c0-1.5,0.8-2.8,2-3.5V65.5l-25.4,6.4
		c-0.2,0.1-0.3,0.1-0.5,0.1v0.4c3.5-0.5,13.4-3.1,19.6-4.9l0.9-0.2v10c0,1.4-0.8,2.7-2.2,3.8c-1.1,0.9-2.7,1.7-4.6,2.3
		c-3.6,1.2-8.4,1.9-13.6,1.9v35.6c0,0.4-0.3,0.8-0.8,0.8c-0.4,0-0.8-0.4-0.8-0.8V85.3c-5.1,0-9.9-0.8-13.5-1.9
		c-2-0.6-3.5-1.4-4.7-2.3c-1.4-1.1-2.2-2.4-2.2-3.8V67.2l0.8,0.2c4.5,1.3,16.2,4.6,19.6,5.1V72c-0.3,0-0.6-0.1-0.8-0.1
		c-6.1-1.6-12.2-3.1-18.3-4.9c-3.8-1-7.6-2.2-11.5-3.4c-0.7-0.2-1.2-0.9-1.2-1.6s0.5-1.4,1.2-1.6l1.3-0.4c1.1-0.3,2.1-0.6,3.2-0.9
		l5-1.3c6.3-1.6,12.8-3.3,19.2-4.9c0.7-0.2,1.2-0.2,1.9-0.3V33.8c0-0.4,0.3-0.8,0.8-0.8c0.4,0,0.8,0.4,0.8,0.8v18.7
		c0.5,0.1,0.9,0.1,1.4,0.2c8.6,2.1,18.9,4.9,29.2,8.2c0.7,0.2,1.2,0.9,1.1,1.6c0,0.8-0.6,1.4-1.2,1.6l-1.3,0.4v11.9
		c1.4,0.6,2.4,2.1,2.4,3.8c0,1.3-0.6,2.5-1.7,3.3L136.9,87.6z"/>
	<path fill="#FFFFFF" d="M106,0v16.9l56.5,15.9l3.3,0.9v3.4c0,40.7-12.6,64.9-23.2,78.1c-12.8,15.9-27.2,22.3-36.6,22.9V162h104V0
		L106.3,0.1L106,0z"/>
</g>
</svg>
