<?xml version="1.0" encoding="utf-8"?>
<!-- Generator: Adobe Illustrator 19.1.0, SVG Export Plug-In . SVG Version: 6.00 Build 0)  -->
<svg version="1.1" id="Calque_1" xmlns="http://www.w3.org/2000/svg" xmlns:xlink="http://www.w3.org/1999/xlink" x="0px" y="0px"
	 width="210px" height="162px" viewBox="-192 339.6 210 162" style="enable-background:new -192 339.6 210 162;"
	 xml:space="preserve">
<style type="text/css">
	.st0{fill:#FFFFFF;}
</style>
<g>
	<path class="st0" d="M-87.7,413.5c-0.1,0-0.2,0-0.2,0c-2.8-0.4-11.5-2.8-19-4.9v8.4c0,1.2,0.9,2.2,1.6,2.8c1.1,0.8,2.5,1.5,4.2,2.1
		c3.5,1.1,8.2,1.8,13.2,1.9c0.2,0,0.5,0,0.8,0s0.5,0,0.8,0c5,0,9.6-0.7,13.2-1.9c1.9-0.6,3.2-1.3,4.2-2.1c0.8-0.6,1.6-1.5,1.6-2.8
		v-8.2c-3.5,1-14.9,4.2-19,4.7C-86.9,413.5-87.4,413.5-87.7,413.5z"/>
	<path class="st0" d="M-56.1,420c0-1.2-0.8-2.3-1.9-2.6l-0.5-0.2v-13.9l2.3-0.6c0.2-0.1,0.2-0.2,0.3-0.4c0-0.1-0.1-0.3-0.2-0.4
		c-10.2-3.4-20.5-6.1-29.1-8.2c-0.3-0.1-0.7-0.2-1.1-0.2c-0.2,0-0.5,0-0.7,0h-0.1c-0.1,0-0.1,0-0.2,0s-0.3,0-0.5,0
		c-0.5,0.1-1,0.2-1.5,0.2c-6.4,1.6-12.9,3.2-19.2,4.9l-5,1.3c-1,0.2-2.1,0.6-3.1,0.9l-1.3,0.4c-0.1,0-0.2,0.2-0.2,0.4
		s0.1,0.3,0.2,0.4c3.8,1.2,7.7,2.3,11.4,3.4c6.2,1.7,12.2,3.2,18.2,4.9c0.2,0,0.3,0.1,0.5,0.1c0.5,0.1,1,0.1,1.5-0.1
		c0.1,0,0.1,0,0.2,0l27-6.9v13.8l-0.4,0.1c-1,0.5-1.6,1.4-1.6,2.5c0,1,0.6,2,1.5,2.5l0.5,0.2l-1.8,4.9c0,0.1,0,0.2,0.1,0.4
		c0,0.1,0.2,0.1,0.3,0.1h4c0.1,0,0.2,0,0.3-0.1s0.1-0.2,0.1-0.3l-1.7-4.9l0.5-0.2C-56.6,422-56.1,421.1-56.1,420z"/>
	<path class="st0" d="M-124.9,454.9c-10.6-13.1-23.2-37.4-23.2-78.1v-3.4l3.3-0.9l56.5-16v-16.7H-192v161.8h103.7v-23.9
		C-97.8,477.2-111.9,471.1-124.9,454.9z"/>
	<path class="st0" d="M-50.6,454c10.4-13,22.9-36.9,22.9-77.2v-2.3l-2.2-0.6l-57.2-16.2l-59.4,16.9v2.3c0,40.2,12.4,64.1,22.8,77.2
		c13.2,16.3,27.5,22.2,36.6,22.2C-78.1,476.2-63.8,470.4-50.6,454z M-87.2,470.2c-6.3,0-20.1-5.4-31.9-19.9
		c-9.4-11.8-20.8-33.7-21.4-70.6v-0.6l53.3-15.1h0.2l53.1,15.1v0.6c-0.5,36.9-12,58.8-21.4,70.6C-67.1,464.9-80.8,470.2-87.2,470.2z
		"/>
	<path class="st0" d="M-87.2,365.5l-51.8,14.7c0.7,36.2,11.8,57.6,21.1,69.1c11.3,14.1,24.8,19.4,30.7,19.4
		c5.8,0,19.3-5.3,30.7-19.4c9.2-11.6,20.4-32.9,21.1-69.1L-87.2,365.5z M-55.1,427.2c0.2,0.5,0.1,1.1-0.2,1.5
		c-0.3,0.5-0.8,0.7-1.3,0.7h-3.9c-0.6,0-1.1-0.2-1.4-0.7c-0.3-0.4-0.4-1-0.2-1.5l1.4-3.9c-1.1-0.8-1.7-2-1.7-3.3
		c0-1.5,0.8-2.8,2-3.5v-11.4l-25.4,6.4c-0.2,0.1-0.3,0.1-0.5,0.1v0.4c3.5-0.5,13.4-3.1,19.6-4.9l0.9-0.2v10c0,1.4-0.8,2.7-2.2,3.8
		c-1.1,0.9-2.7,1.7-4.6,2.3c-3.6,1.2-8.4,1.9-13.6,1.9v35.6c0,0.4-0.3,0.8-0.8,0.8c-0.4,0-0.8-0.4-0.8-0.8v-35.6
		c-5.1,0-9.9-0.8-13.5-1.9c-2-0.6-3.5-1.4-4.7-2.3c-1.4-1.1-2.2-2.4-2.2-3.8v-10.1l0.8,0.2c4.5,1.3,16.2,4.6,19.6,5.1v-0.5
		c-0.3,0-0.6-0.1-0.8-0.1c-6.1-1.6-12.2-3.1-18.3-4.9c-3.8-1-7.6-2.2-11.5-3.4c-0.7-0.2-1.2-0.9-1.2-1.6c0-0.7,0.5-1.4,1.2-1.6
		l1.3-0.4c1.1-0.3,2.1-0.6,3.2-0.9l5-1.3c6.3-1.6,12.8-3.3,19.2-4.9c0.7-0.2,1.2-0.2,1.9-0.3v-18.8c0-0.4,0.3-0.8,0.8-0.8
		c0.4,0,0.8,0.4,0.8,0.8v18.7c0.5,0.1,0.9,0.1,1.4,0.2c8.6,2.1,18.9,4.9,29.2,8.2c0.7,0.2,1.2,0.9,1.1,1.6c0,0.8-0.6,1.4-1.2,1.6
		l-1.3,0.4v11.9c1.4,0.6,2.4,2.1,2.4,3.8c0,1.3-0.6,2.5-1.7,3.3L-55.1,427.2z"/>
	<path class="st0" d="M-85.7,339.7v16.8l56.2,15.9l3.3,0.9v3.4c0,40.7-12.6,64.9-23.2,78.1c-12.8,15.9-26.8,22.1-36.2,22.7v23.9H18
		V339.6L-85.7,339.7L-85.7,339.7z"/>
</g>
</svg>
