<?xml version="1.0" encoding="utf-8"?>
<!-- Generator: Adobe Illustrator 17.1.0, SVG Export Plug-In . SVG Version: 6.00 Build 0)  -->
<!DOCTYPE svg PUBLIC "-//W3C//DTD SVG 1.1//EN" "http://www.w3.org/Graphics/SVG/1.1/DTD/svg11.dtd">
<svg version="1.1" id="Calque_1" xmlns="http://www.w3.org/2000/svg" xmlns:xlink="http://www.w3.org/1999/xlink" x="0px" y="0px"
	 width="210px" height="162px" viewBox="0 0 210 162" enable-background="new 0 0 210 162" xml:space="preserve">
<g>
	<path fill="#FFFFFF" d="M101,133.2c-3,1.4-6.2,2.8-9.4,3.8c-2.4,0.7-4.8,1.1-7.4,1.1c-1.2,0-2.5-0.1-3.8-0.2
		c-3.9-0.4-7.4-1.3-10.8-2.7c-2.8-1.1-6.1-2.8-7.6-6.9c-0.4-1-0.6-1.9-0.6-3c0-8.6,0-17.2,0-25.8c0-16.9,0.1-34.4,0-51.6
		c0-5.6,3.7-7.9,6.5-9.2c1.8-0.8,3.7-1.6,5.5-2.3c1.3-0.5,2.6-1.1,3.9-1.7c1.7-0.7,3.3-1.4,5-2.1c2.9-1.2,5.6-2.3,8.4-3.6
		c3-1.3,6.1-2.8,9.1-4c1.3-0.6,2.5-1.1,3.8-1.7h0.4V0H0v162h104v-30C103.1,132.4,101.9,132.9,101,133.2z"/>
	<path fill="#FFFFFF" d="M118.6,105.3c11-12.7,20.3-30.6,16.8-40.5c-0.5-1.5-1.6-3.4-4-3.8c-8.1-1.9-12.2,11.2-12.3,11.3
		c-0.1,0.3-0.4,0.5-0.7,0.5s-0.6-0.1-0.7-0.4c-1.3-2.9-3.4-4.4-5.8-4.4c-0.4,0-0.9,0.1-1.4,0.2c-4.8,1.1-9.8,7.7-9.8,16.8
		C100.8,98.3,115.8,104.3,118.6,105.3z"/>
	<path fill="#FFFFFF" d="M106,0.1v22.1c2.2-1,4.9-2,7.2-2.9c0.9-0.4,1.8-0.8,2.8-1.2c1.2-0.5,2.4-1.1,3.6-1.5
		c1.3-0.4,2.7-0.2,3.8,0.6c1.1,0.8,1.7,2,1.7,3.2v9.5c0,0.3-0.2,0.6-0.5,0.7s-0.6,0.1-0.8-0.2l-3.5-3.5C116,28.7,83.4,42.3,77,45.2
		c-1.8,0.9-3.7,1.7-5.5,2.5c2.4,1.4,5,2.2,8.3,2.7s6.8,0.1,10.3-1.1c1.4-0.5,2.8-1.1,4.2-1.8c0.9-0.4,1.9-0.9,2.8-1.3
		c4.7-1.9,9.3-3.9,13.8-5.8c1.5-0.6,3-1.3,4.5-2s3.1-1.4,4.6-2c2.7-1.1,5.4-2.2,8-3.3c2-0.9,4-1.7,6.1-2.6c2.1-0.8,4.1-1.7,6.2-2.7
		c0.6-0.3,1.3-0.6,1.9-0.9c1.3-0.6,2.7-0.5,3.9,0.2s2.1,2,2.3,3.6v0.1v0.7c0,25.6,0,52.2,0.4,77.8c0,2.1-1.2,3.9-3.2,4.7
		c-3.7,1.5-7.5,3.2-11.2,4.8c-5.4,2.3-10.7,4.6-15.8,6.7c-1.4,0.6-2.7,1.2-4.1,1.8c-2.4,1.1-5,2.2-7.5,3.3c-0.2,0.1-0.8,0.2-1,0.3
		V162h104V0L106.4,0.1L106,0.1z"/>
	<path fill="#FFFFFF" d="M69.6,46.8c2.3-0.9,4.7-1.9,6.9-3c6.9-3,43.4-18.3,43.8-18.5c0.3-0.1,0.6-0.1,0.8,0.2l2.6,2.6v-7.7
		c0-0.8-0.4-1.5-1.1-2c-0.5-0.4-1.1-0.6-1.7-0.6c-0.3,0-0.5,0-0.8,0.1c-1.2,0.4-2.3,1-3.5,1.5c-0.9,0.4-1.9,0.9-2.8,1.2
		c-3.2,1.3-6.4,2.7-9.5,4.1c-1.3,0.6-2.6,1.1-3.9,1.7c-3.1,1.2-6.1,2.6-9.1,4c-2.8,1.2-5.7,2.4-8.4,3.6c-1.6,0.7-3.3,1.4-5,2.1
		c-1.3,0.6-2.6,1.1-3.9,1.7c-1.9,0.8-3.7,1.5-5.4,2.3C64.7,41.9,63,44.3,63,48c0.1,17.2,0.1,34.7,0,51.6c0,8.6,0,17.2,0,25.8
		c0,0.9,0.1,1.6,0.5,2.5c1,2.8,3.1,4.6,6.8,6.1c3.3,1.3,6.7,2.2,10.4,2.6c4,0.4,7.4,0.2,10.6-0.8s6.1-2.3,9.2-3.7c2-0.9,4-1.8,6-2.6
		c2.5-1.1,5-2.2,7.4-3.3c1.3-0.6,2.7-1.2,4-1.8h0.1c5.1-2.2,10.4-4.4,15.8-6.7c3.7-1.6,7.5-3.3,11.2-4.8c1.4-0.6,2.3-1.9,2.3-3.3
		c-0.4-25.6-0.4-52.1-0.4-77.8v-0.6c-0.2-1.1-0.7-2-1.5-2.4c-0.7-0.4-1.6-0.5-2.5-0.1c-0.6,0.3-1.3,0.6-1.9,0.9
		c-2.1,1-4.1,1.9-6.2,2.7c-2,0.8-4,1.7-6.1,2.6c-2.6,1.1-5.3,2.3-8,3.4c-1.5,0.6-3,1.3-4.5,2s-3,1.4-4.6,2
		c-4.5,1.9-9.1,3.9-13.8,5.8c-0.9,0.4-1.9,0.8-2.8,1.2c-1.4,0.6-2.8,1.3-4.3,1.8c-3.7,1.3-7.4,1.7-11,1.2c-4-0.6-7.1-1.8-10.1-3.7
		c-0.2-0.2-0.4-0.4-0.3-0.7C69.1,47.2,69.3,47,69.6,46.8z M110.3,66.7c3.2-0.7,6.1,0.6,8,3.5c1.5-3.7,5.8-12.5,13.4-10.8
		c2.4,0.4,4.1,2.1,5.1,4.8c2.7,7.8-1.6,24.3-17.4,42.4c-0.1,0.2-0.4,0.3-0.6,0.3c-0.1,0-0.1,0-0.2,0c-0.2-0.1-19.3-6.1-19.3-21.9
		C99.3,74.7,105,67.9,110.3,66.7z"/>
</g>
</svg>
