<?xml version="1.0" encoding="utf-8"?>
<!-- Generator: Adobe Illustrator 17.1.0, SVG Export Plug-In . SVG Version: 6.00 Build 0)  -->
<!DOCTYPE svg PUBLIC "-//W3C//DTD SVG 1.1//EN" "http://www.w3.org/Graphics/SVG/1.1/DTD/svg11.dtd">
<svg version="1.1" id="Calque_1" xmlns="http://www.w3.org/2000/svg" xmlns:xlink="http://www.w3.org/1999/xlink" x="0px" y="0px"
	 width="210px" height="162px" viewBox="0 0 210 162" enable-background="new 0 0 210 162" xml:space="preserve">
<g id="APP_DESIGN">
</g>
<g id="ECOMMERCE">
</g>
<g id="WORDPRESS">
</g>
<g>
	<path fill="#FFFFFF" d="M104,140.4H89.2v3.6c0,0.5-0.4,0.8-0.8,0.8s-0.8-0.4-0.8-0.8v-32.8H62.8c-15.1,0-26.9-11.7-26.9-26.7
		c0-12.6,8.6-23.7,20.5-26.7c-0.2-1.2-0.4-2.4-0.4-3.7c0-10.5,8.8-19,19.6-19c3.9,0,7.6,1.1,10.8,3.1c3.8-7.5,10.1-13.3,17.6-16.6V0
		H0v162h104V140.4z"/>
	<rect x="89.2" y="114.4" fill="#FFFFFF" width="28.3" height="11.3"/>
	<rect x="89.2" y="127.4" fill="#FFFFFF" width="28.3" height="11.3"/>
	<path fill="#FFFFFF" d="M118.5,20.3c-13.2,0-25.3,7.7-30.9,19.6c-0.1,0.2-0.3,0.4-0.6,0.5c-0.2,0.1-0.5,0-0.7-0.1
		c-3.1-2.2-6.8-3.4-10.6-3.4c-9.9,0-17.9,7.7-17.9,17.3c0,1.4,0.2,2.8,0.5,4.1c0.1,0.2,0,0.5-0.1,0.7s-0.3,0.3-0.5,0.4
		c-11.6,2.5-20,13.1-20,25.2c0,14,11.1,25,25.2,25h24.8V73.2c0-0.5,0.4-0.8,0.8-0.8s0.8,0.4,0.8,0.8v13.6h28.3V73.2
		c0-0.5,0.4-0.8,0.8-0.8s0.8,0.4,0.8,0.8v36.4h28.9c13.5,0,24.1-11.5,24.1-26.3c0-12.6-8-23.7-18.9-26.4c-0.4-0.1-0.7-0.5-0.6-0.9
		c0-0.5,0-1,0-1.5C152.7,35.6,137.3,20.3,118.5,20.3z"/>
	<rect x="89.2" y="101.4" fill="#FFFFFF" width="28.3" height="11.3"/>
	<path fill="#FFFFFF" d="M106,0v20.8c3.9-1.5,8.2-2.2,12.5-2.2c19.8,0,35.9,16.1,35.9,35.9c0,0.3,0,0.6,0,0.9
		c11.4,3.1,19.6,14.7,19.6,27.8c0,15.7-11.3,28-25.8,28h-28.9V144c0,0.5-0.4,0.8-0.8,0.8s-0.8-0.4-0.8-0.8v-3.6H106V162h104V0H106
		L106,0z"/>
	<rect x="89.2" y="88.4" fill="#FFFFFF" width="28.3" height="11.3"/>
</g>
</svg>
