<?xml version="1.0" encoding="utf-8"?>
<!-- Generator: Adobe Illustrator 17.1.0, SVG Export Plug-In . SVG Version: 6.00 Build 0)  -->
<!DOCTYPE svg PUBLIC "-//W3C//DTD SVG 1.1//EN" "http://www.w3.org/Graphics/SVG/1.1/DTD/svg11.dtd">
<svg version="1.1" id="Calque_1" xmlns="http://www.w3.org/2000/svg" xmlns:xlink="http://www.w3.org/1999/xlink" x="0px" y="0px"
	 width="210px" height="162px" viewBox="0 0 210 162" enable-background="new 0 0 210 162" xml:space="preserve">
<g id="APP_DESIGN">
</g>
<g id="ECOMMERCE">
</g>
<g id="WORDPRESS">
</g>
<g>
	<path fill="#FFFFFF" d="M114.1,69.7c0.2-1.7,0.2-3.4,0-5.1v-0.2l6.5-3.4c-0.3-1.3-0.7-2.4-1.1-3.5c-0.5-1.2-1.1-2.4-1.7-3.3l-7,2.2
		l-0.1-0.2c-1.2-1.5-2.4-2.7-3.6-3.7l-0.2-0.1l2.2-7c-2.1-1.3-4.4-2.2-6.8-2.8L99,49.1h-0.2c-0.9-0.1-1.8-0.2-2.6-0.2
		c-0.9,0-1.8,0.1-2.6,0.2h-0.2L90,42.6c-1.1,0.3-2.3,0.7-3.5,1.1c-1.2,0.5-2.4,1.1-3.3,1.7l2.2,7l-0.2,0.1c-1.5,1.2-2.7,2.4-3.7,3.6
		l-0.1,0.2l-7-2.2c-1.3,2.1-2.2,4.4-2.8,6.8l6.5,3.4v0.2c-0.2,1.7-0.2,3.4,0,5.1v0.2l-6.5,3.4c0.3,1.3,0.7,2.4,1.1,3.5
		c0.5,1.2,1.1,2.4,1.7,3.3l7-2.2l0.1,0.2c1.2,1.5,2.4,2.7,3.6,3.7l0.2,0.1l-2.2,7c2.1,1.3,4.4,2.2,6.8,2.8l3.3-6.5h0.2
		c0.9,0.1,1.8,0.2,2.6,0.2c0.9,0,1.8-0.1,2.6-0.2h0.2l3.4,6.5c1.3-0.3,2.4-0.7,3.5-1.1c1.2-0.5,2.4-1.1,3.3-1.7l-2.2-7l0.2-0.1
		c1.5-1.2,2.7-2.4,3.6-3.6l0.1-0.2l7,2.2c1.3-2.1,2.2-4.4,2.8-6.8l-6.5-3.4L114.1,69.7z M99,74.7c-0.9,0.4-2,0.6-3.1,0.6
		c-3.3,0-6.3-2-7.5-5.1c-0.8-2-0.8-4.2,0-6.2s2.4-3.6,4.4-4.4c0.9-0.4,2-0.6,3.1-0.6c3.3,0,6.2,2,7.5,5C105.2,68.2,103.1,73,99,74.7
		z"/>
	<path fill="#FFFFFF" d="M104,144.8V143h2h18.2c0-4.3-0.1-22.5-0.1-26c0-1-0.2-1.7-0.7-2.1c-0.7-0.7-1.9-0.6-1.9-0.6
		c-0.1,0-4.1,0.5-10.6-1.2c-4.9-1.2-7.9-4.8-9.2-6.8c-1.4,1.8-4.8,4.8-12.1,4.6c-8.5-0.2-13.1-5.4-14.6-7.3
		c-17.5,8.7-31.4-3.7-31.6-3.8c-0.4-0.4-10-9.9-8.1-28.5C37,54.8,49.6,49.6,52.7,48.5c0-2.5,0.4-8,6.7-13.7c6.4-5.8,16-4.9,18.5-4.5
		c1.1-1.6,4.9-6.3,11.3-9.1c4.8-2.1,10.8-0.9,14.8,0.3V0H0v162h104V144.8L104,144.8L104,144.8z"/>
	<path fill="#FFFFFF" d="M95.8,62c-0.7,0-1.3,0.1-1.9,0.4c-1.3,0.5-2.2,1.5-2.8,2.8c-0.5,1.3-0.5,2.6,0,3.9c0.8,1.9,2.7,3.2,4.8,3.2
		c0.7,0,1.3-0.1,1.9-0.3c2.6-1.1,3.8-4.2,2.8-6.7C99.8,63.3,97.9,62,95.8,62z"/>
	<path fill="#FFFFFF" d="M138.1,69.3c-0.4,0-0.8,0.1-1.2,0.3c-0.8,0.4-1.4,1-1.7,1.8s-0.3,1.7,0.1,2.5c0.6,1.2,1.8,1.9,3.1,1.9
		c0.4,0,0.8-0.1,1.2-0.3c1.6-0.8,2.3-2.7,1.6-4.3C140.6,70,139.4,69.3,138.1,69.3z"/>
	<path fill="#FFFFFF" d="M177.5,50.7c-3.8-7.3-13.1-9.8-13.2-9.8c-0.3-0.1-0.5-0.3-0.6-0.6c0-0.1-3.3-8.2-11.6-12.3
		s-16.4-1.7-16.5-1.6c-0.3,0.1-0.7,0-1-0.3c0-0.1-5-5.6-11.7-5.7c-0.1,0-0.2,0-0.3,0c-6.8,0-14.1,4.2-14.2,4.3
		c-0.3,0.2-0.6,0.2-0.9,0c-0.1-0.1-10.8-5.1-17.7-2c-7.1,3.1-10.8,8.9-10.9,9c-0.2,0.3-0.6,0.5-1,0.4c-0.1,0-10.9-2-17.5,3.9
		c-6.1,5.6-6.1,10.7-6.1,12.9v0.2c0,0.4-0.3,0.8-0.7,0.9c0,0-3.8,1-7.7,4.1c-5.2,4.1-8.2,10-9,17.3c-1.8,17.7,7.4,26.9,7.5,27
		c0.5,0.5,13.5,11.9,30.2,3.1c0.4-0.2,1-0.1,1.2,0.3c0.2,0.3,4.4,6.9,13.6,7.1c9,0.3,11.2-4.6,11.2-4.8c0.1-0.3,0.5-0.6,0.8-0.6
		s0.7,0.2,0.9,0.5c0,0.1,2.9,5.7,8.9,7.2c6.2,1.6,9.9,1.1,10,1.1s2-0.2,3.3,1c0.9,0.8,1.4,2,1.4,3.5c0,3.5,0.1,21.7,0.1,26h2.6h8.6
		v-19.9c0-0.2-0.3-7,4-12.4c2.9-3.6,6.9-5.1,10.2-6.4c1.7-0.6,3.1-1.2,4.1-1.9c2.7-1.9,4.4-4.3,4.7-6.3c0.1-0.5,0.5-0.9,1-0.8
		c0.5,0.1,0.9,0.5,0.8,1c-0.3,2.6-2.2,5.3-5.4,7.6c-1.2,0.8-2.7,1.4-4.5,2.1c-3.2,1.2-6.9,2.6-9.4,5.8c-3.9,4.8-3.6,11.1-3.6,11.2
		v20h11c0.2-3.1,1.3-13.7,6.2-20.4c3.3-4.6,7.4-5.9,10.7-7c2.5-0.8,4.6-1.5,5.9-3.4c3.5-5.1,4.9-9.3,4.1-13.1
		c-0.1-0.3,0-0.6,0.2-0.8c0.1-0.1,5.9-7.2,6.2-12.9c0.3-5.8-2.1-13.1-4.6-17.1c-0.1-0.2-0.2-0.5-0.1-0.7
		C178.8,67.4,181.3,58,177.5,50.7z M154.7,75.8c-0.3,1.7-0.9,3.3-1.8,4.9c-0.2,0.4-0.7,0.7-1.2,0.7c-0.1,0-0.3,0-0.4-0.1l-3.3-0.9
		c-0.3,0.4-0.7,0.8-1,1.1l1,3.2c0.2,0.6,0,1.3-0.5,1.7c-0.7,0.5-1.5,0.9-2.3,1.3c-0.8,0.4-1.6,0.7-2.4,0.9c-0.1,0-0.2,0-0.3,0.1
		c-0.5,0-1-0.2-1.3-0.7l-1.7-2.9c-0.3,0-0.5,0.1-0.7,0.1c-0.3,0-0.5,0-0.8,0l-1.4,3.1c-0.2,0.5-0.7,0.8-1.2,0.8c-0.1,0-0.2,0-0.3,0
		c-1.7-0.3-3.3-0.9-4.9-1.8c-0.6-0.3-0.9-1-0.7-1.6l0.9-3.3c-0.4-0.3-0.8-0.7-1.1-1l-3.2,1.2c-0.1,0-0.3,0.1-0.4,0.1
		c-0.5,0-1-0.2-1.3-0.6c-0.5-0.7-0.9-1.5-1.3-2.3c-0.3-0.6-0.5-1.3-0.7-1.9c-0.6,1.5-1.3,2.9-2.1,4.2c-0.5,0.8-1.4,1.3-2.3,1.3
		c-0.3,0-0.5-0.1-0.8-0.1l-5.2-1.6c-0.5,0.6-1,1-1.5,1.5l1.5,5.2c0.4,1.2-0.1,2.4-1.2,3.1c-1.2,0.7-2.5,1.4-3.9,2
		c-1.2,0.5-2.5,0.9-4.2,1.3c-0.2,0.1-0.4,0.1-0.6,0.1c-1,0-1.9-0.6-2.4-1.4l-2.5-4.9c-0.6,0.1-1.1,0-1.7,0c-0.1,0-0.3,0-0.4,0
		l-2.5,4.9c-0.5,0.9-1.4,1.4-2.4,1.4c-0.2,0-0.4,0-0.6-0.1c-2.7-0.7-5.5-1.8-8.1-3.4c-1.1-0.6-1.6-2-1.2-3.1l1.6-5.2
		c-0.6-0.5-1-1-1.5-1.5l-5.2,1.6c-0.3,0.1-0.5,0.1-0.8,0.1c-1,0-1.9-0.5-2.3-1.3c-0.7-1.1-1.4-2.5-2-3.9c-0.5-1.2-0.9-2.5-1.3-4.2
		c-0.3-1.2,0.2-2.4,1.4-3.1l4.9-2.5c0-0.7,0-1.4,0-2.1l-4.9-2.5c-1.1-0.6-1.6-1.8-1.4-3.1c0.8-3,1.9-5.8,3.4-8.2
		c0.5-0.8,1.4-1.3,2.3-1.3c0.3,0,0.5,0.1,0.8,0.1l5.2,1.6c0.5-0.6,1-1.1,1.6-1.5l-1.6-5.2c-0.4-1.2,0.1-2.5,1.2-3.1
		c1.2-0.8,2.5-1.4,3.9-2c1.2-0.5,2.5-0.9,4.2-1.3c0.2-0.1,0.4-0.1,0.6-0.1c1.1,0,2,0.6,2.4,1.5l2.5,4.8c0.6-0.1,1.1,0,1.7,0
		c0.1,0,0.3,0,0.4,0L100,41c0.5-0.9,1.4-1.4,2.4-1.4c0.2,0,0.4,0,0.6,0.1c3,0.8,5.7,1.9,8.1,3.4c1.1,0.6,1.6,2,1.2,3.1l-1.6,5.2
		c0.5,0.5,1,1,1.5,1.5l5.2-1.6c0.3-0.1,0.5-0.1,0.8-0.1c1,0,1.9,0.5,2.3,1.3c0.7,1.1,1.4,2.5,2,3.9c0.5,1.2,0.9,2.5,1.3,4.2
		c0.3,1.2-0.2,2.4-1.4,3.1l-4.9,2.5c0,0.7,0,1.4,0,2.1l4.9,2.6c1.1,0.6,1.6,1.8,1.4,3.1c-0.1,0.5-0.3,1-0.4,1.5L126,74
		c-0.1-0.5-0.1-1-0.1-1.5l-3.1-1.4c-0.6-0.3-0.9-0.9-0.8-1.6c0.4-1.7,0.9-3.4,1.8-4.9c0.2-0.4,0.7-0.7,1.2-0.7c0.1,0,0.3,0,0.4,0.1
		l3.3,0.9c0.3-0.4,0.7-0.8,1-1.1l-1.2-3.2c-0.2-0.6,0-1.3,0.5-1.7c0.7-0.5,1.5-0.9,2.3-1.3c0.8-0.4,1.6-0.7,2.4-0.9
		c0.1,0,0.2,0,0.3-0.1c0.5,0,1.1,0.2,1.3,0.7l1.7,2.9c0.3,0,0.5-0.1,0.7-0.1c0.3,0,0.5,0,0.8,0L140,57c0.2-0.5,0.7-0.8,1.2-0.8
		c0.1,0,0.2,0,0.3,0c1.7,0.4,3.4,0.9,4.9,1.8c0.6,0.3,0.9,1,0.7,1.6l-0.9,3.3c0.4,0.3,0.8,0.7,1.1,1l3.2-1.1c0.1,0,0.3-0.1,0.4-0.1
		c0.5,0,1,0.2,1.3,0.6c0.5,0.7,0.9,1.5,1.3,2.3c0.4,0.8,0.7,1.6,0.9,2.4c0.2,0.6-0.1,1.3-0.7,1.7l-2.9,1.7c0.1,0.5,0.1,1,0.1,1.5
		l3.1,1.5C154.5,74.5,154.8,75.2,154.7,75.8z"/>
	<path fill="#FFFFFF" d="M149.2,70.5l3.8-2.2c-0.2-0.8-0.5-1.5-0.8-2.2c-0.4-0.7-0.8-1.5-1.2-2.1l-4.1,1.5c-0.7-0.8-1.4-1.5-2.3-2.1
		l1.1-4.2c-1.4-0.8-2.9-1.3-4.5-1.6l-1.8,4c-0.5,0-1.1-0.1-1.6,0c-0.5,0-1.1,0.1-1.6,0.2L134,58c-0.8,0.2-1.5,0.5-2.2,0.8
		c-0.7,0.4-1.5,0.8-2.1,1.2l1.5,4.1c-0.8,0.7-1.5,1.4-2.1,2.3l-4.2-1.1c-0.8,1.4-1.3,2.9-1.6,4.5l4,1.9c-0.1,1-0.1,2.1,0.1,3.1
		l-3.8,2.2c0.2,0.8,0.5,1.5,0.8,2.2s0.8,1.5,1.2,2.1l4.1-1.5c0.7,0.8,1.4,1.5,2.3,2.1l-1.1,4.2c1.4,0.8,2.9,1.3,4.5,1.6l1.8-4
		c0.5,0,1.1,0.1,1.6,0c0.5,0,1.1-0.1,1.6-0.2l2.2,3.8c0.8-0.2,1.5-0.5,2.2-0.8c0.7-0.4,1.5-0.8,2.1-1.2l-1.5-4.1
		c0.8-0.7,1.5-1.4,2.1-2.3l4.2,1.1c0.8-1.4,1.3-2.9,1.6-4.5l-4-1.9C149.4,72.6,149.3,71.6,149.2,70.5z M140.2,76.8
		c-0.6,0.3-1.2,0.4-1.8,0.4c-1.9,0.1-3.6-0.9-4.4-2.7c-1.1-2.4-0.1-5.2,2.3-6.2c0.6-0.3,1.2-0.4,1.8-0.4c1.8-0.1,3.6,0.9,4.4,2.7
		C143.6,72.9,142.5,75.7,140.2,76.8z"/>
	<path fill="#FFFFFF" d="M106,0v22.1c0.8,0.3,1.6,0.6,2,0.8c1.8-1,8.5-4.4,15-4.3c6.4,0.1,11.2,4.5,12.6,5.9
		c2.1-0.5,9.5-1.9,17.2,1.9c7.9,3.9,11.5,11,12.3,12.8c2,0.6,10.3,3.5,14,10.6c3.7,7.2,2,15.7,1.5,17.7c2.6,4.4,5,11.8,4.6,17.9
		c-0.3,5.6-5.1,12.1-6.3,13.6c0.7,4.1-0.8,8.7-4.5,14.1c-1.6,2.3-4.1,3.2-6.8,4.1c-3.2,1.1-6.8,2.3-9.8,6.4
		c-5.3,7.4-5.9,20.2-5.9,20.3c0,0.5-0.4,0.9-0.9,0.9h-25.8l0,0H106V162h104V0H106z"/>
</g>
</svg>
