<?xml version="1.0" encoding="utf-8"?>
<!-- Generator: Adobe Illustrator 17.1.0, SVG Export Plug-In . SVG Version: 6.00 Build 0)  -->
<!DOCTYPE svg PUBLIC "-//W3C//DTD SVG 1.1//EN" "http://www.w3.org/Graphics/SVG/1.1/DTD/svg11.dtd">
<svg version="1.1" id="Calque_1" xmlns="http://www.w3.org/2000/svg" xmlns:xlink="http://www.w3.org/1999/xlink" x="0px" y="0px"
	 width="210px" height="162px" viewBox="0 0 210 162" enable-background="new 0 0 210 162" xml:space="preserve">
<g id="APP_DESIGN">
</g>
<g id="ECOMMERCE">
</g>
<g id="WORDPRESS">
</g>
<g>
	<path fill="#FFFFFF" d="M106.9,64.7l1,1l27-24.7l-19.5-21.3c-1-1.1-3.7-0.7-5,0.5l-0.3,0.3l0,0c-2.6,2.4-23,21-23.2,21.2
		c-1.2,1.1-1.3,2.9-0.2,4.1l10.7,12.9l6.5,7.8l2.2-2l0,0L128.5,44l-18-19.7c0,0,0,0,0-0.1c-0.3-0.5-0.6-2,0.4-3.1l0.3-0.3
		c1.6-1.4,2.6-1.1,3.1-0.8c0.2,0.1,0.2,0.3,0.1,0.5s-0.3,0.2-0.5,0.1c-0.5-0.4-1.4-0.1-2.3,0.7l-0.3,0.3c-0.8,0.8-0.5,1.9-0.3,2.2
		l18.2,19.9c0.1,0.1,0.1,0.2,0.1,0.2c0,0.1,0,0.2-0.1,0.2L106.9,64.7z"/>
	<path fill="#FFFFFF" d="M106,0l0.1,23.3c1.7-1.6,3-2.8,3.6-3.3l0,0l0.3-0.3c1.4-1.3,4.5-2,5.9-0.4l19.7,21.5c0.1,0.1,0.1,0.3,0,0.5
		l-27.5,25.1c-0.1,0.1-0.3,0.1-0.5,0l-1.3-1.2l-2.2,2c-0.1,0.1-0.2,0.1-0.2,0.1c-0.1,0-0.2,0-0.2-0.1l0,0l-6.7-8L86.3,46.3l0,0
		c-1.3-1.4-1.2-3.7,0.2-5c0.1-0.1,10.6-9.7,17.5-16V0H0v162h104v-17.5H60.4c-0.3,0-0.5-0.2-0.5-0.5V73.3c0-0.3,0.2-0.5,0.5-0.5H70
		c-0.1-1-0.4-3.2-2.2-4.3c-1.5-0.9-2.9-2.1-3.8-3.1c-0.4,0.1-0.8,0.2-1.2,0.2c-2.1,0-3.8-1.7-3.8-3.8s1.7-3.8,3.8-3.8
		c2.1,0,3.8,1.7,3.8,3.8c0,1.3-0.7,2.5-1.7,3.1c0.9,0.9,2.1,1.9,3.4,2.7c2.2,1.4,2.6,4,2.7,5.1h1.8v-5.4h62.8v5.5h14.7
		c0.3,0,0.5,0.2,0.5,0.5V144c0,0.3-0.2,0.5-0.5,0.5H106V162h104V0H106.1H106z"/>
	<path fill="#FFFFFF" d="M60.8,73.8v69.7h88.9V73.8H60.8z M85,135.2h41.1v1.6H85V135.2z M104.1,140.9H64.5v-1.6h39.6V140.9z
		 M146.5,140.9h-39.6v-1.6h39.6V140.9z"/>
</g>
</svg>
