<?xml version="1.0" encoding="utf-8"?>
<!-- Generator: Adobe Illustrator 17.1.0, SVG Export Plug-In . SVG Version: 6.00 Build 0)  -->
<!DOCTYPE svg PUBLIC "-//W3C//DTD SVG 1.1//EN" "http://www.w3.org/Graphics/SVG/1.1/DTD/svg11.dtd">
<svg version="1.1" id="Calque_1" xmlns="http://www.w3.org/2000/svg" xmlns:xlink="http://www.w3.org/1999/xlink" x="0px" y="0px"
	 width="210px" height="162px" viewBox="0 0 210 162" enable-background="new 0 0 210 162" xml:space="preserve">
<g id="APP_DESIGN">
</g>
<g id="ECOMMERCE">
</g>
<g id="WORDPRESS">
</g>
<g>
	<path fill="#FFFFFF" d="M117.8,120c-0.2,0.1-0.2,0.2-0.2,0.3l1.7,11.6c0.1,0,0.2,0.1,0.5,0c20.8-2.3,38.6-11.6,50-26.2
		c10.1-12.8,14.5-29.1,12.4-45.9c-4.9-26-25.1-35.1-42.9-32.6c-8.8,1.4-16.6,6.2-21.9,13.3c-5.3,7.2-7.4,16-6,24.8
		c2.3,15.8,15.6,27.6,31.5,28.2h1.3l-0.2,1.6C139.8,111.6,127.8,117.1,117.8,120z"/>
	<path fill="#FFFFFF" d="M106.2,0L106,17.3h39.9h1.1h1.1V25c6.8,0.5,13.3,2.7,18.8,6.4c9,6.1,15,15.8,17.4,28.2
		c2.2,17.4-2.4,34.3-12.8,47.5c-11.8,15-30.1,24.6-51.5,27c-0.2,0-0.4,0-0.5,0c-1.6,0-2.2-1-2.4-1.6l-1.7-11.8
		c-0.1-0.7,0.1-2.2,1.7-2.7c9.8-2.9,20.3-7.8,24.4-22.2c-16.4-1.2-29.8-13.6-32.2-29.9c-1.5-9.4,0.7-18.7,6.4-26.4
		c5.6-7.6,13.8-12.7,23.3-14.2c2.3-0.3,4.6-0.5,6.9-0.4v-5.4H64.5V25c16.2,1.1,32,11.5,36.3,34.7c2.3,17.2-2.1,33.9-12.4,47.2
		c-11.8,15.2-30.2,24.8-51.7,27.3c-0.2,0-0.3,0-0.5,0c-1.6,0-2.2-1-2.4-1.6l-1.9-11.8c-0.1-0.7,0.1-2.2,1.7-2.7
		c9.7-2.8,20-7.6,24.4-22.2C41.6,94.5,28.2,82.1,25.8,66c-2.9-19.3,10.5-37.5,29.8-40.6c2.2-0.3,4.5-0.5,6.7-0.4v-7.6h1.1h1.1H104V0
		H0v162h210V0H106H106.2z"/>
	<path fill="#FFFFFF" d="M34.2,120c-0.2,0.1-0.2,0.2-0.2,0.3l1.9,11.6c0.1,0,0.2,0.1,0.6,0c20.9-2.3,38.8-11.7,50.2-26.5
		c10.1-13,14.3-28.8,12-45.6C94,33.8,73.8,24.7,56,27.2c-18.2,2.9-30.7,20.1-28,38.2l0,0C30.3,81,43.6,92.8,59.5,93.6l1.3,0.1
		L60.5,95C56,111.6,44.7,117,34.2,120z"/>
</g>
</svg>
