<?xml version="1.0" encoding="utf-8"?>
<!-- Generator: Adobe Illustrator 17.1.0, SVG Export Plug-In . SVG Version: 6.00 Build 0)  -->
<!DOCTYPE svg PUBLIC "-//W3C//DTD SVG 1.1//EN" "http://www.w3.org/Graphics/SVG/1.1/DTD/svg11.dtd">
<svg version="1.1" id="Calque_1" xmlns="http://www.w3.org/2000/svg" xmlns:xlink="http://www.w3.org/1999/xlink" x="0px" y="0px"
	 width="210px" height="162px" viewBox="0 0 210 162" enable-background="new 0 0 210 162" xml:space="preserve">
<g id="APP_DESIGN">
</g>
<g id="ECOMMERCE">
</g>
<g id="WORDPRESS">
</g>
<rect x="-158.5" y="1198.4" fill="#232A33" width="5.3" height="63.8"/>
<g>
	<path fill="#FFFFFF" d="M151.8,29.1c1,0.8,2.2,1.2,3.6,1.2c3.3,0,6.1-2.7,6.1-6.1c0-3.3-2.7-6-6.1-6c-3.3,0-6.1,2.7-6.1,6
		c0,1.3,0.5,2.5,1.2,3.5C150.9,28.3,151.2,28.7,151.8,29.1z"/>
	<path fill="#FFFFFF" d="M121.9,62.9c3.3,0,6-2.7,6-6.1c0-1.2-0.4-2.4-1.1-3.3c-0.3-0.5-0.8-0.9-1.2-1.3c-1.1-0.9-2.3-1.4-3.8-1.4
		c-2,0-3.7,1.1-4.8,2.5c-0.3,0.5-0.7,1-0.9,1.6s-0.4,1.2-0.4,1.9C115.8,60.2,118.5,62.9,121.9,62.9z"/>
	<path fill="#FFFFFF" d="M84.4,42.2c1,0.9,2.5,1.6,4,1.6c1.9,0,3.5-0.9,4.6-2.3c0.4-0.5,0.8-1,1-1.6c0.3-0.7,0.4-1.4,0.4-2.2
		c0-3.4-2.7-6.1-6-6.1s-6,2.7-6,6.1c0,1.1,0.4,2.1,0.9,3.1C83.6,41.3,83.9,41.7,84.4,42.2z"/>
	<path fill="#FFFFFF" d="M104,138.3h0.3h-3.7c-0.1,0.1-0.3,0-0.4,0H76.6c-0.2,0-0.3,0.1-0.5,0h-8.9c-0.1,0.1-0.3,0-0.4,0H43.2
		c-0.5,0-0.9-0.6-0.9-1.1V92.3c0-0.5,0.4-0.9,0.9-0.9h23.6c0.5,0,0.9,0.4,0.9,0.9v44.1h8V65.1c0-0.5,0.4-0.9,0.9-0.9h23.6
		c0.5,0,0.9,0.4,0.9,0.9v71.2h8V84.6c0-0.5,0.4-0.9,0.9-0.9h23.6c0.5,0,0.9,0.4,0.9,0.9v51.7h8V51.9c0-0.5,0.4-0.9,0.9-0.9h11.1
		V32.1l0,0c-1.6-0.2-2.9-0.8-4.1-1.7l-22.2,21.9c1,1.3,1.6,2.9,1.6,4.6c0,4.4-3.6,7.9-7.9,7.9c-4.4,0-7.9-3.5-7.9-7.9
		c0-1.1,0.2-2,0.6-2.9L94.7,42.4c-1.4,1.9-3.7,3.1-6.2,3.1c-2.1,0-4-0.9-5.4-2.2L61.7,60.9c0.8,1.2,1.2,2.7,1.2,4.2
		c0,4.4-3.6,7.9-7.8,7.9c-4.4,0-7.9-3.6-7.9-7.9c0-4.1,3.1-7.5,7.1-7.9V16.3c0-0.5,0.3-0.8,0.8-0.8H104V0.1L0,0v162.1h104V138.3z"/>
	<path fill="#FFFFFF" d="M48.9,65.2c0,3.3,2.7,6,6,6c3.4,0,6.1-2.7,6.1-6c0-1.2-0.4-2.2-0.9-3.1c-0.3-0.6-0.7-1-1.1-1.4
		c-1-1-2.4-1.6-4-1.6C51.6,59.1,48.9,61.9,48.9,65.2z"/>
	<rect x="44" y="93.2" fill="#FFFFFF" width="21.8" height="43.1"/>
	<rect x="77.5" y="66.1" fill="#FFFFFF" width="21.8" height="70.2"/>
	<path fill="#FFFFFF" d="M106,0.1v16.3c0,0.5-0.4,0.8-0.9,0.8H55.8v40.2c1.8,0.2,3.4,1,4.7,2.1l21.4-17.6c-0.8-1.2-1.2-2.7-1.2-4.2
		c0-4.3,3.5-7.8,7.8-7.8c4.4,0,7.9,3.5,7.9,7.8c0,1.2-0.2,2.2-0.7,3.2l19.8,11.5c1.4-2,3.8-3.3,6.4-3.3c1.9,0,3.7,0.8,5.1,1.9
		l22.2-21.9c-1.1-1.3-1.7-3-1.7-4.8c0-4.4,3.6-7.9,7.9-7.9c4.3,0,7.8,3.6,7.8,7.9c0,4.1-3.1,7.4-7.1,7.8l0,0V51h11
		c0.5,0,0.9,0.4,0.9,0.9v85.5c0,0.5-0.4,0.9-0.9,0.9h-23.5c-0.2,0-0.4,0.1-0.6,0h-8.8c-0.2,0.1-0.3,0-0.5,0h-23.6
		c-0.2,0-0.3,0.1-0.4,0H106l0,0v23.8h104V0.1H106L106,0.1z"/>
	<rect x="144.4" y="52.8" fill="#FFFFFF" width="21.8" height="83.6"/>
	<rect x="110.9" y="85.6" fill="#FFFFFF" width="21.8" height="50.7"/>
</g>
</svg>
