<?xml version="1.0" encoding="utf-8"?>
<!-- Generator: Adobe Illustrator 17.1.0, SVG Export Plug-In . SVG Version: 6.00 Build 0)  -->
<!DOCTYPE svg PUBLIC "-//W3C//DTD SVG 1.1//EN" "http://www.w3.org/Graphics/SVG/1.1/DTD/svg11.dtd">
<svg version="1.1" id="Calque_1" xmlns="http://www.w3.org/2000/svg" xmlns:xlink="http://www.w3.org/1999/xlink" x="0px" y="0px"
	 width="210px" height="162px" viewBox="0 0 210 162" enable-background="new 0 0 210 162" xml:space="preserve">
<g id="APP_DESIGN">
</g>
<g id="ECOMMERCE">
</g>
<g id="WORDPRESS">
</g>
<g>
	<path fill="#FFFFFF" d="M67.7,125.6c-11-9-17.8-21.3-19.1-34.9c-0.3-3.1-0.3-6.1,0-9.2c0.9-9.9,4.8-19.3,11.3-27.1
		c8-9.8,19.2-15.7,31.5-16.7c11.6-1,23.4,2.7,32.3,10.3c8.6,7.2,13.7,17,14.6,27.8c0.8,10.1-2.6,20.4-9.4,28.1
		c-6.3,7.3-15,11.6-24.3,12.1c-8.8,0.5-17.6-2.5-24.1-8.4c-6.1-5.4-9.6-12.7-9.9-20.7c-0.3-7.3,2.4-14.5,7.5-19.8
		c4.6-4.9,10.7-7.6,17.1-7.6c5.9,0,11.8,2.4,15.8,6.6c3.7,3.8,5.6,8.6,5.4,13.5c-0.1,4.5-2.4,8.9-5.8,11.7c-2.9,2.4-6.4,3.4-10,2.9
		c-3.1-0.4-6.2-2.5-7.7-5.1c-1.2-2-1.3-4.2-0.5-6.3c0.2-0.6,0.8-0.8,1.3-0.6c0.3,0.1,0.5,0.4,0.6,0.6c0,0.2,0.1,0.5,0,0.8
		c-0.5,1-0.8,2.6,0.3,4.5c1.2,2,3.8,3.8,6.2,4.1c3,0.4,5.9-0.4,8.3-2.5c2.9-2.4,4.8-6.2,5-10.2c0.2-5.7-2.5-9.7-4.8-12
		c-3.7-3.8-9-6-14.3-5.9c-5.9,0.1-11.4,2.6-15.7,7c-4.7,4.9-7.2,11.6-7,18.3c0.3,7.4,3.6,14.1,9.2,19.2c6.2,5.6,14.4,8.4,22.6,7.9
		c8.8-0.5,16.9-4.6,22.8-11.5c6.4-7.4,9.6-17,8.9-26.6c-0.8-10.2-5.7-19.5-13.8-26.4c-8.6-7.2-19.8-10.8-30.8-9.8
		c-11.6,1-22.3,6.8-30,16c-8.1,9.8-12,22.4-10.8,34.7c1.3,13,7.8,25,18.3,33.6c11,9,25.2,13.1,39.1,11.7
		c14.6-1.5,27.8-8.9,37.2-20.5c9.8-12,14.4-27.8,12.7-43c-3.1-27.2-25.6-50-53.3-54.1c-0.5-0.1-0.4-0.6-0.4-1.1l0,0V0H0v162h104v-24
		C91,138.3,77.9,133.9,67.7,125.6z"/>
	<path fill="#FFFFFF" d="M106,0v16.2c28,4.8,50.9,28,54.1,55.7c1.8,15.6-3.2,32.3-13.2,44.6c-9.8,12.1-23.5,19.7-38.6,21.3
		c-0.6,0-1.7,0.1-2.3,0.1V162h104V0H106.4H106z"/>
</g>
</svg>
