<?xml version="1.0" encoding="utf-8"?>
<!-- Generator: Adobe Illustrator 17.1.0, SVG Export Plug-In . SVG Version: 6.00 Build 0)  -->
<!DOCTYPE svg PUBLIC "-//W3C//DTD SVG 1.1//EN" "http://www.w3.org/Graphics/SVG/1.1/DTD/svg11.dtd">
<svg version="1.1" id="Calque_1" xmlns="http://www.w3.org/2000/svg" xmlns:xlink="http://www.w3.org/1999/xlink" x="0px" y="0px"
	 width="210px" height="162px" viewBox="0 0 210 162" enable-background="new 0 0 210 162" xml:space="preserve">
<g id="APP_DESIGN">
</g>
<g id="ECOMMERCE">
</g>
<g id="WORDPRESS">
</g>
<g>
	<path fill="#FFFFFF" d="M105.8,43.3l3.9-3.4c0.3-0.3,0.7-0.3,1,0l3.9,3.4V17.9h-8.8V43.3L105.8,43.3z"/>
	<path fill="#FFFFFF" d="M58.2,20.8v113.1c0,1.6,1.3,2.9,2.9,2.9h14.7V17.9H61.2C59.6,17.9,58.2,19.2,58.2,20.8z"/>
	<path fill="#FFFFFF" d="M82.4,17.9v118.8h66.5c1.6,0,2.9-1.3,2.9-2.9v-113c0-1.6-1.3-2.9-2.9-2.9H116v27c0,0.3-0.1,0.6-0.4,0.7
		c-0.2,0.1-0.6,0.1-0.8-0.1l-4.6-4l-4.6,3.9c-0.2,0.2-0.6,0.3-0.8,0.1c-0.2-0.1-0.4-0.4-0.4-0.7V17.9H82.4L82.4,17.9z M114.7,67.6
		c9,0,16.3,7.3,16.5,16.2l3.4-3.4c0.3-0.3,0.8-0.3,1.1,0s0.3,0.8,0,1.1l-4.7,4.7c-0.1,0.2-0.4,0.3-0.6,0.3s-0.4-0.1-0.6-0.3
		l-4.7-4.7c-0.3-0.3-0.3-0.8,0-1.1c0.3-0.3,0.8-0.3,1.1,0l3.4,3.4c-0.2-8.1-6.8-14.6-14.9-14.6c-8.3,0-15,6.7-15,15s6.7,15,15,15
		c3.9,0,7.6-1.5,10.4-4.3c0.3-0.3,0.8-0.3,1.1,0s0.3,0.8,0,1.1c-3.1,3.1-7.2,4.7-11.6,4.7c-9.1,0-16.5-7.4-16.5-16.4
		C98.2,75,105.6,67.6,114.7,67.6z M114.7,77c-1.9,0-3.5,1.4-3.8,3.2l-1.6-0.1c0.4-2.7,2.7-4.7,5.4-4.7c3.1,0,5.5,2.5,5.5,5.5v0.8
		h0.8c0.4,0,0.8,0.4,0.8,0.8v9.4c0,0.5-0.3,0.8-0.8,0.8h-12.6c-0.4,0-0.8-0.4-0.8-0.8v-9.5c0-0.5,0.3-0.8,0.8-0.8h0.8h1.5h7.9v-0.8
		C118.6,78.8,116.9,77,114.7,77z"/>
	<path fill="#FFFFFF" d="M104,138.2H81.7c-0.4,0-0.8-0.4-0.8-0.8V17.2c0-0.4,0.3-0.8,0.8-0.8h16l0,0h6.3V0H0v162.1h104V138.2z
		 M77.3,137.5c0,0.4-0.3,0.8-0.8,0.8H61.2c-2.4,0-4.4-2-4.4-4.4V20.8c0-2.4,1.9-4.4,4.4-4.4h15.4c0.4,0,0.8,0.4,0.8,0.8L77.3,137.5
		L77.3,137.5z"/>
	<path fill="#FFFFFF" d="M106,0v16.4h15.3l0,0h27.6c2.4,0,4.4,2,4.4,4.4v113.1c0,2.4-1.9,4.4-4.4,4.4H106v23.8h104V0H106.4H106z"/>
	<path fill="#FFFFFF" d="M114.7,84.9c-0.8,0-1.6,0.7-1.6,1.6c0,0.6,0.4,1.1,0.8,1.4V89c0,0.5,0.3,0.8,0.8,0.8c0.4,0,0.8-0.4,0.8-0.8
		v-1.1c0.4-0.3,0.8-0.8,0.8-1.4C116.3,85.6,115.6,84.9,114.7,84.9z"/>
</g>
</svg>
