<?xml version="1.0" encoding="utf-8"?>
<!-- Generator: Adobe Illustrator 17.1.0, SVG Export Plug-In . SVG Version: 6.00 Build 0)  -->
<!DOCTYPE svg PUBLIC "-//W3C//DTD SVG 1.1//EN" "http://www.w3.org/Graphics/SVG/1.1/DTD/svg11.dtd">
<svg version="1.1" id="Calque_1" xmlns="http://www.w3.org/2000/svg" xmlns:xlink="http://www.w3.org/1999/xlink" x="0px" y="0px"
	 width="210px" height="162px" viewBox="0 0 210 162" enable-background="new 0 0 210 162" xml:space="preserve">
<g>
	<rect x="96.2" y="109.7" fill="#FFFFFF" width="13" height="4.4"/>
	<rect x="96.2" y="102.2" fill="#FFFFFF" width="13" height="4.4"/>
	<rect x="96.2" y="117.1" fill="#FFFFFF" width="13" height="4.4"/>
	<path fill="#FFFFFF" d="M104,132.1h-7.7v4.9c0,0.9-0.7,1.5-1.6,1.5c-0.8,0-1.5-0.7-1.5-1.5V96.4L79,95.7l0,0c-3.8,0-7-3.1-7-7
		c0-0.6-0.1-55,0-62.2c0-0.1,0-0.1,0-0.1v-0.8c0-3.7,3.1-9.2,7.3-9.2H104V0H0v162.1h104V132.1z"/>
	<path fill="#FFFFFF" d="M136.6,90.1V17.7H79.2c-3.1,0-5.9,4.4-5.9,7.9v0.8c0,0.1,0,0.1,0,0.1c0,6.9,0,61.7,0,62.2
		c0,3.1,2.5,5.7,5.7,5.7L93.1,95v-8.3c0-0.4,0.1-0.7,0.3-1h-5.2c-0.3,0-0.6-0.2-0.6-0.6v-1.2V42.7v-1c0-0.3,0.2-0.6,0.6-0.6H115
		c0.4,0,0.6,0.2,0.6,0.6v43.4c0,0.4-0.2,0.6-0.6,0.6h-3c0.2,0.2,0.4,0.6,0.4,1v9.2l20.1,0.9V91l0,0V30.9H79.3c-0.1,0-0.1,0-0.2,0
		c-1.2-0.3-3.7-1.9-3.9-4.8v-0.9c0-4.2,1.9-5.4,3-5.6c0.3-0.1,0.7,0.1,0.8,0.5c0.1,0.4-0.1,0.7-0.5,0.8c-1.2,0.3-2,1.8-2,4.3v0.9
		c0.1,2.2,2.1,3.3,2.8,3.4h53.8c0.2,0,0.4,0.1,0.4,0.2c0.2,0.2,0.2,0.3,0.2,0.5v60.1L136.6,90.1z"/>
	<polygon fill="#FFFFFF" points="109.2,97 109.2,95.7 109.2,94.7 96.2,94.7 96.2,95.1 96.2,96.4 96.2,99 109.2,99 	"/>
	<rect x="96.2" y="124.6" fill="#FFFFFF" width="13" height="4.3"/>
	<path fill="#FFFFFF" d="M106,0v16.2h31.2c0.4,0,0.6,0.3,0.6,0.7v73.7c0,0.3-0.2,0.6-0.6,0.6l-3.5,0.3v5.9c0,0.2-0.1,0.4-0.2,0.5
		s-0.3,0.2-0.4,0.2c0,0,0,0-0.1,0l-20.8-1v39.7c0,0.9-0.7,1.5-1.6,1.5c-0.8,0-1.6-0.7-1.6-1.5v-4.9h-3v30.2h104V0H106.4H106z"/>
	<path fill="#FFFFFF" d="M109.2,91.5v-4.9c0-0.3,0.2-0.7,0.3-1H109v2.6c0,0.2-0.1,0.3-0.2,0.4s-0.2,0.1-0.3,0.1c-0.1,0-0.1,0-0.2,0
		L96.1,86c0,0.2,0.1,0.3,0.1,0.5v4.9L109.2,91.5L109.2,91.5z"/>
	<path fill="#FFFFFF" d="M114.4,42.4H89.2l19.3,4.2c0.2,0,0.4,0.3,0.4,0.6v37.4h5.4L114.4,42.4L114.4,42.4z"/>
	<path fill="#FFFFFF" d="M88.8,83.4l5.2,1.1l5.3,1.2l8.6,1.9v-1.9v-1.1V47.7l-19.1-4.2V83.4z M104.9,66.1c0.5,0,0.9,0.4,0.9,0.9
		c0,0.4-0.4,0.8-0.9,0.8s-0.8-0.4-0.8-0.8C104.1,66.5,104.5,66.1,104.9,66.1z"/>
	<path fill="#FFFFFF" d="M110.2,136.8c0,0.3,0.2,0.5,0.6,0.5s0.6-0.2,0.6-0.5V97.1v-1.4v-9.1c0-0.3-0.2-0.5-0.6-0.5
		s-0.6,0.2-0.6,0.5v4.9v1h-1h-13h-1v-1v-4.9c0-0.3-0.2-0.5-0.6-0.5c-0.3,0-0.5,0.2-0.5,0.5V95v1.4v40.5c0,0.3,0.2,0.5,0.5,0.5
		s0.6-0.2,0.6-0.5V132v-1h1h13h1v1V136.8z M95.2,99v-2.7V95v-0.4v-1h1h13h1v1v1.1v1.4v2v1h-1h-13h-1C95.2,100,95.2,99,95.2,99z
		 M95.2,106.5v-4.4v-1h1h13h1v1v4.4v1h-1h-13h-1V106.5z M95.2,113.9v-4.4v-1h1h13h1v1v4.4v1h-1h-13h-1V113.9z M95.2,121.4V117v-1h1
		h13h1v1v4.4v1h-1h-13h-1V121.4z M109.2,129.9h-13h-1v-1v-4.4v-1h1h13h1v1v4.4v1H109.2z"/>
</g>
</svg>
