<?xml version="1.0" encoding="utf-8"?>
<!-- Generator: Adobe Illustrator 17.1.0, SVG Export Plug-In . SVG Version: 6.00 Build 0)  -->
<!DOCTYPE svg PUBLIC "-//W3C//DTD SVG 1.1//EN" "http://www.w3.org/Graphics/SVG/1.1/DTD/svg11.dtd">
<svg version="1.1" id="Calque_1" xmlns="http://www.w3.org/2000/svg" xmlns:xlink="http://www.w3.org/1999/xlink" x="0px" y="0px"
	 width="210px" height="162px" viewBox="0 0 210 162" enable-background="new 0 0 210 162" xml:space="preserve">
<g>
	<path fill="#FFFFFF" d="M104,138.2l-10.5-19.7l-9.6,0.1c-0.2,0-7.7-0.6-7.8-7.3c-0.2-6.7,6.3-7.1,6.4-7.1h3.8l-6.8-12.3
		c-12,0.8-21.5-0.7-29-4.7c-6.3-3.3-7.9-7.6-8.3-9.1L42,77.4v-0.8c0.4-1.5,2.1-5.8,8.4-9.1c7.4-3.9,16.9-5.5,29-4.7l6.9-12.4h-3.8
		c-0.1,0-6.7-0.4-6.4-7.1c0.2-6.6,7.7-7.3,7.8-7.3l9.6,0.1L104,16.4V0H0v162.1h104V138.2z"/>
	<path fill="#FFFFFF" d="M157.6,45.9H150l-12.3,23.4l-29-5.3l9-46.1h-13L94.3,37.7l-10.4-0.2c-0.2,0-6.3,0.5-6.5,5.9
		c-0.2,5.3,4.9,5.7,5.2,5.7h6.1l-8.4,15.1h-0.5c-12-0.8-21.3,0.6-28.7,4.5c-5.4,2.8-7.1,6.4-7.6,7.9l-0.2,0.6l0.2,0.7
		c0.5,1.5,2.2,5.1,7.6,7.9c7.3,3.9,16.7,5.3,28.7,4.5h0.5l8.4,15.1h-6.1c-0.2,0-5.2,0.4-5.1,5.7c0.1,5.4,6.2,5.9,6.5,5.9l10.4-0.2
		l10.3,19.8h13l-9-46.1l29-5.3l12.3,23.4h7.6l-7.5-30.9l-0.2-0.7l0.2-0.7L157.6,45.9z"/>
	<polygon fill="#FFFFFF" points="106,0 106,16.6 119.3,16.6 110.2,62.9 136.9,67.8 149.1,44.5 159.2,44.5 151.3,77.4 159.2,110.4 
		149.1,110.4 136.9,87.1 110.2,92 119.3,138.2 106,138.2 106,162.1 210,162.1 210,0 	"/>
</g>
</svg>
