<?xml version="1.0" encoding="utf-8"?>
<!-- Generator: Adobe Illustrator 17.1.0, SVG Export Plug-In . SVG Version: 6.00 Build 0)  -->
<!DOCTYPE svg PUBLIC "-//W3C//DTD SVG 1.1//EN" "http://www.w3.org/Graphics/SVG/1.1/DTD/svg11.dtd">
<svg version="1.1" id="Calque_1" xmlns="http://www.w3.org/2000/svg" xmlns:xlink="http://www.w3.org/1999/xlink" x="0px" y="0px"
	 width="210px" height="162px" viewBox="0 0 210 162" enable-background="new 0 0 210 162" xml:space="preserve">
<g>
	<path fill="#FFFFFF" d="M106,0v19.3c0.2,0.5,0.9,0.9,1.4,1.2c1.2,1.1,2.8,1.4,3.4,1.4c0.2,0,0.3,0.1,0.4,0.1
		c0.4,0.1,0.6,0.5,0.6,0.9c-0.1,0.4-0.4,0.7-0.8,0.7c0,0-0.1,0-0.3-0.1c-0.5,0-1.8,0.1-3.4,1.5c-1.2,1.1-1.4,2.8-1.4,3.4
		c0,0.2,0,0.3,0,0.3c0,0.4-0.3,0.8-0.7,0.8H105c-0.4,0-0.7-0.3-0.8-0.7c0,0,0-0.2,0-0.3c0-0.6-0.3-2.3-1.4-3.5
		c-0.9-1-2.3-1.3-3.1-1.4c-0.4,0-0.8-0.1-0.8-0.1c-0.4-0.1-0.6-0.4-0.6-0.8s0.3-0.7,0.8-0.7c0,0,0.3,0,0.8,0.1
		c0.7-0.1,1.9-0.3,3-1.4c0.4-0.5,0.9-0.9,1.1-1.3V0H0v162h104v-24.4H78.9c-0.2,0-0.5-0.4-0.6-0.6l-10.5-13.8
		c-0.1-0.2-0.2-0.3-0.2-0.5v-12l0,0l0,0v-0.1c0-0.1,0-0.1,0-0.1l0,0v-0.1c0-0.1,0-0.1,0-0.1l0.1-0.1v-0.1c0.1-0.1,0.1-0.1,0.1-0.1
		l0,0c0-0.1,0-0.1,0.1-0.1l0,0l9-6c0.3-0.3,0.8-0.2,1.1,0.2c0.2,0.4,0.1,0.8-0.2,1.1l-8.4,5.5l9.9,13.5h51.8l9.4-13.4l-9.4-5.6
		c-0.3-0.2-0.5-0.7-0.2-1.1c0.2-0.4,0.7-0.5,1.1-0.3l10.1,6l0,0c0.1,0,0.1,0.1,0.1,0.1s0,0,0,0.1l0.1,0.1v0.1c0,0.1,0.1,0.1,0.1,0.1
		v0.1c0,0.1,0,0.1,0,0.1s0,0,0,0.1l0,0c0,0.1,0,0.1,0,0.1v0.1l0,0v12c0,0.2,0,0.3-0.1,0.5l-10.3,14c-0.1,0.2-0.4,0.3-0.6,0.3H106
		V162h104V0H106.4H106z M123.7,34.3c0-0.4,0.3-0.8,0.8-0.8s0.8,0.4,0.8,0.8v23.8c0,0.4-0.3,0.8-0.8,0.8s-0.8-0.4-0.8-0.8V34.3z
		 M123.7,62.9c0-0.4,0.3-0.8,0.8-0.8s0.8,0.4,0.8,0.8v39.8c0,0.4-0.3,0.8-0.8,0.8s-0.8-0.4-0.8-0.8V62.9z M113.9,28.5
		c0-0.4,0.4-0.8,0.8-0.8s0.8,0.4,0.8,0.8v42.8c0,0.4-0.3,0.8-0.8,0.8c-0.4,0-0.8-0.4-0.8-0.8V28.5z M114.6,75.9c2,0,3.5,1.6,3.5,3.5
		s-1.5,3.5-3.5,3.5c-1.9,0-3.5-1.6-3.5-3.5S112.7,75.9,114.6,75.9z M115.4,87v11.3c0,0.4-0.3,0.8-0.8,0.8c-0.4,0-0.8-0.4-0.8-0.8V87
		c0-0.4,0.4-0.8,0.8-0.8C115.1,86.3,115.4,86.6,115.4,87z M104.2,33.2c0-0.4,0.3-0.8,0.8-0.8s0.8,0.4,0.8,0.8V50
		c0,0.4-0.3,0.8-0.8,0.8s-0.8-0.4-0.8-0.8V33.2z M104.2,57.5c0-0.4,0.3-0.8,0.8-0.8s0.8,0.4,0.8,0.8v42.7c0,0.4-0.3,0.8-0.8,0.8
		s-0.8-0.4-0.8-0.8V57.5z M94.1,24.7c0-0.4,0.3-0.8,0.8-0.8c0.4,0,0.8,0.4,0.8,0.8v24.4c0,0.4-0.4,0.8-0.8,0.8s-0.8-0.4-0.8-0.8
		V24.7z M88.8,61.1c0,0,0.3,0,0.8,0.1c0.7-0.1,2-0.3,3-1.4c1.4-1.5,1.5-2.9,1.4-3.3c0-0.1,0-0.2,0-0.2c0-0.4,0.3-0.8,0.7-0.8
		s0.8,0.3,0.8,0.7c0,0,0,0.1,0,0.2c0,0.5,0.3,2.3,1.5,3.4s2.8,1.4,3.4,1.4c0.2,0,0.3,0.1,0.3,0.1c0.4,0.1,0.7,0.5,0.6,0.9
		s-0.4,0.7-0.8,0.7c0,0-0.1,0-0.3-0.1c-0.5,0-1.8,0.1-3.5,1.5c-1.2,1.1-1.3,2.8-1.3,3.4c0,0.2,0,0.3,0,0.3c0,0.4-0.3,0.8-0.7,0.8
		l0,0c-0.4,0-0.7-0.3-0.8-0.7c0,0,0-0.2,0-0.4c-0.1-0.6-0.3-2.3-1.4-3.5c-0.9-1-2.3-1.3-3.1-1.4c-0.5,0-0.7-0.1-0.8-0.1
		c-0.4-0.1-0.7-0.4-0.7-0.8C88.2,61.5,88.4,61.2,88.8,61.1z M95.6,74.5v19.7c0,0.4-0.4,0.8-0.8,0.8S94,94.6,94,94.2V74.5
		c0-0.4,0.3-0.8,0.8-0.8C95.2,73.7,95.6,74,95.6,74.5z M84.1,34.3c0-0.4,0.3-0.8,0.8-0.8s0.8,0.4,0.8,0.8v16.8
		c0,0.4-0.3,0.8-0.8,0.8s-0.8-0.4-0.8-0.8V34.3z M84.1,58.4c0-0.4,0.3-0.8,0.8-0.8s0.8,0.4,0.8,0.8v45.1c0,0.4-0.3,0.8-0.8,0.8
		s-0.8-0.4-0.8-0.8V58.4z M127.4,111.8c-0.4,3.3-5.6,8.7-22.3,8.7c-20.8,0-22.7-8.3-22.7-8.7c-0.1-0.4,0.2-0.8,0.6-0.9
		s0.8,0.2,0.9,0.6c0,0.1,1.8,7.5,21.2,7.5c6.9,0,12.5-1,16.3-2.9c3.1-1.5,4.4-3.4,4.5-4.6c0.1-0.4,0.5-0.7,0.9-0.7
		C127.1,111,127.4,111.4,127.4,111.8z"/>
	<path fill="#FFFFFF" d="M94.7,64.4c0.3-0.5,0.7-1.1,1.2-1.5c0.6-0.5,1.2-0.9,1.7-1.1c-0.5-0.3-1-0.6-1.4-1c-0.6-0.5-1-1.1-1.2-1.6
		c-0.2,0.5-0.7,1.1-1.2,1.6c-0.4,0.5-0.9,0.9-1.4,1.1c0.5,0.3,1,0.6,1.4,1.1S94.4,64,94.7,64.4z"/>
	<path fill="#FFFFFF" d="M141,113.2l-8.8,12.4c-0.2,0.2-0.3,0.3-0.6,0.3H79c-0.2,0-0.4-0.1-0.6-0.3l-9.2-12.5v9.6L79.3,136H131
		l10-13.4V113.2z"/>
	<path fill="#FFFFFF" d="M103.9,21.6c-0.4,0.5-0.9,0.9-1.4,1.1c0.5,0.3,1,0.6,1.4,1.1s0.8,1,0.9,1.5c0.3-0.5,0.7-1.1,1.2-1.5
		c0.6-0.5,1.2-0.9,1.7-1.1c-0.5-0.3-1-0.6-1.4-1c-0.6-0.5-1-1.1-1.2-1.6C104.8,20.5,104.4,21.1,103.9,21.6z"/>
	<path fill="#FFFFFF" d="M114.6,81.3c1.1,0,2-0.9,2-2s-0.9-2-2-2s-2,0.9-2,2S113.6,81.3,114.6,81.3z"/>
</g>
</svg>
