<?xml version="1.0" encoding="utf-8"?>
<!-- Generator: Adobe Illustrator 17.1.0, SVG Export Plug-In . SVG Version: 6.00 Build 0)  -->
<!DOCTYPE svg PUBLIC "-//W3C//DTD SVG 1.1//EN" "http://www.w3.org/Graphics/SVG/1.1/DTD/svg11.dtd">
<svg version="1.1" id="Calque_1" xmlns="http://www.w3.org/2000/svg" xmlns:xlink="http://www.w3.org/1999/xlink" x="0px" y="0px"
	 width="210px" height="162px" viewBox="0 0 210 162" enable-background="new 0 0 210 162" xml:space="preserve">
<g>
	<path fill="#FFFFFF" d="M96.6,115.9c-2,0-3.6,1.6-3.6,3.6s1.6,3.6,3.6,3.6s3.6-1.6,3.6-3.6S98.6,115.9,96.6,115.9z"/>
	<path fill="#FFFFFF" d="M142.4,65.8c-0.1,0.8-0.2,1.6-0.5,2.2c0.7-0.3,1.4-0.4,2.1-0.4c0.1,0,0.2,0,0.4,0h0.6
		c0.9,0.1,1.7,0.2,2.6,0.5c-0.3-0.8-0.4-1.8-0.4-3c0.2-1.3,0.3-2.2,0.6-3c-0.9,0.4-2,0.7-3.1,0.6c-1,0-1.8-0.1-2.7-0.5
		C142.2,63.3,142.4,64.4,142.4,65.8z"/>
	<path fill="#FFFFFF" d="M142.9,95c2.7,0,4.8-2.2,4.8-4.8s-2.2-4.8-4.8-4.8c-2.6,0-4.8,2.2-4.8,4.8C138.1,92.9,140.2,95,142.9,95z"
		/>
	<path fill="#FFFFFF" d="M119,132.3c1.1-1.4,2.1-2.3,3.2-2.7l0.8-0.3c1.5-0.6,2.6-1,4.2-1.2c-1.3-1.1-2.4-2.4-3-4
		c-0.9-2-1.4-3.5-1.5-4.9c-1.1,1.6-2.5,2.8-4,3.5c-1.6,0.7-2.8,1.2-4.4,1.4c1.5,1.2,2.8,2.7,3.6,4.6
		C118.4,129.8,118.8,131,119,132.3z"/>
	<path fill="#FFFFFF" d="M106,0v73.4l9.9,9.4l-7.6,7.7l-67-66.4l7.7-7.7l55,54.3V0H0v162h104v-23.8v-0.1v-2.2h12.9
		c0.2-1.2,0.4-3.4-0.9-6.4c-2.2-4.9-7.1-5.8-7.1-5.8c-0.6-0.1-0.9-0.6-0.8-1.2s0.7-0.9,1.2-0.8c4.8,0.8,6.3,0.2,8.6-0.8
		c3.4-1.6,5.1-6.2,5.1-6.2c0.2-0.5,0.7-0.8,1.2-0.6c0.5,0.1,0.9,0.6,0.8,1.1l-0.1,0.5c-0.2,2.6-0.4,3.9,1.3,7.7
		c1.7,3.8,5.2,4.8,5.2,4.8c0.5,0.1,0.9,0.6,0.8,1.1c-0.1,0.5-0.6,0.9-1.1,0.8c-3.7-0.2-4.8,0.2-7.2,1.2l-0.8,0.3
		c-1.9,0.7-3.7,4.1-4.4,5.8c-0.1,0.1-0.1,0.2-0.1,0.2c-0.1,0.3-0.5,0.6-0.9,0.6l0,0l0,0H106V162h104V0H106.4H106z M90.2,101.1
		c-0.3-0.3-0.3-0.9,0-1.2l7.9-8.1c0.3-0.3,0.9-0.3,1.2,0c0.3,0.3,0.3,0.9,0,1.2l-7.9,8.1c-0.1,0.2-0.4,0.2-0.6,0.2
		C90.6,101.4,90.3,101.3,90.2,101.1z M96.6,124.6c-2.8,0-5.2-2.3-5.2-5.1c0-2.8,2.3-5.1,5.2-5.1s5.2,2.3,5.2,5.1
		C101.8,122.3,99.4,124.6,96.6,124.6z M107.6,108.4c0,0.5-0.4,0.9-0.9,0.9s-0.9-0.4-0.9-0.9V97c0-0.5,0.4-0.9,0.9-0.9
		s0.9,0.4,0.9,0.9V108.4z M138.6,59.3c0.2-0.3,0.8-0.4,1.1-0.1c2.5,1.9,3.4,2.1,5,2.1c2.4,0.1,4.7-1.9,4.7-1.9c0.3-0.2,0.8-0.2,1,0
		c0.3,0.2,0.4,0.7,0.2,1l-0.2,0.3c-0.9,1.4-1.4,2-1.6,4.7c-0.2,2.6,1.3,4.2,1.4,4.2c0.3,0.3,0.3,0.7,0.1,1s-0.7,0.4-1.1,0.1
		c-2-1.2-2.8-1.3-4.4-1.5h-0.5c-1.3-0.1-3.4,1.2-4.2,1.8c-0.1,0-0.1,0.1-0.2,0.1c-0.1,0.1-0.3,0.1-0.4,0.1c-0.2,0-0.5-0.1-0.6-0.3
		c-0.2-0.3-0.2-0.8,0.1-1.1c0,0,0,0,0.1-0.1c0.3-0.3,1.6-1.5,1.8-4.1c0.2-3.3-2.1-5.3-2.1-5.4C138.4,60.1,138.3,59.6,138.6,59.3z
		 M116.6,73.8c-0.3-0.3-0.3-0.9,0-1.2l8.9-8.9c0.3-0.3,0.9-0.3,1.2,0c0.3,0.3,0.3,0.9,0,1.2l-8.9,8.9c-0.2,0.1-0.4,0.2-0.6,0.2
		C116.9,74.1,116.7,74,116.6,73.8z M127.4,102.2c-0.2,0.1-0.4,0.2-0.6,0.2s-0.5-0.1-0.6-0.3l-8.1-9.1c-0.3-0.3-0.3-0.9,0.1-1.2
		c0.3-0.3,0.9-0.3,1.2,0l8.2,9.1C127.8,101.3,127.7,101.9,127.4,102.2z M133.1,83.5h-11.5c-0.5,0-0.9-0.4-0.9-0.9s0.4-0.9,0.9-0.9
		h11.5c0.5,0,0.9,0.4,0.9,0.9S133.6,83.5,133.1,83.5z M142.9,83.9c3.6,0,6.4,2.9,6.4,6.4s-2.9,6.4-6.4,6.4c-3.6,0-6.4-2.9-6.4-6.4
		C136.6,86.7,139.4,83.9,142.9,83.9z M159.9,117.6l-9.4,1.4l7.5,5.7c0.4,0.2,0.4,0.7,0.1,1.1c-0.1,0.2-0.4,0.3-0.6,0.3
		s-0.3,0-0.5-0.1l-7.4-5.6l1.4,9.2c0.1,0.4-0.2,0.8-0.7,0.9h-0.1c-0.4,0-0.7-0.3-0.8-0.6l-1.4-9.3l-5.8,7.5
		c-0.1,0.2-0.4,0.3-0.6,0.3c-0.2,0-0.3,0-0.5-0.1c-0.3-0.2-0.4-0.7-0.2-1.1l5.7-7.4l-9.2,1.4c-0.1,0-0.1,0-0.1,0
		c-0.4,0-0.7-0.3-0.8-0.6c-0.1-0.4,0.2-0.8,0.6-0.9l9.4-1.4l-7.5-5.7c-0.4-0.2-0.4-0.7-0.1-1.1c0.2-0.3,0.8-0.4,1.1-0.1l7.4,5.7
		l-1.4-9.2c-0.1-0.4,0.2-0.8,0.7-0.9c0.4,0,0.8,0.2,0.9,0.6l1.4,9.3l5.8-7.5c0.2-0.3,0.8-0.4,1.1-0.1c0.4,0.2,0.4,0.7,0.1,1.1
		l-5.7,7.4l9.2-1.4c0.4,0,0.8,0.2,0.9,0.6C160.6,117.2,160.3,117.6,159.9,117.6z M168.7,86.3c0.3,0.3,0.3,0.8,0,1.1
		c-0.2,0.1-0.3,0.2-0.6,0.2c-0.2,0-0.4-0.1-0.6-0.2l-4.8-4.9l-4.9,4.7c-0.1,0.1-0.3,0.2-0.5,0.2s-0.4-0.1-0.6-0.2
		c-0.3-0.3-0.3-0.8,0-1.1l4.9-4.7l-4.8-4.9c-0.3-0.3-0.3-0.8,0-1.1s0.8-0.3,1.1,0l4.8,4.9l4.9-4.7c0.3-0.3,0.8-0.3,1.1,0
		s0.3,0.8,0,1.1l-4.9,4.7L168.7,86.3z"/>
	<polygon fill="#FFFFFF" points="108.3,88.4 102.1,82.3 107.5,76.8 113.7,82.9 	"/>
</g>
</svg>
