<?xml version="1.0" encoding="utf-8"?>
<!-- Generator: Adobe Illustrator 17.1.0, SVG Export Plug-In . SVG Version: 6.00 Build 0)  -->
<!DOCTYPE svg PUBLIC "-//W3C//DTD SVG 1.1//EN" "http://www.w3.org/Graphics/SVG/1.1/DTD/svg11.dtd">
<svg version="1.1" id="Calque_1" xmlns="http://www.w3.org/2000/svg" xmlns:xlink="http://www.w3.org/1999/xlink" x="0px" y="0px"
	 width="2000px" height="2660px" viewBox="0 0 2000 2660" enable-background="new 0 0 2000 2660" xml:space="preserve">
<g>
	<rect x="-0.1" y="-0.2" fill="#250671" width="2000" height="2000"/>
	<g>
		<rect x="551.1" y="298.6" fill="#FFB700" width="263.5" height="1395.2"/>
		<rect x="830.7" y="558.8" fill="#FFB700" width="263.5" height="1134.9"/>
		<rect x="271.5" y="809.1" fill="#FFB700" width="263.5" height="884.7"/>
		
			<rect x="1309.1" y="808.2" transform="matrix(0.8732 -0.4873 0.4873 0.8732 -426.7366 860.7005)" fill="#FFB700" width="263.5" height="884.7"/>
	</g>
</g>
<g>
	<rect x="-0.1" y="1999.8" fill="#EAE3F0" width="2000" height="660"/>
	<g opacity="0.9">
		<path fill="#250671" d="M371.3,2370.2c0,13.8-4.5,25.5-13.5,35c-10.2,10.9-25.6,16.3-46.2,16.3h-61.7v-183.8h61.7
			c19.4,0,34.1,5.4,44.1,16.1c7.6,8.1,11.4,18.6,11.4,31.4c0,9.2-2.3,17.5-7,25c-4.7,7.5-11.2,12.7-19.4,15.7
			c9.3,3.1,16.8,8.8,22.3,17.1C368.5,2351.3,371.3,2360.4,371.3,2370.2z M343.6,2287c0-9.2-3.2-16.2-9.6-21.3
			c-6.4-5-14.3-7.5-23.6-7.5h-37.9v57.8h38.4c10,0,18-2.4,23.9-7.1C340.6,2304.2,343.6,2296.9,343.6,2287z M347.7,2368.7
			c0-9.8-3.4-17.7-10.2-23.6s-15.5-8.8-26.1-8.8h-38.9v64.1h39.2c10.9,0,19.6-2.6,26.2-7.6C344.4,2387.6,347.7,2379.6,347.7,2368.7z
			"/>
		<path fill="#250671" d="M539.7,2285.6c2.8,12,4.3,26.7,4.3,44.2c0,17.5-1.4,32.2-4.3,44.2c-2.8,12-8.9,22.4-18,31.3
			c-13.7,13.3-29.6,20-48,20c-18.3,0-34.3-6.6-48-20c-9.2-8.8-15.2-19.2-18-31.3c-2.8-12-4.3-26.7-4.3-44.2
			c0-17.5,1.4-32.2,4.3-44.2c2.8-12,8.9-22.4,18-31.3c13.7-13.3,29.6-20,48-20c18.3,0,34.3,6.7,48,20
			C530.8,2263.2,536.8,2273.6,539.7,2285.6z M519.8,2345.6c0.2-3.3,0.3-8.6,0.3-15.8s-0.1-12.5-0.3-15.8c-0.2-3.3-0.6-8.1-1.4-14.5
			c-0.8-6.4-2.2-11.9-4.3-16.6c-2.1-4.7-4.9-8.8-8.6-12.5c-9-9.3-19.6-14-31.9-14c-12.3,0-22.9,4.7-31.9,14
			c-3.6,3.6-6.5,7.8-8.6,12.5c-2.1,4.7-3.5,10.2-4.3,16.6c-0.8,6.4-1.3,11.2-1.4,14.5c-0.2,3.3-0.3,8.6-0.3,15.8s0.1,12.5,0.3,15.8
			c0.2,3.3,0.6,8.1,1.4,14.5c0.8,6.4,2.2,11.9,4.3,16.6c2.1,4.7,4.9,8.8,8.6,12.4c9,9.3,19.6,14,31.9,14c12.3,0,22.9-4.7,31.9-14
			c3.6-3.6,6.5-7.8,8.6-12.4c2.1-4.7,3.5-10.2,4.3-16.6C519.2,2353.7,519.7,2348.9,519.8,2345.6z"/>
		<path fill="#250671" d="M710,2285.6c2.8,12,4.3,26.7,4.3,44.2c0,17.5-1.4,32.2-4.3,44.2c-2.8,12-8.9,22.4-18,31.3
			c-13.7,13.3-29.6,20-48,20c-18.3,0-34.3-6.6-48-20c-9.2-8.8-15.2-19.2-18-31.3c-2.8-12-4.3-26.7-4.3-44.2
			c0-17.5,1.4-32.2,4.3-44.2c2.8-12,8.9-22.4,18-31.3c13.7-13.3,29.6-20,48-20c18.3,0,34.3,6.7,48,20
			C701.1,2263.2,707.2,2273.6,710,2285.6z M690.2,2345.6c0.2-3.3,0.3-8.6,0.3-15.8s-0.1-12.5-0.3-15.8c-0.2-3.3-0.6-8.1-1.4-14.5
			c-0.8-6.4-2.2-11.9-4.3-16.6c-2.1-4.7-4.9-8.8-8.6-12.5c-9-9.3-19.6-14-31.9-14c-12.3,0-22.9,4.7-31.9,14
			c-3.6,3.6-6.5,7.8-8.6,12.5c-2.1,4.7-3.5,10.2-4.3,16.6c-0.8,6.4-1.3,11.2-1.4,14.5c-0.2,3.3-0.3,8.6-0.3,15.8s0.1,12.5,0.3,15.8
			c0.2,3.3,0.6,8.1,1.4,14.5c0.8,6.4,2.2,11.9,4.3,16.6c2.1,4.7,4.9,8.8,8.6,12.4c9,9.3,19.6,14,31.9,14c12.3,0,22.9-4.7,31.9-14
			c3.6-3.6,6.5-7.8,8.6-12.4c2.1-4.7,3.5-10.2,4.3-16.6C689.5,2353.7,690,2348.9,690.2,2345.6z"/>
		<path fill="#250671" d="M890.6,2421.6h-27.2l-53.2-92.6l-31.1,35.5v57h-23.3v-183.8h23.3v94.4l82.7-94.4h28.5l-63.8,72.6
			L890.6,2421.6z"/>
		<path fill="#250671" d="M1005.9,2241.8l23-5.2l40.9,179.2l-23,5.2 M964.2,2421.6h-23.3v-183.8h23.3"/>
		<path fill="#250671" d="M1243.4,2285.6c2.8,12,4.3,26.7,4.3,44.2c0,17.5-1.4,32.2-4.3,44.2c-2.8,12-8.9,22.4-18,31.3
			c-13.7,13.3-29.6,20-48,20c-18.3,0-34.3-6.6-48-20c-9.2-8.8-15.2-19.2-18-31.3c-2.8-12-4.3-26.7-4.3-44.2
			c0-17.5,1.4-32.2,4.3-44.2c2.8-12,8.9-22.4,18-31.3c13.7-13.3,29.6-20,48-20c18.3,0,34.3,6.7,48,20
			C1234.5,2263.2,1240.5,2273.6,1243.4,2285.6z M1223.5,2345.6c0.2-3.3,0.3-8.6,0.3-15.8s-0.1-12.5-0.3-15.8
			c-0.2-3.3-0.6-8.1-1.4-14.5c-0.8-6.4-2.2-11.9-4.3-16.6c-2.1-4.7-4.9-8.8-8.6-12.5c-9-9.3-19.6-14-31.9-14
			c-12.3,0-22.9,4.7-31.9,14c-3.6,3.6-6.5,7.8-8.6,12.5c-2.1,4.7-3.5,10.2-4.3,16.6c-0.8,6.4-1.3,11.2-1.4,14.5
			c-0.2,3.3-0.3,8.6-0.3,15.8s0.1,12.5,0.3,15.8c0.2,3.3,0.6,8.1,1.4,14.5c0.8,6.4,2.2,11.9,4.3,16.6c2.1,4.7,4.9,8.8,8.6,12.4
			c9,9.3,19.6,14,31.9,14c12.3,0,22.9-4.7,31.9-14c3.6-3.6,6.5-7.8,8.6-12.4c2.1-4.7,3.5-10.2,4.3-16.6
			C1222.9,2353.7,1223.4,2348.9,1223.5,2345.6z"/>
		<path fill="#250671" d="M1412,2354.7c0,21.4-5.5,38.5-16.5,51.2c-11,12.7-27,19.1-48.1,19.1c-20.9,0-36.9-6.4-47.8-19.2
			c-11-12.8-16.5-29.8-16.5-51.1v-116.9h23.1v117.2c0,32.1,13.8,48.2,41.5,48.2c14.3,0,24.8-4.3,31.4-13c6.6-8.6,9.9-20.4,9.9-35.3
			v-117.2h23.1V2354.7z"/>
		<path fill="#250671" d="M1585.7,2371c0,14-5.1,25.9-15.3,35.8c-12.3,12.1-29.6,18.1-51.9,18.1c-22.1,0-39.5-5.8-52.1-17.4
			c-12.8-11.9-19.2-26.6-19.2-44.1h24.1c0,11.2,4.2,20.9,12.7,29c7.6,7.4,19.1,11.2,34.5,11.2c14.9,0,26.1-3.5,33.7-10.6
			c6.2-5.7,9.3-12.9,9.3-21.5c0-7.6-2.5-14-7.4-19.3c-4.9-5.3-12.6-8.7-22.9-10.2l-28.3-4.4c-14.7-2.2-26.5-7.4-35.3-15.6
			c-8.8-8.1-13.2-19.2-13.2-33.2c0-14.3,5.2-26.5,15.6-36.3c13-12.1,28.8-18.1,47.4-18.1c19.5,0,35.3,5.7,47.2,17.1
			c11.1,10.6,16.9,23.8,17.4,39.7H1558c-0.5-8.8-3.5-16.3-8.8-22.6c-7.6-8.6-18.2-13-31.9-13c-13.7,0-24.3,4.3-31.9,13
			c-4.7,5.5-7,12.1-7,19.7c0,7.8,2.6,13.8,7.6,18c5.1,4.2,11.5,6.9,19.3,7.9c4.2,0.5,9.9,1.4,17.1,2.6c7.3,1.2,11.5,1.9,12.7,2.1
			c15.6,2.2,27.9,7.9,36.9,17C1581.2,2345,1585.7,2356.7,1585.7,2371z"/>
		<path fill="#250671" d="M1749.9,2421.6h-121.6v-183.8h121.6v21.3h-98.5v56h74.4v21.8h-74.4v63.5h98.5V2421.6z"/>
	</g>
</g>
<!--<animate  fill="freeze" accumulate="none" attributetype="XML" calcMode="linear" repeatCount="indefinite" additive="replace" id="exit-opa" restart="always" dur="5s" attributeName="opacity" begin="0s"  values="1;0;1;" end="click">
			</animate>-->
</svg>
