<?xml version="1.0" encoding="utf-8"?>
<!-- Generator: Adobe Illustrator 17.1.0, SVG Export Plug-In . SVG Version: 6.00 Build 0)  -->
<!DOCTYPE svg PUBLIC "-//W3C//DTD SVG 1.1//EN" "http://www.w3.org/Graphics/SVG/1.1/DTD/svg11.dtd">
<svg version="1.1" id="Calque_1" xmlns="http://www.w3.org/2000/svg" xmlns:xlink="http://www.w3.org/1999/xlink" x="0px" y="0px"
	 width="210px" height="162.5px" viewBox="0 0 210 162.5" enable-background="new 0 0 210 162.5" xml:space="preserve">
<g id="WEB_DESIGN">
	<g>
		<path fill="#FFFFFF" d="M58,48h116V35.5H58V48z M139,38h27.5v7H139V38z M66.5,40.6H78v2H66.5V40.6z"/>
		<rect x="68" y="80.6" fill="#FFFFFF" width="10.5" height="11.5"/>
		<path fill="#FFFFFF" d="M80.5,71h84V59.5h-84V71z M157.5,62c1.6,0,3,1.3,3,3c0,1.6-1.4,3-3,3s-3-1.4-3-3S155.9,62,157.5,62z
			 M112.5,64h8v2h-8V64z M89.5,64h19v2h-19V64z"/>
		<circle fill="#FFFFFF" cx="157.5" cy="86" r="1"/>
		<path fill="#FFFFFF" d="M174,29.6H36v4h138V29.6z M38.5,32.6c-0.6,0-1-0.5-1-1c0-0.6,0.4-1,1-1s1,0.4,1,1
			C39.5,32.1,39.1,32.6,38.5,32.6z M42.5,32.6c-0.6,0-1-0.5-1-1c0-0.6,0.4-1,1-1s1,0.4,1,1C43.5,32.1,43.1,32.6,42.5,32.6z
			 M46.5,32.6c-0.6,0-1-0.5-1-1c0-0.6,0.4-1,1-1s1,0.4,1,1C47.5,32.1,47.1,32.6,46.5,32.6z"/>
		<path fill="#FFFFFF" d="M80.5,92h84V80.5h-84V92z M157.5,83c1.6,0,3,1.3,3,3c0,1.6-1.4,3-3,3s-3-1.4-3-3S155.9,83,157.5,83z
			 M112.5,85h8v2h-8V85z M89.5,85h19v2h-19V85z"/>
		<rect x="141" y="40" fill="#FFFFFF" width="23.5" height="3"/>
		<path fill="#FFFFFF" d="M58,101.6h116V50.1H58V101.6z M66,57.6h100.5v15.5H66V57.6z M66,78.6h100.5v15.5H66V78.6z"/>
		<path fill="#FFFFFF" d="M127.5,142.6v-19.5h-45v19.5H101v2H70v-2h10.5v-19.5h-52c-1.7,0-3-1.4-3-3V21.6c0-1.7,1.3-3,3-3H104V0H0
			v162.5h104v-20h23.5V142.6z"/>
		<path fill="#FFFFFF" d="M56,35.6H36v66h20V35.6z M51.5,84h-11v-2h11V84z M51.5,76.6h-11v-2h11V76.6z M51.5,69h-11v-2h11V69z
			 M51.5,61.6h-11v-2h11V61.6z M46,51c-3.3,0-6-2.7-6-6s2.7-6,6-6s6,2.7,6,6S49.3,51,46,51z"/>
		<circle fill="#FFFFFF" cx="157.5" cy="65" r="1"/>
		<path fill="#FFFFFF" d="M46,41c-2.2,0-4,1.8-4,4s1.8,4,4,4s4-1.8,4-4S48.2,41,46,41z"/>
		<path fill="#FFFFFF" d="M106,0v20.5H28.5c-0.6,0-1,0.4-1,1V120c0,0.6,0.4,1,1,1h153c0.5,0,1-0.4,1-1V21.5c0-0.6-0.5-1-1-1h-71v-2
			h71c1.6,0,3,1.3,3,3V120c0,1.6-1.4,3-3,3h-52v19.5H140v2h-34v18h104V0H106z M176,27.6v76H34v-76C34,27.6,176,27.6,176,27.6z"/>
		<rect x="68" y="59.6" fill="#FFFFFF" width="10.5" height="11.5"/>
	</g>
</g>
<g id="APP_DESIGN">
</g>
<g id="ECOMMERCE">
</g>
<g id="WORDPRESS">
</g>
</svg>
