<?xml version="1.0" encoding="utf-8"?>
<!-- Generator: Adobe Illustrator 17.1.0, SVG Export Plug-In . SVG Version: 6.00 Build 0)  -->
<!DOCTYPE svg PUBLIC "-//W3C//DTD SVG 1.1//EN" "http://www.w3.org/Graphics/SVG/1.1/DTD/svg11.dtd">
<svg version="1.1" id="Calque_1" xmlns="http://www.w3.org/2000/svg" xmlns:xlink="http://www.w3.org/1999/xlink" x="0px" y="0px"
	 width="210px" height="162.5px" viewBox="0 0 210 162.5" enable-background="new 0 0 210 162.5" xml:space="preserve">
<g id="WEB_DESIGN">
</g>
<g id="APP_DESIGN">
</g>
<g id="ECOMMERCE">
</g>
<g id="WORDPRESS">
	<g>
		<path fill="#FFFFFF" d="M17.5,135.6c0,0.6,0.4,1,1,1h23V47.1h-24V135.6z"/>
		<path fill="#FFFFFF" d="M192.5,35h-175v10h175V35z M115.5,41H94.1v-2h21.4V41z"/>
		<path fill="#FFFFFF" d="M107.2,113.8l0.6-0.1l3.7,4.5l5.7-2.1l-0.1-5.8l0.4-0.3c1.2-0.9,2.4-1.8,3.4-2.9l0.4-0.4l5.7,1.1l3.1-5.3
			l-3.8-4.4l0.1-0.5c0.4-1.4,0.7-2.9,0.8-4.4l0.1-0.6l5.1-2.8l-1.1-6l-5.8-0.9l-0.2-0.5c-0.6-1.4-1.4-2.7-2.3-3.9l-0.3-0.4l2.1-5.4
			l-4.7-3.9l-5,3l-0.5-0.2c-1.3-0.6-2.8-1.1-4.2-1.6l-0.6-0.1l-1.9-5.5H102l-1.9,5.5L99.5,70c-1.5,0.4-2.9,0.9-4.2,1.6l-0.5,0.2
			l-5-3l-4.7,3.9l2.1,5.4l-0.3,0.4c-0.9,1.2-1.7,2.5-2.3,3.9l-0.2,0.5l-5.8,0.9l-1.1,6l5.1,2.8l0.1,0.6c0.1,1.5,0.3,3,0.8,4.4
			l0.1,0.5l-3.8,4.4l3.1,5.3l5.7-1.1l0.4,0.4c1.1,1.1,2.2,2.1,3.5,2.9l0.4,0.3l-0.1,5.8l5.7,2.1l3.7-4.5l0.6,0.1
			C104.2,113.9,105.8,113.9,107.2,113.8z M96.5,91.6c0-4.7,3.8-8.5,8.5-8.5s8.5,3.8,8.5,8.5s-3.8,8.5-8.5,8.5S96.5,96.3,96.5,91.6z"
			/>
		<path fill="#FFFFFF" d="M191.5,136.6c0.6,0,1-0.4,1-1V47.1H168v89.5H191.5z"/>
		<path fill="#FFFFFF" d="M166,136.6V47.1H43.5v89.5h57v2h-82c-1.7,0-3-1.4-3-3v-107c0-1.7,1.4-3,3-3H104V0H0v162.5h104v-26h62
			V136.6z M103.1,115.8l-3,3.7c-0.5,0.7-1.4,0.9-2.2,0.6l-5.8-2.1c-0.8-0.3-1.3-1.1-1.2-1.9l0.1-4.8c-1-0.8-2-1.6-2.9-2.5l-4.7,0.9
			c-0.8,0.2-1.7-0.2-2.1-0.9l-3.1-5.4c-0.4-0.7-0.3-1.6,0.2-2.3l3.2-3.6C81.3,96.3,81,95,81,93.7l-4.2-2.3c-0.7-0.4-1.1-1.2-0.9-2.1
			l1.1-6.1c0.2-0.8,0.8-1.4,1.6-1.6l4.7-0.8c0.6-1.1,1.2-2.2,1.9-3.3L83.5,73c-0.3-0.8-0.1-1.7,0.6-2.2l4.7-4
			c0.6-0.5,1.6-0.6,2.2-0.2l4.1,2.5c1.2-0.6,2.4-1,3.6-1.3l1.6-4.5c0.2-0.8,1-1.3,1.8-1.3h6.2c0.8,0,1.6,0.6,1.9,1.3l1.6,4.5
			c1.2,0.4,2.4,0.8,3.6,1.3l4.1-2.5c0.7-0.4,1.7-0.3,2.2,0.2l4.7,4c0.7,0.6,0.9,1.4,0.6,2.2l-1.7,4.5c0.7,1.1,1.3,2.2,1.9,3.3
			l4.7,0.8c0.8,0.2,1.4,0.8,1.6,1.6l1.1,6.1c0.1,0.8-0.2,1.7-0.9,2.1l-4.2,2.3c-0.1,1.2-0.4,2.5-0.6,3.8l3.2,3.6
			c0.6,0.6,0.6,1.5,0.2,2.3l-3.1,5.4c-0.4,0.6-1,0.9-1.7,0.9c-0.1,0-0.2,0-0.3-0.1l-4.7-0.9c-0.9,0.9-1.9,1.7-2.9,2.5l0.1,4.8
			c0,0.9-0.5,1.6-1.2,1.9l-5.8,2.1c-0.2,0.1-0.4,0.1-0.6,0.1c-0.6,0-1.2-0.2-1.5-0.7l-3-3.7C105.6,115.9,104.3,115.9,103.1,115.8z"
			/>
		<path fill="#FFFFFF" d="M106,0v27.5H18.5c-0.6,0-1,0.4-1,1V33h175v-4.5c0-0.6-0.4-1-1-1h-82v-2h82c1.6,0,3,1.4,3,3v107
			c0,1.6-1.4,3-3,3H106v24h104V0H106z M21.5,31.5c-0.6,0-1-0.5-1-1c0-0.6,0.4-1,1-1s1,0.5,1,1C22.5,31.1,22,31.5,21.5,31.5z
			 M25.5,31.5c-0.6,0-1-0.5-1-1c0-0.6,0.4-1,1-1s1,0.5,1,1C26.5,31.1,26,31.5,25.5,31.5z M29.5,31.5c-0.6,0-1-0.5-1-1
			c0-0.6,0.4-1,1-1s1,0.5,1,1C30.5,31.1,30,31.5,29.5,31.5z"/>
		<path fill="#FFFFFF" d="M111.5,91.6c0-3.6-2.9-6.5-6.5-6.5s-6.5,2.9-6.5,6.5s2.9,6.5,6.5,6.5S111.5,95.2,111.5,91.6z"/>
	</g>
</g>
</svg>
