<?xml version="1.0" encoding="utf-8"?>
<!-- Generator: Adobe Illustrator 17.1.0, SVG Export Plug-In . SVG Version: 6.00 Build 0)  -->
<!DOCTYPE svg PUBLIC "-//W3C//DTD SVG 1.1//EN" "http://www.w3.org/Graphics/SVG/1.1/DTD/svg11.dtd">
<svg version="1.1" id="Calque_1" xmlns="http://www.w3.org/2000/svg" xmlns:xlink="http://www.w3.org/1999/xlink" x="0px" y="0px"
	 width="210px" height="162.5px" viewBox="0 0 210 162.5" enable-background="new 0 0 210 162.5" xml:space="preserve">
<g id="WEB_DESIGN">
</g>
<g id="APP_DESIGN">
	<g>
		<path fill="#FFFFFF" d="M62,71H19.5v4H62V71z M45.5,74H36v-2h9.5V74z"/>
		<rect x="23.5" y="108.6" fill="#FFFFFF" width="34.5" height="16.5"/>
		<path fill="#FFFFFF" d="M185,74.8c1.4,0,2.5-1.1,2.5-2.5s-1.1-2.5-2.5-2.5s-2.5,1.1-2.5,2.5S183.6,74.8,185,74.8z"/>
		<rect x="78" y="87.6" fill="#FFFFFF" width="42" height="24.5"/>
		<path fill="#FFFFFF" d="M62,63.5c0-0.6-0.4-1-1-1H20.5c-0.6,0-1,0.4-1,1V69H62V63.5z M40.7,66.5c-0.5,0-1-0.4-1-1s0.5-1,1-1
			c0.6,0,1,0.4,1,1S41.3,66.5,40.7,66.5z"/>
		<rect x="127.5" y="87.6" fill="#FFFFFF" width="42" height="24.5"/>
		<path fill="#FFFFFF" d="M42.5,131.6c0-0.8-0.7-1.5-1.5-1.5s-1.5,0.6-1.5,1.5s0.7,1.5,1.5,1.5S42.5,132.4,42.5,131.6z"/>
		<path fill="#FFFFFF" d="M62,125.1v-48H19.5v48h2v-18.5H60v18.5H62z M21.5,104.1V79.6H60v24.5H21.5z"/>
		<path fill="#FFFFFF" d="M40,152.1v-16h21c0.6,0,1-0.4,1-1v-8H19.5v8c0,0.6,0.5,1,1,1h16v2h-16c-1.7,0-3-1.4-3-3V63.6
			c0-1.7,1.3-3,3-3H56v-33c0-1.7,1.4-3,3.1-3H104V0H0v162.5h104V152H40V152.1z M37.5,131.6c0-1.9,1.6-3.5,3.5-3.5
			c2,0,3.5,1.6,3.5,3.5c0,2-1.6,3.5-3.5,3.5C39,135.1,37.5,133.5,37.5,131.6z"/>
		<rect x="23.5" y="81.6" fill="#FFFFFF" width="34.5" height="14.5"/>
		<rect x="23.5" y="98.1" fill="#FFFFFF" width="34.5" height="4"/>
		<rect x="78" y="73.5" fill="#FFFFFF" width="42" height="5.5"/>
		<rect x="78" y="49.5" fill="#FFFFFF" width="42" height="22"/>
		<rect x="127.5" y="49.5" fill="#FFFFFF" width="42" height="22"/>
		<path fill="#FFFFFF" d="M76,85.6h46v26.5h3.5V85.6h46v26.5h6V41.6H70v70.5h6V85.6z M125.5,47.5h46V81h-46V47.5z M76,47.5h46V81H76
			V47.5z"/>
		<path fill="#FFFFFF" d="M106,0v26.5H59.1c-0.6,0-1.1,0.5-1.1,1v33h3c1.7,0,3,1.3,3,3V118h125.5c0.6,0,1-0.4,1-1V27.5
			c0-0.6-0.4-1-1-1h-80v-2h80c1.6,0,3,1.4,3,3V117c0,1.7-1.4,3-3,3H64v15c0,1.6-1.4,3-3,3H42v12h64v12.5h104V0H106z M185,67.8
			c2.5,0,4.5,2,4.5,4.5s-2,4.5-4.5,4.5s-4.5-2-4.5-4.5S182.5,67.8,185,67.8z M179.5,30.5V114H68V30.5H179.5z"/>
		<rect x="127.5" y="73.5" fill="#FFFFFF" width="42" height="5.5"/>
		<path fill="#FFFFFF" d="M177.5,32.5H70v7h107.5V32.5z M130.5,37h-13v-2h13V37z"/>
	</g>
</g>
<g id="ECOMMERCE">
</g>
<g id="WORDPRESS">
</g>
</svg>
