<?xml version="1.0" encoding="utf-8"?>
<!-- Generator: Adobe Illustrator 17.1.0, SVG Export Plug-In . SVG Version: 6.00 Build 0)  -->
<!DOCTYPE svg PUBLIC "-//W3C//DTD SVG 1.1//EN" "http://www.w3.org/Graphics/SVG/1.1/DTD/svg11.dtd">
<svg version="1.1" id="Calque_1" xmlns="http://www.w3.org/2000/svg" xmlns:xlink="http://www.w3.org/1999/xlink" x="0px" y="0px"
	 width="210px" height="162.5px" viewBox="0 0 210 162.5" enable-background="new 0 0 210 162.5" xml:space="preserve">
<g id="WEB_DESIGN">
</g>
<g id="APP_DESIGN">
</g>
<g id="ECOMMERCE">
	<g>
		<circle fill="#FFFFFF" cx="105" cy="105.1" r="1"/>
		<circle fill="#FFFFFF" cx="84" cy="112.6" r="1"/>
		<circle fill="#FFFFFF" cx="126" cy="111.6" r="1"/>
		<circle fill="#FFFFFF" cx="63" cy="116.6" r="1"/>
		<path fill="#FFFFFF" d="M40.5,133.6h129v-52h-129V133.6z M147,91.1c1.6,0,3,1.4,3,3s-1.4,3-3,3s-3-1.4-3-3
			C144,92.4,145.4,91.1,147,91.1z M143.4,95.8l1.3,1.6l-15,12.5l-1.3-1.6L143.4,95.8z M126,108.6c1.7,0,3,1.4,3,3c0,1.7-1.3,3-3,3
			s-3-1.4-3-3C123,109.9,124.4,108.6,126,108.6z M108.9,104.6l13.5,5l-0.7,1.9l-13.5-5L108.9,104.6z M105,102.1c1.7,0,3,1.4,3,3
			c0,1.7-1.3,3-3,3s-3-1.4-3-3C102,103.4,103.3,102.1,105,102.1z M101.2,105.6l0.6,1.9l-14,4.5l-0.6-1.9L101.2,105.6z M84,109.6
			c1.6,0,3,1.4,3,3c0,1.7-1.4,3-3,3c-1.7,0-3-1.4-3-3C81,110.9,82.3,109.6,84,109.6z M79.8,112.6l0.3,2l-13,2l-0.3-2L79.8,112.6z
			 M63,113.6c1.6,0,3,1.3,3,3s-1.4,3-3,3c-1.7,0-3-1.3-3-3S61.3,113.6,63,113.6z"/>
		<circle fill="#FFFFFF" cx="147" cy="94.1" r="1"/>
		<rect x="113" y="39.5" fill="#FFFFFF" width="10" height="1.5"/>
		<rect x="87" y="39.5" fill="#FFFFFF" width="10" height="1.5"/>
		<rect x="103.5" y="48" fill="#FFFFFF" width="3" height="1"/>
		<rect x="137" y="71.5" fill="#FFFFFF" width="28" height="3"/>
		<polygon fill="#FFFFFF" points="111,38 99,38 99,46 111,46 		"/>
		<path fill="#FFFFFF" d="M111,36c0.9,0,1.7,0.7,1.9,1.5H123V35H87v2.5h10c0.2-0.8,1-1.5,1.9-1.5H111z"/>
		<polygon fill="#FFFFFF" points="111,47 111,46 111,46 		"/>
		<path fill="#FFFFFF" d="M40.5,65h129v-5.5h-129V65z M52.5,61c0.6,0,1,0.4,1,1s-0.4,1-1,1s-1-0.4-1-1S51.9,61,52.5,61z M48.5,61
			c0.6,0,1,0.4,1,1s-0.5,1-1,1s-1-0.4-1-1S47.9,61,48.5,61z M44.5,61c0.6,0,1,0.4,1,1s-0.4,1-1,1s-1-0.4-1-1S43.9,61,44.5,61z"/>
		<path fill="#FFFFFF" d="M173.6,51H36.4c-0.8,0-1.4,0.6-1.4,1.4v81.2h3.5v-76h133v76h3.5V52.4C175,51.6,174.4,51,173.6,51z"/>
		<path fill="#FFFFFF" d="M40.5,79.6h129V67.1h-129V79.6z M135,69.5h32v7h-32V69.5z M48,68.3c2.8,0,5,2.2,5,5s-2.2,5-5,5s-5-2.2-5-5
			S45.2,68.3,48,68.3z"/>
		<rect x="91" y="27" fill="#FFFFFF" width="3" height="2"/>
		<path fill="#FFFFFF" d="M106,0v21h-2V0H0v162.5h104v-20h2v20h104V0H106z M108.5,28.5h12v2h-12V28.5z M115,27.5v-2h5.5v2H115z
			 M198,138.6c0,2.2-1.8,4-4,4h-90v-2h90c1.1,0,2-0.9,2-2v-3H14v3c0,1.1,0.9,2,2,2h85v2H16c-2.2,0-4-1.8-4-4v-5h21V52.4
			c0-1.8,1.6-3.4,3.4-3.4h65.1v-1H99c-1.1,0-2-0.9-2-2v-3H87c-1.1,0-2-0.9-2-2V23c0-1.1,0.9-2,2-2h19v2H87v10h36V23h-13.5v-2H123
			c1.1,0,2,0.9,2,2v18c0,1.1-0.9,2-2,2h-10v3c0,1.1-0.9,2-2,2h-2.5v1h65.1c1.9,0,3.4,1.5,3.4,3.4v81.2h21V138.6z M96,25v6h-7v-6H96z
			"/>
		<path fill="#FFFFFF" d="M48,76.3c1.7,0,3-1.4,3-3c0-1.7-1.4-3-3-3s-3,1.4-3,3S46.3,76.3,48,76.3z"/>
	</g>
</g>
<g id="WORDPRESS">
</g>
</svg>
